<svg version="1.1" id="Layer_1" xmlns="http://www.w3.org/2000/svg" xmlns:xlink="http://www.w3.org/1999/xlink" x="0px" y="0px"
	 width="100%" viewBox="0 0 1024 1024" enable-background="new 0 0 1024 1024" xml:space="preserve">
<path fill="#000000" opacity="1.000000" stroke="none" 
	d="
M548.000000,1025.000000 
	C366.833344,1025.000000 186.166656,1024.986450 5.500056,1025.093750 
	C1.750709,1025.095947 0.905801,1024.249146 0.906913,1020.500000 
	C1.007246,682.166687 1.007246,343.833344 0.906913,5.500028 
	C0.905801,1.750903 1.750902,0.905800 5.500028,0.906912 
	C343.833344,1.007255 682.166687,1.007255 1020.500000,0.906912 
	C1024.249146,0.905800 1025.094360,1.750902 1025.093262,5.500027 
	C1024.992920,343.833344 1024.992798,682.166687 1025.093140,1020.500000 
	C1025.094238,1024.249146 1024.249390,1025.096558 1020.499939,1025.093994 
	C863.166687,1024.984497 705.833313,1025.000000 548.000000,1025.000000 
z"/>
<path fill="#FDFDFE" opacity="1.000000" stroke="none" 
	d="
M565.611694,131.772644 
	C566.454346,132.035339 566.895935,132.094376 567.663330,132.067078 
	C573.378845,130.664612 578.862000,133.038803 584.630554,131.771362 
	C585.454529,132.032578 585.895630,132.090942 586.661560,132.060303 
	C588.009888,131.251221 589.163086,131.581589 590.641968,131.775894 
	C591.454529,132.044449 591.898682,132.102692 592.669617,132.071381 
	C594.679016,131.095566 596.476562,131.655899 598.617920,131.769623 
	C599.760254,132.032928 600.507202,132.093414 601.620728,132.065277 
	C607.509949,131.986816 607.912781,132.286758 607.975220,137.224426 
	C608.053162,143.389008 607.948792,149.555405 608.011719,155.720230 
	C608.065796,161.020111 608.518188,161.463745 613.678467,161.500961 
	C619.843628,161.545425 626.009277,161.489670 632.174561,161.520462 
	C639.503784,161.557083 639.503418,161.572952 639.485107,168.661850 
	C639.482971,169.494995 639.488770,170.328186 639.228882,171.585556 
	C638.964966,173.076431 638.902527,174.141815 638.932007,175.598755 
	C640.051453,180.041092 639.300659,184.158905 639.447021,188.242599 
	C639.518311,190.232132 639.636963,192.175156 640.339966,194.546997 
	C640.819519,206.752487 640.560181,218.478958 640.526184,230.204086 
	C640.519348,232.552246 640.169250,234.854019 637.543335,236.582397 
	C627.285095,238.039383 617.459229,238.120834 607.219849,236.553925 
	C605.154846,234.114182 605.429810,231.547165 605.413208,229.073746 
	C605.355103,220.408310 605.437561,211.742126 605.373596,203.076782 
	C605.329712,197.134689 604.921570,196.640778 599.246521,196.636246 
	C543.085938,196.591400 486.925385,196.589844 430.764832,196.637665 
	C425.079956,196.642517 424.664581,197.156357 424.623962,203.084824 
	C424.568024,211.250305 424.643738,219.416458 424.597687,227.582047 
	C424.549042,236.211792 423.282990,237.499313 414.828278,237.594406 
	C409.662567,237.652512 404.495117,237.537766 399.330353,237.634720 
	C394.099304,237.732941 393.654266,238.134232 393.634888,243.439987 
	C393.569092,261.437836 393.611511,279.436005 393.609589,297.434052 
	C393.607697,314.932159 393.592987,332.430298 393.617065,349.928375 
	C393.627106,357.223938 393.787567,357.351624 401.253021,357.388275 
	C405.752472,357.410370 410.253265,357.317047 414.751190,357.424683 
	C421.287964,357.581024 422.142517,358.446289 422.504028,365.439148 
	C422.358887,376.361694 423.379456,386.821350 421.628845,397.653961 
	C420.073486,399.269714 418.431396,399.502716 416.791656,399.502716 
	C409.101501,399.502686 401.404602,399.960907 393.280334,399.102661 
	C385.550476,394.362030 377.409790,392.423157 368.978882,391.443970 
	C366.859772,391.197876 364.637238,391.558167 362.496643,389.800293 
	C360.745239,385.052704 361.489258,380.525848 361.465027,376.074829 
	C361.445038,372.411469 360.047333,370.768463 356.350128,370.252655 
	C349.717224,369.327301 343.079437,369.751617 336.445374,369.565460 
	C329.705872,369.376404 328.492767,368.323273 328.462463,361.703217 
	C328.387939,345.422852 328.313202,329.141602 328.512451,312.381958 
	C329.252319,306.272736 328.992096,300.613464 328.995239,294.964447 
	C329.012482,263.999329 328.996033,233.034180 329.008545,202.069046 
	C329.011353,195.105133 329.096252,195.031311 335.906250,195.008011 
	C342.565399,194.985245 349.227722,194.882568 355.882599,195.045380 
	C359.925690,195.144302 361.637573,193.555740 361.546173,189.469406 
	C361.397308,182.813904 361.471710,176.151855 361.518829,169.492966 
	C361.566956,162.691391 362.652527,161.581543 369.272888,161.519806 
	C374.599854,161.470123 379.930939,161.397125 385.253418,161.549637 
	C388.169250,161.633194 389.476532,160.569885 389.732941,157.638138 
	C390.154877,152.813309 390.058105,148.000366 389.826538,143.183990 
	C389.771149,142.032028 389.533752,140.882996 389.504730,139.713730 
	C389.299866,131.460037 390.877289,130.051498 399.606689,131.284943 
	C401.134979,131.488480 402.194611,131.565231 403.641724,131.538132 
	C404.185974,131.498260 404.342743,131.562225 404.732147,131.524277 
	C406.379791,131.488037 407.794830,131.553726 409.623535,131.512772 
	C410.190918,131.479507 410.344574,131.552856 410.732117,131.523712 
	C418.011871,131.504639 425.057709,131.588043 432.566132,131.584259 
	C434.402954,131.539322 435.777618,131.502228 437.564301,131.514633 
	C442.018311,131.573090 446.060028,131.637024 450.559601,131.617126 
	C452.398041,131.513382 453.778625,131.508469 455.573181,131.541870 
	C457.062897,131.628616 458.138702,131.698883 459.611725,131.683960 
	C461.394073,131.465668 462.782135,131.520462 464.582306,131.589813 
	C466.069214,131.716141 467.143402,131.787262 468.611511,131.757996 
	C469.748535,131.507751 470.499573,131.511902 471.623169,131.600830 
	C472.439148,131.729874 472.883911,131.799393 473.657837,131.778320 
	C474.159363,131.667252 474.331726,131.646790 474.760620,131.670563 
	C475.457703,131.782227 475.898254,131.849655 476.663513,131.823181 
	C477.159088,131.694931 477.329987,131.660568 477.755920,131.683563 
	C478.757141,131.805908 479.503296,131.870926 480.616150,131.845840 
	C481.159546,131.712921 481.336243,131.670074 481.766113,131.728516 
	C482.763031,131.907333 483.506775,131.984894 484.618958,131.979553 
	C491.021423,131.056412 497.082489,131.694901 503.571106,131.750916 
	C506.379669,132.003723 508.746582,132.070190 511.549622,132.049576 
	C512.690186,131.420547 513.505615,131.522720 514.662109,131.763153 
	C517.710571,132.024734 520.406982,132.085297 523.545044,132.057343 
	C525.676392,131.109238 527.473511,131.649490 529.617737,131.771683 
	C530.759460,132.033188 531.506226,132.090179 532.619141,132.058029 
	C533.156738,131.854660 533.328247,131.740463 533.757324,131.797302 
	C534.761108,132.027161 535.507324,132.085983 536.619812,132.056213 
	C537.389282,131.624054 537.852966,131.491364 538.695312,131.769623 
	C539.760559,132.030884 540.507507,132.091614 541.620728,132.062653 
	C549.710510,130.817612 557.474426,131.990463 565.611694,131.772644 
z"/>
<path fill="#FEFEFE" opacity="1.000000" stroke="none" 
	d="
M638.847656,570.493164 
	C638.635559,595.506653 638.612000,620.091370 638.599304,645.115723 
	C637.516418,647.459534 635.592712,647.412292 633.783752,647.558105 
	C631.956177,647.705444 630.119019,647.636230 628.285950,647.636230 
	C552.455017,647.637878 476.624054,647.641357 400.793121,647.623657 
	C397.808929,647.622986 394.781464,647.952393 391.437378,646.664917 
	C389.273254,644.525024 389.434692,642.147644 389.424103,639.865112 
	C389.390411,632.617615 389.306885,625.369507 389.486084,617.634399 
	C389.593048,609.414673 388.779114,601.661804 390.269653,593.540771 
	C392.339325,591.263184 394.748810,591.532837 397.032837,591.498047 
	C403.159241,591.404785 409.287964,591.421021 415.414062,591.476074 
	C418.943512,591.507812 420.610260,590.087952 420.472260,586.465149 
	C420.289703,581.672791 420.785187,576.860352 419.977295,571.627319 
	C419.782867,570.555542 419.695740,569.934814 419.557617,568.833862 
	C419.262054,545.154663 419.425507,521.952515 419.408020,498.750580 
	C419.406769,497.092255 419.471466,495.431732 420.346680,493.425903 
	C422.975830,490.964478 425.881897,491.447571 428.629364,491.447601 
	C433.398224,491.447632 438.178223,491.128632 443.417053,491.860168 
	C444.193848,492.147736 444.490387,492.298187 445.143005,492.796875 
	C447.035278,495.935242 446.596497,498.992249 446.599182,501.958679 
	C446.631226,537.101562 446.617889,572.244446 446.622009,607.387329 
	C446.622223,609.218445 446.615845,611.048401 446.742126,612.879761 
	C446.894592,615.090271 448.040161,616.166870 450.223602,616.287781 
	C451.888702,616.380005 453.552979,616.378906 455.218048,616.378967 
	C502.352844,616.381042 549.487671,616.381042 596.622437,616.379944 
	C597.954773,616.379883 599.290649,616.306335 600.618652,616.356628 
	C604.005005,616.484802 605.397339,614.874268 605.377258,611.535889 
	C605.342224,605.707397 605.366455,599.877502 605.379822,594.048218 
	C605.434021,570.398438 605.276489,546.748413 605.483521,522.615784 
	C605.306763,503.192444 605.359802,484.251343 605.441101,465.310974 
	C605.469360,458.724579 606.734802,457.574799 613.419128,457.429138 
	C619.399841,457.298798 625.384033,457.362610 631.365417,457.390137 
	C634.947205,457.406616 636.334534,455.851532 636.425598,452.289429 
	C636.616028,444.834991 635.665710,437.343018 637.297607,429.505280 
	C639.411316,427.261688 641.828613,427.501007 644.130859,427.471558 
	C650.962830,427.384125 657.797363,427.540192 664.628235,427.400269 
	C669.689392,427.296570 670.287842,426.663086 670.406921,421.505737 
	C670.537720,415.841553 670.336975,410.172119 670.486694,404.508331 
	C670.643860,398.561890 671.325745,398.173798 677.095703,397.953186 
	C686.390564,397.597839 695.720520,398.012604 705.450623,396.829987 
	C713.379883,397.938690 720.882263,397.218964 728.361328,397.430908 
	C731.013733,397.506073 733.698181,397.208130 736.709717,398.331848 
	C739.174133,400.369659 739.483521,402.827667 739.499756,405.309723 
	C739.549133,412.852875 739.812561,420.399261 739.252075,428.415283 
	C738.028320,436.093475 738.799744,443.349213 738.572266,450.576752 
	C738.489868,453.196259 738.816895,455.856476 737.549561,458.786377 
	C735.289795,460.749268 732.903076,460.527954 730.599487,460.553894 
	C724.785156,460.619385 718.969666,460.543884 713.155029,460.586731 
	C706.927063,460.632599 706.634949,460.912994 706.587952,466.990692 
	C706.541748,472.971436 706.601440,478.952820 706.563538,484.933685 
	C706.549927,487.082367 706.720703,489.269897 705.481384,491.697327 
	C703.283691,493.788208 700.877380,493.524323 698.575317,493.550751 
	C692.414429,493.621521 686.252502,493.546326 680.091248,493.584656 
	C672.926636,493.629211 672.637268,493.942535 672.580444,501.298401 
	C672.561157,503.796143 672.617126,506.294891 672.555908,508.791840 
	C672.392090,515.477722 671.403870,516.465576 664.540588,516.554626 
	C658.046814,516.638916 651.547729,516.706421 645.058716,516.533875 
	C640.926880,516.423950 639.505188,518.150269 639.536865,522.163391 
	C639.644592,535.817383 639.598083,549.473206 639.564270,563.128296 
	C639.558533,565.447632 639.816467,567.799133 638.847656,570.493164 
z"/>
<path fill="#D2D3D1" opacity="1.000000" stroke="none" 
	d="
M636.792969,235.974091 
	C639.182373,234.631821 638.975708,232.765610 638.968933,230.916748 
	C638.926147,219.288605 638.918274,207.660309 638.926636,195.570755 
	C639.591614,194.428986 640.372375,194.207443 641.667236,194.555435 
	C642.488159,194.792953 642.919067,194.857285 643.665039,194.820892 
	C644.152954,194.688858 644.325989,194.657547 644.758789,194.672302 
	C653.053589,194.788361 661.088623,194.858337 669.587708,194.838318 
	C672.963623,195.539536 672.492798,197.899979 672.481262,200.026871 
	C672.385620,217.663116 672.283264,235.298920 672.107056,252.934952 
	C671.741211,289.557831 672.003235,326.186890 671.991455,362.813385 
	C671.989197,369.786682 671.330383,370.467957 664.288391,370.579651 
	C658.295959,370.674713 652.301392,370.557861 646.308472,370.620667 
	C640.063477,370.686127 639.681213,371.102478 639.614868,377.583221 
	C639.563721,382.577301 639.728699,387.574982 639.546204,392.565582 
	C639.344421,398.082581 638.147705,399.324951 632.692505,399.531616 
	C626.537415,399.764771 620.372742,399.658386 614.214966,399.596649 
	C610.197449,399.556396 608.609375,401.252014 608.570618,405.269958 
	C608.500122,412.583496 609.120544,419.916382 607.987122,427.675903 
	C606.112305,430.861664 603.299438,430.534119 600.722229,430.568634 
	C591.499268,430.692108 582.275208,430.634888 572.563110,430.448914 
	C549.700684,430.784821 527.326904,430.542572 504.476532,430.558533 
	C503.372681,430.471985 502.744568,430.435028 501.650330,430.424744 
	C499.956055,430.474884 498.726410,430.530945 497.038513,430.425049 
	C491.682251,430.591827 486.783630,430.540802 481.419769,430.473389 
	C477.496460,430.591919 474.038330,430.611908 470.098358,430.471436 
	C445.166321,430.790314 420.715363,430.570831 396.264801,430.585876 
	C394.764618,430.586823 393.270355,430.470093 391.421234,429.655243 
	C389.994659,428.421570 389.594818,427.141052 389.584534,425.825470 
	C389.515320,416.983002 388.825470,408.129059 390.209534,398.861145 
	C390.676605,398.193054 390.920685,397.969055 391.652863,397.837952 
	C401.549561,397.917114 410.958160,397.903412 420.855042,397.846436 
	C423.987793,395.787476 427.094025,396.428864 430.028168,396.426056 
	C475.658905,396.382477 521.289734,396.440216 566.920349,396.371521 
	C582.172302,396.348541 580.233826,398.146332 580.387512,382.670990 
	C580.448669,376.509705 580.315674,370.346375 580.429443,364.186005 
	C580.558838,357.181549 582.091309,355.646027 588.954468,355.430023 
	C591.950439,355.335754 594.949402,355.405579 597.947021,355.395111 
	C606.341125,355.365845 606.379211,355.338745 606.393005,347.171326 
	C606.409424,337.512299 606.351685,327.852936 606.414062,318.194183 
	C606.463684,310.514008 607.455750,309.526001 615.013794,309.414459 
	C619.676147,309.345642 624.340271,309.449432 629.002502,309.378632 
	C634.840515,309.290039 635.331360,308.860352 635.370605,303.142273 
	C635.448364,291.818298 635.657654,280.485535 635.317444,269.171509 
	C635.006958,258.844910 637.306335,248.595917 635.949280,238.264465 
	C635.863892,237.614563 636.207214,236.969254 636.792969,235.974091 
z"/>
<path fill="#FC7357" opacity="1.000000" stroke="none" 
	d="
M329.181458,311.457642 
	C329.771576,328.695465 330.163055,345.673035 330.014160,362.645844 
	C329.972260,367.422150 331.486053,368.477570 335.909180,368.346375 
	C343.554199,368.119568 351.218994,368.657440 358.873566,368.604187 
	C361.953552,368.582794 362.947540,369.644257 362.848053,372.659668 
	C362.666901,378.149628 362.808807,383.650238 362.876312,389.617554 
	C364.827576,392.227753 364.477692,394.747375 364.017975,397.716980 
	C363.725464,398.446686 363.570007,398.721771 363.055664,399.304688 
	C358.696289,401.249176 354.499512,400.380371 350.389648,400.530670 
	C346.744446,400.663971 343.090454,400.536102 339.440613,400.564636 
	C332.952332,400.615326 333.343475,400.683319 332.400970,407.195068 
	C330.310791,421.636597 333.570496,436.004242 332.570984,450.408356 
	C332.388245,453.041687 332.807495,455.731689 331.477661,458.655884 
	C329.261444,460.712952 326.863373,460.503998 324.555603,460.529510 
	C318.061890,460.601257 311.566620,460.489716 305.073273,460.578186 
	C299.132568,460.659119 298.673859,461.180878 298.561340,467.266296 
	C298.416748,475.088593 298.832275,482.916748 298.212555,491.192078 
	C297.990326,491.939087 297.873749,492.229309 297.480835,492.898834 
	C292.443573,495.550171 287.371643,494.412079 282.455383,494.420380 
	C277.343231,494.429016 272.176605,494.612488 266.773895,493.257721 
	C266.362213,483.119354 266.220093,473.307526 266.206177,463.495483 
	C266.156128,428.204437 266.203979,392.913055 266.047577,357.622559 
	C266.030640,353.802460 266.886078,352.160004 270.981598,352.568390 
	C274.609314,352.930176 278.298584,352.674530 282.414124,352.777069 
	C283.344757,352.605530 283.852936,352.505798 284.756470,352.717163 
	C285.616089,352.812744 286.110321,352.712921 286.606476,352.701813 
	C297.227417,352.463196 297.227448,352.465118 297.094940,341.464752 
	C295.322632,332.286774 295.822845,323.513733 296.473541,314.747559 
	C296.621338,312.756317 296.895355,310.830963 299.863861,310.929047 
	C309.497467,311.247406 319.142578,310.725372 329.181458,311.457642 
z"/>
<path fill="#241E7B" opacity="1.000000" stroke="none" 
	d="
M390.609863,645.754517 
	C409.787109,646.302551 428.580048,646.202637 447.383209,645.874939 
	C471.691833,645.451233 496.013031,645.746521 520.328796,645.736633 
	C559.465088,645.720764 598.601318,645.708557 638.173889,645.625122 
	C639.418396,655.849854 638.914490,666.155762 638.768616,676.942139 
	C636.584717,678.838074 634.207581,678.474548 631.917664,678.536499 
	C623.979126,678.751343 616.027283,678.150085 607.643921,678.997925 
	C592.201477,678.595520 577.221130,680.243164 561.790222,679.200195 
	C557.064026,678.136719 552.705261,678.510864 547.928589,678.493042 
	C546.573547,678.499084 545.719299,678.797241 544.393433,679.125610 
	C525.240479,680.001892 506.538513,679.497192 487.348450,679.500793 
	C456.648102,679.825012 426.437408,679.548462 396.227234,679.632202 
	C387.595337,679.656189 378.963196,679.661621 370.331390,679.618591 
	C368.026184,679.607117 365.655396,679.840332 363.132507,678.248352 
	C361.194977,667.927185 362.376953,657.819824 362.094116,647.264038 
	C365.163391,644.745605 368.702881,644.526550 372.106598,644.571716 
	C378.149658,644.651917 384.282898,643.415161 390.609863,645.754517 
z"/>
<path fill="#FDFDFE" opacity="1.000000" stroke="none" 
	d="
M239.720703,592.383911 
	C239.701126,586.085205 240.040619,580.257690 239.841339,574.448669 
	C239.740173,571.499695 240.595154,570.756226 243.406891,570.816162 
	C249.900955,570.954834 256.405029,570.642151 262.898163,570.798401 
	C265.761475,570.867249 266.609406,569.935059 266.574585,567.123474 
	C266.463043,558.128357 266.596649,549.130249 266.721680,539.686646 
	C268.533539,537.101562 271.003754,537.512024 273.270050,537.469055 
	C279.257965,537.355530 285.251160,537.331177 291.236847,537.459656 
	C295.121185,537.543152 296.451782,535.862183 296.488647,532.094788 
	C296.542145,526.632996 295.732056,521.115540 297.396606,515.308289 
	C300.082001,512.980408 302.992340,513.517334 305.758148,513.470703 
	C311.219116,513.378723 316.684692,513.355835 322.143951,513.467529 
	C325.890839,513.544250 327.478851,512.070312 327.495483,508.223328 
	C327.517578,503.116821 326.832886,497.959930 328.334045,492.483307 
	C328.992554,491.598114 329.506561,491.244904 330.553406,490.881073 
	C338.441528,490.074860 345.893616,490.568115 353.337372,490.454926 
	C360.352448,490.348267 360.285828,490.339508 360.474548,483.134369 
	C360.677734,475.377045 359.684357,467.583405 361.364044,459.440430 
	C361.841553,458.803192 362.085266,458.587921 362.773010,458.162079 
	C371.313477,456.815918 379.440979,457.436981 387.555786,457.574585 
	C390.764282,457.628998 392.256470,459.602478 392.480255,462.701477 
	C392.636017,464.857666 392.577393,467.014496 392.623260,469.170898 
	C393.053650,489.402222 391.669922,509.658752 393.536011,529.874512 
	C393.822693,532.980530 393.972229,536.186279 392.617554,539.669922 
	C390.695312,541.535156 388.684235,541.509155 386.684753,541.320190 
	C370.581787,539.798462 354.442505,540.896973 338.322174,540.659790 
	C333.236450,540.585022 332.680908,541.258728 332.639893,546.515869 
	C332.537354,559.654846 332.668030,572.795105 332.579041,585.934204 
	C332.527618,593.530884 331.494781,594.552429 323.865051,594.580750 
	C315.217682,594.612915 306.569153,594.719788 297.433136,594.505371 
	C279.750366,594.776917 262.555542,594.601562 245.361191,594.568054 
	C243.393066,594.564209 241.349045,594.531067 239.720703,592.383911 
z"/>
<path fill="#41CEFC" opacity="1.000000" stroke="none" 
	d="
M198.751312,710.414429 
	C198.296890,693.956726 198.181976,677.813904 198.144730,661.670959 
	C198.111298,647.184326 198.163269,632.697510 198.214569,617.763672 
	C199.485535,615.606079 201.361465,615.462463 203.189911,615.460266 
	C233.503662,615.424194 263.817810,615.178223 294.130920,615.580933 
	C294.459595,615.585327 294.786865,615.691589 295.591492,615.898560 
	C296.357910,616.209961 296.647522,616.373535 297.266327,616.911377 
	C299.248352,626.346008 299.029968,635.416504 297.460052,644.895386 
	C293.461426,647.455078 289.378784,646.398804 285.450775,646.577637 
	C281.965759,646.736206 278.467133,646.552063 274.976471,646.630981 
	C269.357361,646.758057 268.692535,647.330139 268.651886,653.025024 
	C268.540314,668.655396 268.625183,684.286621 268.608398,699.917542 
	C268.596130,711.360168 268.354828,711.603516 256.872040,711.607727 
	C240.077103,711.614014 223.282150,711.622986 206.487244,711.595947 
	C204.008759,711.591980 201.480499,711.846008 198.751312,710.414429 
z"/>
<path fill="#40CDFC" opacity="1.000000" stroke="none" 
	d="
M706.320679,346.219238 
	C706.234863,335.622833 706.377136,325.326782 706.253784,315.033936 
	C706.218018,312.045074 707.009338,310.948517 710.141418,311.028351 
	C717.941284,311.227081 725.757263,310.888184 733.551575,311.175873 
	C737.422852,311.318756 738.367188,309.928680 738.216797,306.307922 
	C737.948303,299.842468 738.326111,293.350189 738.057800,286.884705 
	C737.907471,283.262299 738.849915,281.904541 742.721375,282.051575 
	C750.846985,282.360168 758.991699,282.169128 767.587280,282.296844 
	C770.505188,284.038300 770.479065,286.622681 770.541504,289.116638 
	C770.670898,294.281525 770.485779,299.450897 770.626648,304.614838 
	C770.763000,309.608673 771.422852,310.158081 776.185974,309.817535 
	C788.749512,308.919281 789.585693,309.693146 789.587646,322.340118 
	C789.591248,345.005981 789.617188,367.671906 789.573730,390.337708 
	C789.557739,398.683929 788.685425,399.536499 780.456360,399.575287 
	C776.291138,399.594940 772.124268,399.690277 767.476562,399.500793 
	C757.598083,399.360870 748.179321,400.348175 738.397400,398.654724 
	C736.254456,396.485870 736.496155,394.082825 736.456665,391.782166 
	C736.368103,386.628326 736.370483,381.471497 736.438904,376.318512 
	C736.483704,372.943420 735.058777,371.515228 731.678284,371.556458 
	C725.693542,371.629486 719.705933,371.612701 713.720032,371.553253 
	C711.412842,371.530365 709.036621,371.801727 706.601807,370.147949 
	C706.265015,369.410553 706.250610,369.007538 706.217163,368.302551 
	C706.634277,367.222137 706.509766,366.384460 706.348450,365.260071 
	C706.261230,362.294098 706.281982,359.622375 706.267700,356.506958 
	C706.604309,355.235229 706.525269,354.369904 706.317261,353.204773 
	C706.206482,351.884216 706.222656,350.863342 706.212341,349.460327 
	C706.627441,348.262024 706.515625,347.389191 706.320679,346.219238 
z"/>
<path fill="#FEFEFE" opacity="1.000000" stroke="none" 
	d="
M362.672974,678.444519 
	C387.022064,677.905212 411.329834,677.814209 435.637665,677.770752 
	C452.456604,677.740662 469.275635,677.776123 486.558716,677.864380 
	C488.434387,679.580200 488.533600,681.578613 488.547974,683.582397 
	C488.595642,690.221130 488.679199,696.861938 488.522400,703.498169 
	C488.386993,709.226624 487.241943,710.273926 481.321869,710.535950 
	C479.000610,710.638672 476.677887,710.696350 473.933899,710.922363 
	C472.849640,710.936707 472.202209,710.838013 471.550995,710.774048 
	C465.274658,710.157410 464.504395,710.855408 464.363495,717.654541 
	C464.427246,718.857239 464.413727,719.666870 464.389069,720.899658 
	C464.445007,722.773926 464.426544,724.225342 464.426910,726.132080 
	C464.414093,730.343689 465.130371,734.161499 463.194397,738.149353 
	C460.906342,739.711609 458.708618,739.609070 456.554108,739.611450 
	C427.746918,739.643738 398.939758,739.639038 370.132568,739.614014 
	C367.979126,739.612122 365.780548,739.745483 363.418335,738.264160 
	C362.895569,718.274048 362.763641,698.593567 362.672974,678.444519 
z"/>
<path fill="#D3D2D3" opacity="1.000000" stroke="none" 
	d="
M296.449066,593.592285 
	C306.043335,593.141235 315.357544,592.812561 324.648254,593.143494 
	C329.520142,593.316956 331.263092,592.231934 331.113159,586.926819 
	C330.704865,572.477600 331.067566,558.008118 330.917450,543.548828 
	C330.881897,540.122192 331.875610,538.935486 335.414673,538.975098 
	C350.704834,539.145996 365.997925,539.064880 381.289948,539.049561 
	C384.445251,539.046448 387.459656,540.476013 391.072571,539.936951 
	C393.906311,541.238953 393.443817,543.615540 393.496704,545.668213 
	C393.650665,551.648499 393.533173,557.633240 393.562531,563.616211 
	C393.573242,565.799744 393.886688,567.919922 394.847961,570.411804 
	C395.170471,573.266296 395.220581,575.567139 391.418427,575.488037 
	C389.184631,572.253357 386.467743,571.320251 382.994263,571.486511 
	C378.672882,571.693298 374.330688,571.635193 370.003784,571.510437 
	C366.295532,571.403503 364.492828,572.775757 364.517303,576.698975 
	C364.587952,588.026245 364.570618,599.354797 364.523499,610.682434 
	C364.509369,614.080017 365.982452,615.494934 369.324768,615.465759 
	C374.154694,615.423462 378.986816,615.426270 383.817413,615.480469 
	C385.969086,615.504639 388.165863,615.279480 390.548401,616.562988 
	C390.940399,626.253479 390.979462,635.678894 391.002991,645.576233 
	C381.648163,646.237183 372.308868,646.426270 362.549805,646.699219 
	C352.036865,646.633179 341.943756,646.483398 331.376526,646.349243 
	C330.603485,646.392517 330.304596,646.420227 329.571777,646.320679 
	C328.653442,645.811584 328.290009,645.336914 327.907684,644.336914 
	C327.110748,637.282532 327.444702,630.640564 327.511719,624.014221 
	C327.553345,619.904358 325.892365,618.400085 321.891815,618.506836 
	C315.924347,618.666077 309.948029,618.578857 303.975891,618.527588 
	C301.836700,618.509277 299.637085,618.727844 297.331177,617.220581 
	C296.975189,616.943787 296.982452,617.013733 297.017578,617.013489 
	C295.075470,614.780334 295.363983,612.018799 295.451935,609.393250 
	C295.623993,604.256958 294.715851,599.065369 296.449066,593.592285 
z"/>
<path fill="#D3D2D3" opacity="1.000000" stroke="none" 
	d="
M471.708435,710.109619 
	C475.555756,708.787292 479.234161,708.900391 482.863037,709.117737 
	C486.162506,709.315369 487.185303,708.051575 487.117706,704.815063 
	C486.937286,696.176880 487.051361,687.532593 487.035583,678.418579 
	C506.114349,677.876343 525.205933,677.806274 544.709106,677.999512 
	C545.519165,678.163818 545.923218,678.104919 546.639771,678.119751 
	C551.331177,676.651001 555.847961,677.722778 560.671753,677.625977 
	C562.728210,679.931885 562.541321,682.477783 562.557373,684.965698 
	C562.592834,690.460632 562.509033,695.956543 562.589294,701.450745 
	C562.668335,706.861694 563.148682,707.285522 568.697937,707.422607 
	C571.858459,707.500671 575.029297,707.261780 578.178406,707.674988 
	C580.956177,708.039429 583.339661,709.466614 583.023376,712.377686 
	C582.123779,720.659058 583.408081,729.024353 581.620117,737.660339 
	C575.487000,740.874878 569.282837,739.170837 562.800415,739.238892 
	C558.419373,737.806091 558.927368,734.752625 559.726318,731.746704 
	C560.476562,728.924377 561.506226,726.171326 559.942810,723.235474 
	C561.498901,727.901489 560.019348,731.688049 556.732117,734.950562 
	C555.771912,735.903503 554.718872,736.926208 553.262817,736.124939 
	C551.898560,735.374268 551.925110,733.932800 552.031433,732.577271 
	C552.124634,731.389404 552.702209,730.357178 553.183899,729.296814 
	C554.256531,726.935364 553.393738,725.184021 551.048035,724.696228 
	C545.644104,723.572327 541.516418,720.084839 536.647827,717.263428 
	C535.750427,709.284912 535.749268,709.201660 527.716919,709.312744 
	C523.273804,709.374207 517.528931,707.433105 514.741150,710.135132 
	C511.929535,712.860291 514.019043,718.635071 513.848511,723.068115 
	C513.701660,726.883301 513.624084,730.721863 513.880493,734.525452 
	C514.094360,737.698059 512.841431,738.488586 509.879578,738.397888 
	C503.738800,738.209717 497.584259,738.474121 491.443298,738.288757 
	C488.606873,738.203247 487.687805,739.101562 487.763458,741.953796 
	C487.948425,748.926331 487.712158,755.909973 487.898499,762.882385 
	C487.978119,765.861572 487.149384,766.992493 484.001801,766.913696 
	C477.366516,766.747559 470.721619,766.965881 463.633881,767.132629 
	C462.953735,767.044434 462.720337,766.850098 462.265625,766.258789 
	C461.028076,760.003601 461.505371,754.118652 461.809418,747.852173 
	C462.098236,746.871460 462.250732,746.111877 462.818573,745.875671 
	C465.034912,744.953918 463.922455,744.475647 462.427429,743.652588 
	C461.664581,741.778442 461.646942,740.248047 462.710571,738.445129 
	C463.006531,734.390503 463.052185,730.650330 463.145233,726.449219 
	C464.487640,724.591553 464.927979,723.119934 463.381226,721.251221 
	C463.153046,720.254089 463.130493,719.497925 463.153442,718.365417 
	C465.428894,714.874084 468.583862,712.741150 471.708435,710.109619 
z"/>
<path fill="#02D7FD" opacity="1.000000" stroke="none" 
	d="
M486.890869,883.627075 
	C495.103424,883.889099 502.928802,884.070496 510.737274,883.786499 
	C514.204529,883.660339 514.957458,884.927795 514.896118,888.065857 
	C514.730225,896.553589 514.695374,905.049988 514.901855,913.535828 
	C514.979736,916.738708 513.809998,917.387817 510.858856,917.381104 
	C472.400116,917.293579 433.940979,917.275452 395.482452,917.397339 
	C391.891327,917.408691 391.001526,916.232300 391.077637,912.843140 
	C391.268158,904.357239 390.932037,895.858643 391.162659,887.374817 
	C391.255371,883.962585 390.083252,883.150757 386.904633,883.247925 
	C380.084961,883.456543 373.250122,883.167847 366.430359,883.374817 
	C363.204193,883.472595 362.039703,882.512878 362.110413,879.168762 
	C362.346130,868.018677 362.307617,856.862915 362.535645,845.254150 
	C363.732361,843.846313 365.035065,843.520203 366.354187,843.546753 
	C374.389160,843.707947 382.463409,842.567749 390.857361,844.509888 
	C392.358582,846.173157 392.557983,847.845276 392.522339,849.504822 
	C392.340088,857.985901 393.041016,866.424133 393.551971,874.876831 
	C393.920624,880.975525 394.060577,881.373230 400.163818,881.385620 
	C425.585022,881.437195 451.006378,881.382263 476.427582,881.429260 
	C479.880432,881.435669 483.463074,881.039978 486.890869,883.627075 
z"/>
<path fill="#02D7FD" opacity="1.000000" stroke="none" 
	d="
M328.343048,644.724854 
	C328.876282,645.278015 329.051056,645.500305 329.336700,645.905151 
	C329.724701,646.147827 329.988312,646.218628 330.079712,646.660828 
	C329.876648,656.020752 329.729492,665.011169 329.877441,673.996765 
	C329.929962,677.186340 329.201813,678.270874 325.714325,678.117737 
	C317.575592,677.760315 309.408234,678.105774 301.260040,677.885986 
	C298.234528,677.804443 297.181519,678.621948 297.256317,681.742188 
	C297.447754,689.730347 297.199677,697.728882 297.382996,705.717468 
	C297.452057,708.726990 296.625336,709.828430 293.477631,709.746460 
	C286.156433,709.555725 278.823425,709.835632 271.500641,709.676147 
	C268.653809,709.614197 267.783234,710.516785 267.857788,713.350098 
	C268.046082,720.505371 267.805054,727.672119 268.003967,734.826843 
	C268.082428,737.650269 267.264587,738.508301 264.406769,738.491577 
	C243.593277,738.369812 222.778564,738.348816 201.965103,738.459229 
	C198.855240,738.475708 197.996063,737.508545 198.076691,734.466858 
	C198.284012,726.646301 198.152893,718.816711 198.267517,710.545166 
	C219.514496,710.071594 240.651978,709.929077 261.786652,710.111633 
	C266.027039,710.148254 267.086761,708.806274 267.045441,704.739197 
	C266.866211,687.099365 267.001892,669.456299 267.024170,651.814453 
	C267.032745,645.045227 267.034119,645.052612 274.013947,645.022278 
	C281.502319,644.989746 288.990662,644.941467 296.971497,644.823608 
	C298.114105,644.196594 298.861816,643.748474 299.700989,643.735535 
	C309.141022,643.590027 318.605347,642.471802 328.343048,644.724854 
z"/>
<path fill="#FEFEFE" opacity="1.000000" stroke="none" 
	d="
M671.484375,765.980713 
	C671.789673,775.576416 671.786499,784.790588 671.677368,794.456543 
	C669.752380,796.872131 667.311768,796.535522 665.030029,796.570923 
	C659.043518,796.663818 653.055176,796.581970 647.067688,796.609985 
	C639.838196,796.643799 639.661194,796.837646 639.607178,804.269287 
	C639.599915,805.267151 639.606567,806.265137 639.604126,807.263062 
	C639.577271,818.181580 639.188110,818.581360 628.504089,818.603210 
	C624.346069,818.611694 620.188049,818.605103 616.030029,818.604858 
	C600.395813,818.603821 584.761597,818.621094 569.127380,818.588928 
	C566.653931,818.583862 564.113464,818.878540 561.424194,817.288940 
	C560.969666,800.966492 560.894958,784.944519 560.901978,768.459839 
	C561.361206,767.500488 561.546387,766.939331 561.820862,765.939087 
	C562.364807,765.400024 562.635559,765.238281 563.358704,764.920288 
	C564.785706,764.528687 565.780518,764.442932 566.776794,764.439758 
	C599.824890,764.334106 632.873047,764.380737 665.921204,764.419739 
	C667.744690,764.421936 669.594299,764.451721 671.484375,765.980713 
z"/>
<path fill="#02D7FD" opacity="1.000000" stroke="none" 
	d="
M705.255981,883.840149 
	C705.661926,894.167114 705.610657,904.155884 705.901611,914.134705 
	C706.010071,917.855835 703.869751,917.560974 701.453735,917.556396 
	C684.299622,917.523926 667.145081,917.582458 649.991577,917.473083 
	C646.040161,917.447876 640.910461,919.289062 638.442444,916.681335 
	C636.022278,914.124084 637.819214,909.041809 637.723694,905.071655 
	C637.587585,899.411804 637.428101,893.737488 637.690552,888.088501 
	C637.857727,884.491333 636.554993,883.686218 633.149597,883.708130 
	C610.666809,883.852966 588.181519,883.672363 565.699890,883.889282 
	C561.474854,883.929993 560.415100,882.709229 560.532410,878.604675 
	C560.846191,867.621277 560.682434,856.624207 560.831055,845.235901 
	C562.167725,843.864258 563.596558,843.491150 565.108582,843.476624 
	C577.641907,843.355957 590.175415,843.247070 602.708069,843.534790 
	C603.536255,843.553772 604.334839,843.788147 605.537598,844.309326 
	C608.705139,848.455811 607.380859,852.913330 607.521362,857.130127 
	C607.759827,864.289124 607.690369,864.372742 614.769104,864.422241 
	C620.751099,864.464050 626.739136,864.229919 632.713562,864.534485 
	C637.667908,864.787048 639.123657,866.371216 639.508057,871.277527 
	C639.546997,871.774414 639.544922,872.273743 639.560059,872.772095 
	C639.852844,882.406616 639.853088,882.414978 649.778076,882.420715 
	C665.731323,882.429932 681.684692,882.405151 697.637817,882.440613 
	C700.105957,882.446106 702.650391,882.133911 705.255981,883.840149 
z"/>
<path fill="#02D7FD" opacity="1.000000" stroke="none" 
	d="
M766.636597,398.523682 
	C772.775757,398.100677 778.605713,397.960358 784.433350,398.026855 
	C786.971130,398.055786 787.988098,397.196014 787.983215,394.566986 
	C787.934082,368.080444 787.947388,341.593689 788.008606,315.107178 
	C788.015625,312.064392 786.677185,310.860718 783.763245,311.046234 
	C780.957581,311.224884 778.175476,310.959961 775.339355,311.639313 
	C770.309387,312.844177 769.216919,311.672333 768.990051,306.536102 
	C768.646301,298.754028 770.038818,290.909576 768.103821,282.797668 
	C776.853027,282.319611 785.661743,282.301880 794.466064,282.093750 
	C797.142151,282.030487 797.902100,283.068054 797.863037,285.601746 
	C797.750305,292.919189 797.956665,300.242676 797.776306,307.557373 
	C797.705566,310.426880 798.640381,311.276093 801.448120,311.179901 
	C806.764221,310.997742 812.094360,311.256897 817.414368,311.139038 
	C819.928162,311.083344 820.940002,311.823456 820.944458,314.509491 
	C820.989502,341.453827 821.118042,368.398163 821.306335,395.341888 
	C821.323181,397.756256 820.550598,398.485260 818.154663,398.414490 
	C812.503662,398.247589 806.838989,398.503723 801.191162,398.289124 
	C798.145142,398.173370 797.146240,399.127930 797.225891,402.223663 
	C797.426941,410.036804 797.187439,417.860779 797.350342,425.675690 
	C797.408813,428.482269 796.557739,429.411407 793.703735,429.356964 
	C785.389587,429.198425 777.070129,429.315887 768.272339,429.355713 
	C767.478271,429.307281 767.164551,429.228333 766.553223,428.765991 
	C765.010864,418.548767 764.806152,408.717468 766.636597,398.523682 
z"/>
<path fill="#FEFEFE" opacity="1.000000" stroke="none" 
	d="
M581.304932,737.957642 
	C581.421204,729.430664 580.257202,721.296082 581.838745,713.225647 
	C582.409363,710.313599 580.946106,708.940002 577.914917,709.019592 
	C573.769653,709.128357 569.608948,708.863159 565.474304,709.099121 
	C562.061646,709.293884 560.784912,708.195801 560.879944,704.634766 
	C561.110107,696.012390 560.975647,687.380310 561.017456,678.270020 
	C576.090698,677.715881 591.134705,677.643921 606.579468,677.665283 
	C608.736816,679.466431 608.502441,681.713623 608.545288,683.841736 
	C608.635681,688.327881 608.561096,692.816223 608.579895,697.303528 
	C608.625977,708.335815 607.809021,707.360840 618.945129,707.418945 
	C623.432434,707.442322 627.920105,707.392578 632.407227,707.440063 
	C634.392761,707.461060 636.416016,707.352905 638.590515,708.731628 
	C648.709839,709.093567 658.464050,709.295410 668.214050,709.169006 
	C671.442627,709.127136 672.512268,709.997070 672.415649,713.332642 
	C672.186096,721.263062 672.366577,729.205444 672.318420,737.613281 
	C670.337646,739.842468 667.927612,739.608032 665.631409,739.611877 
	C639.694153,739.655212 613.756897,739.655151 587.819641,739.616699 
	C585.669006,739.613525 583.469543,739.706299 581.304932,737.957642 
z"/>
<path fill="#D0D1D1" opacity="1.000000" stroke="none" 
	d="
M606.380188,845.336792 
	C591.285950,844.958435 576.591797,844.875977 561.425659,844.816406 
	C560.901367,835.859131 560.848999,826.879089 560.920471,817.443726 
	C584.672485,817.007324 608.303101,816.847656 631.926819,817.182190 
	C637.211426,817.257019 638.631409,815.604248 638.134277,810.699951 
	C637.750183,806.911682 638.223267,803.043945 638.005310,799.229248 
	C637.820923,796.002380 638.919373,794.846558 642.238892,794.905945 
	C651.719421,795.075500 661.205383,794.940308 671.130310,794.916626 
	C671.657288,811.268982 671.743164,827.629700 671.774902,844.450439 
	C670.225342,846.597412 668.168762,846.563721 666.204224,846.572998 
	C648.000610,846.658447 629.796753,846.641724 611.593018,846.588257 
	C609.937439,846.583374 608.274414,846.503906 606.380188,845.336792 
z"/>
<path fill="#41CFFE" opacity="1.000000" stroke="none" 
	d="
M487.315796,883.435791 
	C467.396912,882.001770 447.460358,883.417297 427.549377,883.049438 
	C417.080078,882.855957 406.603607,882.954163 396.131775,883.061035 
	C393.325226,883.089600 391.882233,882.509338 391.903503,879.248962 
	C391.976013,868.141968 390.453125,857.070923 391.010498,845.476196 
	C392.860321,843.157593 395.273346,843.420715 397.553284,843.416443 
	C412.285950,843.388977 427.018799,843.320374 442.237610,843.476196 
	C449.152313,843.725952 455.640228,842.556091 462.354797,844.675720 
	C469.587433,846.562134 476.556458,845.487366 483.477966,845.601074 
	C486.572937,845.651855 487.411926,846.558044 487.371002,849.581238 
	C487.220276,860.710449 487.333038,871.843140 487.315796,883.435791 
z"/>
<path fill="#FEFEFE" opacity="1.000000" stroke="none" 
	d="
M462.673157,765.946289 
	C462.988159,766.472900 462.955566,766.639038 463.055023,767.021973 
	C463.229675,775.485046 463.189697,783.733032 463.364594,791.976501 
	C463.417725,794.481018 462.810364,795.520081 460.105713,795.388123 
	C455.826477,795.179260 451.529480,795.334167 446.798279,795.267761 
	C443.987213,796.779175 441.290253,796.596069 438.641449,796.600647 
	C426.185486,796.622131 413.729462,796.594299 401.273529,796.615417 
	C393.705902,796.628235 393.653809,796.710327 393.607178,804.497986 
	C393.589294,807.486023 393.722504,810.478271 393.424988,813.460205 
	C393.169403,816.021912 392.091766,818.168396 389.298981,818.256165 
	C380.713898,818.526001 372.094818,819.574402 363.140747,817.388123 
	C362.056305,800.420166 362.441315,783.692810 362.854858,766.524780 
	C364.681458,764.267334 366.934570,764.409424 369.070892,764.404419 
	C398.231567,764.336609 427.392334,764.354248 456.553070,764.389526 
	C458.543579,764.391907 460.577850,764.339294 462.673157,765.946289 
z"/>
<path fill="#D1D2D3" opacity="1.000000" stroke="none" 
	d="
M639.088867,570.660156 
	C637.426697,568.911255 638.123352,566.700195 638.111877,564.600952 
	C638.031860,549.954529 638.270447,535.302673 637.936462,520.663330 
	C637.827332,515.881348 639.422852,514.763000 643.858643,514.953735 
	C651.500854,515.282410 659.170349,514.922607 666.822327,515.105103 
	C670.058044,515.182251 671.283020,514.146301 671.129333,510.837891 
	C670.905579,506.021637 671.185913,501.183838 671.044312,496.361298 
	C670.948364,493.093170 672.348816,491.972809 675.521790,492.010712 
	C685.007446,492.124115 694.495422,492.043976 704.443726,491.998596 
	C705.157532,491.855530 705.410156,491.753296 705.986816,491.900330 
	C705.226929,493.811554 705.566650,495.684296 705.564148,497.489105 
	C705.547729,509.289886 705.376587,521.095093 705.661133,532.889099 
	C705.766052,537.236755 704.927246,539.036743 700.069092,538.762146 
	C692.116821,538.312500 684.114624,538.825073 676.144714,538.574036 
	C672.541260,538.460632 671.705627,539.712891 671.820923,543.114929 
	C672.079651,550.751892 671.737854,558.409119 671.996765,566.046082 
	C672.119019,569.649963 670.810059,570.469116 667.437256,570.399719 
	C658.135010,570.208252 648.825317,570.374023 639.088867,570.660156 
z"/>
<path fill="#D3D2D3" opacity="1.000000" stroke="none" 
	d="
M362.576904,817.587097 
	C371.042328,817.122742 379.365326,816.979126 387.682709,817.134644 
	C390.898376,817.194702 392.184509,816.219299 392.017059,812.889221 
	C391.791626,808.407227 392.161560,803.893738 391.902405,799.415405 
	C391.697601,795.876526 393.005524,794.866394 396.461029,794.900818 
	C412.768951,795.063660 429.079193,794.993347 445.872589,795.103271 
	C444.612946,802.144714 446.075256,809.210999 445.515381,816.677490 
	C443.829590,822.532654 444.715637,828.065918 444.466766,833.531067 
	C444.308899,836.997925 445.018158,840.533020 443.405853,844.244995 
	C426.057312,844.684814 408.994080,844.792542 391.464630,844.954285 
	C381.846039,844.936401 372.693695,844.864563 363.119202,844.795898 
	C362.608795,835.875061 362.520538,826.951111 362.576904,817.587097 
z"/>
<path fill="#3DCEFC" opacity="1.000000" stroke="none" 
	d="
M605.981934,845.506226 
	C627.594910,844.983887 649.209778,844.926941 671.272705,844.890137 
	C681.497498,845.824829 691.301819,845.336853 701.085266,845.248413 
	C705.153931,845.211670 706.061890,846.507446 705.971069,850.321533 
	C705.710022,861.286865 705.841919,872.261536 705.698303,883.707397 
	C685.446960,884.124390 665.316650,884.068604 645.186401,884.007507 
	C638.159546,883.986206 638.026062,883.808228 637.966370,876.644104 
	C637.865784,864.568237 639.438782,866.133057 627.335754,866.027588 
	C621.845337,865.979797 616.336243,865.752930 610.869202,866.114807 
	C606.701416,866.390686 605.725037,864.707886 605.918640,860.943420 
	C606.174683,855.964844 605.983032,850.963318 605.981934,845.506226 
z"/>
<path fill="#201226" opacity="1.000000" stroke="none" 
	d="
M608.219849,428.302551 
	C607.730164,419.330322 607.674133,410.676086 607.378601,402.030029 
	C607.277466,399.070129 608.460022,398.373108 611.175781,398.418793 
	C618.999878,398.550446 626.829834,398.351776 634.653137,398.504272 
	C637.456787,398.558929 638.429504,397.700745 638.363281,394.842682 
	C638.197327,387.686310 638.565125,380.511475 638.223267,373.367706 
	C638.035095,369.435638 639.431824,368.623260 643.033020,368.740234 
	C650.517883,368.983398 658.028931,368.523102 665.506042,368.862122 
	C669.925598,369.062469 671.364441,367.997253 671.348511,363.242279 
	C671.229675,327.774933 671.431641,292.306488 671.549805,256.838440 
	C671.612488,238.022446 671.731323,219.206589 671.751831,200.390564 
	C671.753723,198.679718 672.541626,196.660828 670.331909,195.040558 
	C674.172729,194.109222 672.916687,197.326035 672.927917,199.138138 
	C673.032288,215.963593 672.995667,232.789932 672.993042,249.616028 
	C672.987183,287.433075 672.959595,325.250122 673.002625,363.067108 
	C673.006104,366.111053 672.690979,369.018250 671.533264,371.836365 
	C669.708130,376.278992 669.284424,380.834229 670.660522,385.475800 
	C671.468140,388.199982 669.621948,390.601837 669.883667,393.321136 
	C670.105469,395.625183 670.403442,397.087952 673.212585,397.053711 
	C681.874268,396.948090 690.538086,396.999847 699.200989,397.020233 
	C701.992188,397.026794 703.753113,395.319855 705.732544,393.253723 
	C707.287537,394.389954 707.274658,395.895996 706.308411,397.851501 
	C695.886902,398.301514 685.774292,398.524261 675.666077,398.395203 
	C672.576660,398.355804 671.673340,399.202576 671.758179,402.268158 
	C671.955444,409.394379 671.585938,416.538757 671.868652,423.659027 
	C672.013184,427.298248 671.134583,428.481384 667.287720,428.398102 
	C657.856812,428.194000 648.414185,428.531006 638.585388,428.914825 
	C628.306885,429.490082 618.408386,430.385712 608.219849,428.302551 
z"/>
<path fill="#2C2584" opacity="1.000000" stroke="none" 
	d="
M580.588562,737.636719 
	C588.857910,737.613159 596.668030,737.729004 604.478638,737.785400 
	C626.751343,737.946350 649.024170,738.083191 671.776245,738.156616 
	C673.589417,747.259949 672.823730,756.420776 671.922607,765.971802 
	C635.538086,766.389954 599.283325,766.417786 562.577393,766.533325 
	C560.620422,766.266113 560.063049,765.116577 559.676758,763.284302 
	C559.630127,754.722839 558.528748,746.616943 560.623291,738.222473 
	C567.337402,737.817505 573.733459,737.783203 580.588562,737.636719 
z"/>
<path fill="#2D2883" opacity="1.000000" stroke="none" 
	d="
M462.943420,765.816895 
	C429.997070,766.267212 396.973389,766.227600 363.481171,766.135986 
	C360.820557,763.465637 362.919189,760.739014 362.863037,758.068481 
	C362.728760,751.678162 362.858398,745.282288 362.954498,738.421631 
	C396.035736,737.938354 429.043945,737.922180 462.506531,738.018311 
	C462.929688,739.811707 462.898529,741.492798 462.951843,743.586853 
	C463.395447,744.391663 463.534485,744.850220 463.244873,745.687744 
	C462.979553,752.442322 462.922791,758.884644 462.943420,765.816895 
z"/>
<path fill="#231C7A" opacity="1.000000" stroke="none" 
	d="
M296.287659,593.222229 
	C297.914612,600.804932 296.945435,608.458374 297.133636,616.549683 
	C268.748322,617.066284 240.443909,617.116150 212.139496,617.175781 
	C207.811005,617.184937 203.482620,617.239502 198.702881,617.294800 
	C198.163315,610.192444 198.213593,603.062683 197.927628,595.946472 
	C197.787308,592.454895 199.328613,591.868164 202.386002,591.896484 
	C214.489929,592.008545 226.595947,591.893066 239.142838,591.883484 
	C240.773743,594.061096 242.838730,593.153381 244.513763,593.161499 
	C261.621094,593.244202 278.728851,593.233215 296.287659,593.222229 
z"/>
<path fill="#F34845" opacity="1.000000" stroke="none" 
	d="
M298.231476,514.979614 
	C297.920990,521.499146 297.488373,527.635620 297.917755,533.711182 
	C298.259399,538.544983 296.388428,539.471375 292.062134,539.311279 
	C283.977539,539.012207 275.873291,539.245239 267.292480,539.248413 
	C265.456299,536.586670 266.158386,533.738892 266.143463,530.993530 
	C266.076263,518.611694 266.154388,506.229004 266.312836,493.388977 
	C276.368683,492.941132 286.291840,492.950958 296.694397,492.953674 
	C298.606750,494.564575 298.663513,496.594482 298.508484,498.518768 
	C298.076965,503.875641 299.647308,509.225891 298.231476,514.979614 
z"/>
<path fill="#D3D2D3" opacity="1.000000" stroke="none" 
	d="
M706.751465,492.240112 
	C706.077148,492.114563 705.843384,492.079468 705.257324,492.001099 
	C704.952271,482.466187 705.144104,472.971924 704.972046,463.484283 
	C704.907776,459.938934 706.099487,458.906982 709.551208,458.984344 
	C718.374023,459.181976 727.204407,459.036591 736.495117,458.973877 
	C737.131348,459.041840 737.304138,459.164398 737.565186,459.592163 
	C738.254150,469.537018 738.032654,479.181976 737.968445,488.830017 
	C737.948975,491.749390 736.916809,492.489594 734.175232,492.442169 
	C725.182861,492.286530 716.186768,492.350830 706.751465,492.240112 
z"/>
<path fill="#D0D1D1" opacity="1.000000" stroke="none" 
	d="
M638.939575,708.549988 
	C629.830322,709.022156 620.700562,708.896240 611.577759,709.093384 
	C608.155457,709.167297 606.903625,708.178406 606.994934,704.614136 
	C607.216003,695.990051 607.057434,687.356201 607.016052,678.242554 
	C617.242676,677.662842 627.505066,677.566956 638.213501,677.448853 
	C638.746887,687.644531 638.834351,697.862427 638.939575,708.549988 
z"/>
<path fill="#D1D2D3" opacity="1.000000" stroke="none" 
	d="
M738.064880,459.600525 
	C737.397461,459.768158 737.210693,459.572693 737.025879,459.115173 
	C737.068848,449.170410 737.179199,439.421509 737.541382,429.348755 
	C739.004883,428.083496 740.370911,427.523834 741.908508,427.486877 
	C749.188538,427.311920 756.469360,427.212219 763.747314,427.553192 
	C764.745483,427.599945 765.693726,427.932861 766.929260,428.830292 
	C767.333679,429.132812 767.548340,429.286957 767.670166,429.336609 
	C767.814392,438.162811 767.738586,446.941345 767.916687,455.714752 
	C767.973267,458.503601 767.154785,459.447876 764.309204,459.392334 
	C755.700928,459.224182 747.087585,459.314209 738.064880,459.600525 
z"/>
<path fill="#231A79" opacity="1.000000" stroke="none" 
	d="
M706.355347,398.413147 
	C706.022522,396.779816 706.047119,395.345581 706.045715,393.484253 
	C706.055237,385.623810 706.090820,378.190521 706.202942,370.285400 
	C715.222778,370.680908 724.188843,370.141510 733.139160,370.085968 
	C736.689697,370.063934 738.101685,370.719421 737.919617,374.663879 
	C737.567871,382.284058 737.813721,389.931854 737.756348,398.144318 
	C727.371460,398.684387 717.042175,398.648346 706.355347,398.413147 
z"/>
<path fill="#D2D3D1" opacity="1.000000" stroke="none" 
	d="
M560.790833,737.519409 
	C560.886841,745.926514 560.832336,754.001160 560.684509,762.534851 
	C558.776855,764.765015 556.448792,764.662476 554.530212,763.816467 
	C550.488708,762.034485 546.545776,762.115723 542.389832,763.119751 
	C540.476868,763.581909 538.417847,763.598938 536.245117,762.245728 
	C535.836182,760.609924 535.761108,759.222229 535.805725,757.432068 
	C536.428040,754.909546 538.005005,752.833008 536.054199,750.297485 
	C535.487671,748.876709 535.736145,747.814148 536.268677,746.382324 
	C539.130615,741.731689 543.260254,744.588501 546.963928,743.759094 
	C543.612915,741.212891 542.592163,735.801514 536.674683,736.239746 
	C536.347046,729.963684 536.262634,723.934265 536.295593,717.449463 
	C538.105713,716.925659 539.485779,717.433533 541.009094,718.366821 
	C544.274109,720.366943 547.177368,722.973938 551.498962,723.224060 
	C555.201599,723.438416 556.284546,726.677002 554.304138,730.073669 
	C553.715698,731.082886 552.957397,731.959473 553.020996,733.214783 
	C553.061829,734.022156 552.871094,734.986572 553.730530,735.421509 
	C554.677795,735.901001 555.300110,735.155090 555.718811,734.443726 
	C557.514343,731.393066 561.648560,729.008728 558.383667,724.500061 
	C557.602173,723.420715 557.823425,721.916992 558.908630,720.840088 
	C559.543518,720.210144 560.351685,719.921509 561.150696,720.440857 
	C562.340942,721.214539 561.846252,722.518433 562.004333,723.620300 
	C562.669678,728.257446 559.586060,732.514160 560.790833,737.519409 
z"/>
<path fill="#201226" opacity="1.000000" stroke="none" 
	d="
M329.646729,311.273102 
	C320.274750,311.709961 310.961578,311.835419 301.656586,311.615509 
	C298.493408,311.540741 297.217896,312.239929 297.289734,315.650116 
	C297.461182,323.791504 297.274261,331.940491 297.130249,340.546722 
	C293.234222,331.882324 295.452667,322.355347 295.295349,313.005096 
	C295.250458,310.337158 297.733307,309.957306 300.134216,309.987762 
	C307.460968,310.080688 314.800446,309.777802 322.113678,310.105072 
	C326.750671,310.312592 328.126709,308.712067 328.105042,304.108276 
	C327.942749,269.634521 328.016052,235.159576 328.022736,200.685013 
	C328.024017,194.037399 328.038544,194.030594 334.673279,194.020920 
	C341.335022,194.011230 348.002899,193.844925 354.656250,194.080780 
	C358.623138,194.221405 360.077789,192.501099 360.048157,188.805130 
	C359.996063,182.310333 359.995148,175.814651 360.036285,169.319733 
	C360.081573,162.168625 362.217163,160.036118 369.219757,160.025742 
	C373.882965,160.018814 378.570557,159.732941 383.202332,160.115341 
	C387.552490,160.474503 388.945618,158.216019 388.951172,154.628082 
	C388.957825,150.334732 389.275635,146.067230 388.269226,141.734955 
	C386.755859,135.220245 388.607666,131.889816 393.359924,129.801666 
	C395.916168,128.678436 397.801025,129.718109 399.959106,131.102631 
	C390.480194,132.453354 390.481049,132.453354 390.514374,142.775696 
	C390.531036,147.932571 390.277954,153.108459 390.645081,158.240128 
	C390.924927,162.152328 389.491577,163.012466 385.853485,162.847122 
	C379.379242,162.552902 372.876648,162.921234 366.396423,162.701920 
	C363.370514,162.599487 362.374329,163.415649 362.456909,166.556366 
	C362.675537,174.868164 362.389038,183.193130 362.599976,191.505325 
	C362.678741,194.609512 361.751862,195.491409 358.678925,195.404663 
	C351.199249,195.193512 343.709290,195.356628 336.223541,195.345917 
	C329.752991,195.336655 329.760345,195.322586 329.757721,202.033585 
	C329.743591,238.297882 329.725494,274.562195 329.646729,311.273102 
z"/>
<path fill="#FEFEFE" opacity="1.000000" stroke="none" 
	d="
M443.571655,844.666199 
	C443.079193,836.599426 443.010345,828.621826 443.023468,820.644348 
	C443.025665,819.306458 442.332428,817.445557 445.093323,817.175720 
	C450.716766,817.254272 455.960663,817.355530 461.849884,817.741760 
	C463.384796,826.698547 462.665985,835.391418 462.772217,844.541687 
	C456.479858,844.925659 450.251343,844.840515 443.571655,844.666199 
z"/>
<path fill="#201226" opacity="1.000000" stroke="none" 
	d="
M639.313293,171.717773 
	C638.102051,162.714615 638.102051,162.720032 628.332520,162.735016 
	C622.669617,162.743698 617.000000,162.566681 611.346375,162.794586 
	C608.260132,162.918991 607.291687,161.890747 607.363159,158.850327 
	C607.535400,151.528259 607.153809,144.186188 607.520447,136.878510 
	C607.715637,132.988266 606.456055,131.686203 602.398193,132.110641 
	C607.652344,130.038742 608.938721,130.840134 608.973328,136.454926 
	C609.012024,142.749664 609.085938,149.047348 608.937012,155.338821 
	C608.856934,158.720398 610.104614,160.154785 613.574463,160.066101 
	C619.699707,159.909576 625.831909,160.026871 631.961243,160.029053 
	C639.965942,160.031921 640.086304,160.138260 639.961853,168.004105 
	C639.943848,169.145844 639.725037,170.284424 639.313293,171.717773 
z"/>
<path fill="#D3D2D3" opacity="1.000000" stroke="none" 
	d="
M535.787720,762.430664 
	C543.929810,760.894592 551.901733,760.904541 560.188721,762.996033 
	C560.881348,764.035950 561.171570,765.078064 561.793945,766.370605 
	C562.126160,766.621094 562.203064,766.812012 562.131287,766.885742 
	C561.860229,767.104797 561.660889,767.250061 561.125305,767.241211 
	C553.653503,767.019836 546.515137,766.807068 539.383911,766.951599 
	C536.193420,767.016174 535.169373,765.807800 535.787720,762.430664 
z"/>
<path fill="#D3D2D3" opacity="1.000000" stroke="none" 
	d="
M536.314575,736.435425 
	C538.693481,736.518982 539.959412,735.136902 541.221924,733.172729 
	C541.312378,737.239990 544.351074,738.868225 546.612366,741.036499 
	C547.761536,742.138306 549.741455,742.891785 548.637207,744.925842 
	C547.644287,746.754822 545.169678,746.492981 544.256226,745.755249 
	C541.587402,743.599304 539.457520,745.242432 536.782471,745.995239 
	C536.359314,742.963867 536.278442,739.920776 536.314575,736.435425 
z"/>
<path fill="#201226" opacity="1.000000" stroke="none" 
	d="
M584.712219,131.685959 
	C579.617126,132.063477 574.220886,132.152740 568.406921,132.111389 
	C573.402161,130.068466 578.920654,131.127731 584.712219,131.685959 
z"/>
<path fill="#201226" opacity="1.000000" stroke="none" 
	d="
M565.710693,131.688538 
	C558.305725,132.062607 550.598633,132.148911 542.439331,132.104111 
	C549.753113,130.098282 557.589905,131.121216 565.710693,131.688538 
z"/>
<path fill="#201226" opacity="1.000000" stroke="none" 
	d="
M641.993042,194.358887 
	C641.286926,194.864136 640.516602,194.999680 639.350403,195.122314 
	C638.887695,189.038055 638.820862,182.966660 638.888977,176.442810 
	C641.076599,179.541168 639.711731,183.394287 639.899414,187.094604 
	C640.028381,189.637955 640.208313,191.992249 641.993042,194.358887 
z"/>
<path fill="#D0D1D1" opacity="1.000000" stroke="none" 
	d="
M535.796143,750.309326 
	C540.562622,751.817444 538.722656,754.256226 536.235474,756.877808 
	C535.840027,754.900574 535.754578,752.771545 535.796143,750.309326 
z"/>
<path fill="#201226" opacity="1.000000" stroke="none" 
	d="
M503.709290,131.650742 
	C497.972778,132.013245 491.932800,132.089218 485.440125,132.030914 
	C491.080200,130.103485 497.253632,131.100037 503.709290,131.650742 
z"/>
<path fill="#201226" opacity="1.000000" stroke="none" 
	d="
M598.761658,131.704880 
	C597.284729,132.061920 595.556152,132.151413 593.411987,132.111359 
	C594.697998,130.420624 596.604614,130.935226 598.761658,131.704880 
z"/>
<path fill="#201226" opacity="1.000000" stroke="none" 
	d="
M529.758667,131.711548 
	C528.281250,132.061844 526.549927,132.147491 524.402588,132.100983 
	C525.696838,130.428818 527.599976,130.929779 529.758667,131.711548 
z"/>
<path fill="#201226" opacity="1.000000" stroke="none" 
	d="
M437.719208,131.303055 
	C436.592285,131.594727 435.207947,131.680283 433.426178,131.631439 
	C434.427094,130.484650 435.952667,130.881836 437.719208,131.303055 
z"/>
<path fill="#201226" opacity="1.000000" stroke="none" 
	d="
M455.733765,131.342682 
	C454.597321,131.637375 453.207550,131.716415 451.417664,131.664368 
	C452.421967,130.484253 453.959045,130.891769 455.733765,131.342682 
z"/>
<path fill="#201226" opacity="1.000000" stroke="none" 
	d="
M464.750153,131.413361 
	C463.599701,131.719940 462.204346,131.794876 460.408936,131.734283 
	C461.417236,130.484451 462.964600,130.869247 464.750153,131.413361 
z"/>
<path fill="#201226" opacity="1.000000" stroke="none" 
	d="
M590.794434,131.732422 
	C589.928833,132.068176 588.847290,132.150146 587.376038,132.101700 
	C588.032288,130.703110 589.272583,130.851730 590.794434,131.732422 
z"/>
<path fill="#201226" opacity="1.000000" stroke="none" 
	d="
M471.807922,131.436737 
	C471.239410,131.747925 470.484406,131.835495 469.367432,131.790329 
	C469.744568,130.727280 470.662994,130.852615 471.807922,131.436737 
z"/>
<path fill="#27207D" opacity="1.000000" stroke="none" 
	d="
M706.051147,353.290558 
	C706.881958,353.727570 706.697632,354.669769 706.396118,355.834473 
	C706.125854,355.267548 706.018921,354.471771 706.051147,353.290558 
z"/>
<path fill="#27207D" opacity="1.000000" stroke="none" 
	d="
M706.053589,346.300537 
	C706.876709,346.749847 706.695129,347.688934 706.357178,348.852173 
	C706.095032,348.279907 706.004272,347.481659 706.053589,346.300537 
z"/>
<path fill="#201226" opacity="1.000000" stroke="none" 
	d="
M514.825806,131.721542 
	C514.249756,132.049957 513.485413,132.135757 512.353394,132.092010 
	C512.712646,130.940384 513.609497,130.850037 514.825806,131.721542 
z"/>
<path fill="#27207D" opacity="1.000000" stroke="none" 
	d="
M706.106628,365.332520 
	C706.850891,365.777893 706.685669,366.673157 706.358826,367.784546 
	C706.122925,367.233459 706.047852,366.466309 706.106628,365.332520 
z"/>
<path fill="#F34845" opacity="1.000000" stroke="none" 
	d="
M284.918518,352.738708 
	C284.618530,352.910767 284.116089,352.950317 283.240601,352.926270 
	C283.483704,352.777191 284.099854,352.691681 284.918518,352.738708 
z"/>
<path fill="#201226" opacity="1.000000" stroke="none" 
	d="
M538.865845,131.747894 
	C538.557617,132.055527 538.101624,132.140900 537.315796,132.096954 
	C537.420166,131.259171 537.969482,131.002060 538.865845,131.747894 
z"/>
<path fill="#201226" opacity="1.000000" stroke="none" 
	d="
M474.937683,131.542526 
	C474.843445,131.788361 474.669739,131.861908 474.241516,131.811600 
	C474.277435,131.581909 474.567810,131.476089 474.937683,131.542526 
z"/>
<path fill="#201226" opacity="1.000000" stroke="none" 
	d="
M477.931030,131.568420 
	C477.839691,131.816223 477.668365,131.891541 477.242645,131.848053 
	C477.275848,131.618179 477.563446,131.507065 477.931030,131.568420 
z"/>
<path fill="#D0D1D1" opacity="1.000000" stroke="none" 
	d="
M560.757202,767.331787 
	C561.000732,767.065857 561.212402,767.044617 561.741821,766.991455 
	C561.853577,767.229614 561.647644,767.499756 561.212646,767.883545 
	C560.983704,767.997192 560.725403,767.576538 560.757202,767.331787 
z"/>
<path fill="#201226" opacity="1.000000" stroke="none" 
	d="
M644.932129,194.551743 
	C644.845642,194.801056 644.672791,194.883698 644.239929,194.843262 
	C644.268555,194.608490 644.557068,194.496796 644.932129,194.551743 
z"/>
<path fill="#201226" opacity="1.000000" stroke="none" 
	d="
M533.930786,131.793182 
	C533.843323,132.044998 533.671814,132.121658 533.242798,132.083588 
	C533.272400,131.851929 533.559631,131.734970 533.930786,131.793182 
z"/>
<path fill="#201226" opacity="1.000000" stroke="none" 
	d="
M481.942017,131.652557 
	C481.841431,131.889816 481.663574,131.949844 481.234314,131.882812 
	C481.276825,131.662292 481.570801,131.568817 481.942017,131.652557 
z"/>
<path fill="#D3D2D3" opacity="1.000000" stroke="none" 
	d="
M462.530212,817.848511 
	C462.495209,818.026733 462.126312,818.034241 462.102966,817.933838 
	C462.079651,817.833496 462.240448,817.507935 462.240448,817.507935 
	C462.240448,817.507935 462.565216,817.670288 462.530212,817.848511 
z"/>
<path fill="#201226" opacity="1.000000" stroke="none" 
	d="
M410.884857,131.286377 
	C410.809875,131.505127 410.653687,131.589020 410.267395,131.539520 
	C410.209045,131.073776 410.464508,130.988907 410.884857,131.286377 
z"/>
<path fill="#201226" opacity="1.000000" stroke="none" 
	d="
M404.879822,131.287415 
	C404.809967,131.510361 404.655182,131.598389 404.264832,131.560364 
	C404.192139,131.090210 404.447357,130.996277 404.879822,131.287415 
z"/>
<path fill="#241E7B" opacity="1.000000" stroke="none" 
	d="
M330.128265,647.010864 
	C329.800446,646.888367 329.693481,646.744446 329.523804,646.338867 
	C329.712158,646.074341 329.963196,646.071655 330.558319,646.216919 
	C330.861176,646.699829 330.676758,646.908020 330.128265,647.010864 
z"/>
<path fill="#41CFFE" opacity="1.000000" stroke="none" 
	d="
M421.806335,366.407349 
	C421.351654,364.941864 421.069519,363.761230 421.204468,362.630341 
	C421.590820,359.392090 420.064087,358.711945 417.128906,358.823212 
	C410.141663,359.088135 403.139465,358.950348 396.151245,359.199036 
	C393.048157,359.309448 391.752930,358.524597 391.762299,355.089813 
	C391.866943,316.778625 391.867401,278.466888 391.756073,240.155716 
	C391.745605,236.553741 393.018188,235.584244 396.410889,235.686630 
	C403.067230,235.887512 409.750854,235.435333 416.391876,235.809326 
	C421.252411,236.083054 423.150421,234.938278 422.891296,229.570267 
	C422.402008,219.432983 422.854919,209.253601 422.680786,199.095749 
	C422.625793,195.888428 423.545349,194.775009 426.870697,194.779694 
	C485.503784,194.862289 544.137085,194.866348 602.770081,194.770996 
	C606.506409,194.764923 607.215820,196.375275 607.186096,199.586609 
	C607.078125,211.244736 607.142151,222.904465 607.099670,234.994659 
	C608.281372,237.316971 608.566345,239.421432 608.568054,241.624588 
	C608.576721,252.611069 608.640259,263.598022 608.540588,274.583771 
	C608.476135,281.686707 606.792786,283.296295 599.609314,283.536285 
	C596.612854,283.636444 593.622925,283.503235 590.631042,283.258270 
	C584.668396,282.770050 583.339783,283.936310 582.738098,289.998749 
	C582.524109,292.156036 582.580444,294.322540 582.576721,296.486053 
	C582.557190,307.805389 582.676758,319.125732 582.520935,330.443726 
	C582.440125,336.311462 581.296326,337.517883 575.400879,337.512817 
	C557.636780,337.497528 539.879639,339.224609 522.115479,337.814362 
	C518.218140,337.504974 516.567993,339.079346 516.606506,342.879456 
	C516.658813,348.036835 516.376526,353.198273 516.861755,358.349274 
	C517.575439,365.925720 516.225220,367.470825 508.444946,367.544800 
	C497.958527,367.644531 487.470917,367.571716 476.983826,367.573944 
	C461.169922,367.577240 445.356018,367.588806 429.542175,367.561188 
	C427.062042,367.556854 424.530670,367.827393 421.806335,366.407349 
z"/>
<path fill="#03D8FE" opacity="1.000000" stroke="none" 
	d="
M421.353699,366.553589 
	C450.744781,366.058044 480.046204,366.015747 509.347656,365.975037 
	C516.302307,365.965393 515.943542,365.961975 515.298706,358.930176 
	C514.708069,352.489349 515.100159,345.959076 515.043762,339.468323 
	C515.017578,336.452728 516.927124,335.904236 519.365906,336.047882 
	C524.281250,336.337463 529.193970,336.671295 534.110046,336.948334 
	C541.594604,337.370087 549.027771,335.093964 556.468384,336.136993 
	C563.116638,337.069000 569.665894,335.528107 576.241028,336.085785 
	C579.917053,336.397552 581.171448,335.175079 581.107910,331.365204 
	C580.891357,318.382416 581.004944,305.393738 581.043884,292.407471 
	C581.049316,290.595032 581.189148,288.753876 581.531738,286.977081 
	C582.474792,282.085693 584.815857,280.372040 589.627747,281.423370 
	C593.941040,282.365784 598.244690,281.800873 602.548767,281.913666 
	C605.846619,282.000153 607.133240,280.322021 607.097046,276.912811 
	C606.953796,263.428528 607.044983,249.941742 607.053650,235.940811 
	C616.739746,235.487762 626.421387,235.549789 636.574951,235.588684 
	C638.647522,249.354294 636.851807,263.157288 637.206238,276.957062 
	C637.462585,286.937439 637.094666,296.932648 637.243164,306.917694 
	C637.290649,310.113739 636.429810,311.299286 633.069092,311.182434 
	C626.419373,310.951233 619.733765,311.478210 613.103455,311.056274 
	C608.428345,310.758789 607.631287,312.565948 607.717163,316.735138 
	C607.963745,328.715088 607.636963,340.706421 607.854004,352.687561 
	C607.923340,356.518158 606.647644,357.582916 602.980774,357.396271 
	C597.502014,357.117432 591.993164,357.476776 586.506775,357.285309 
	C583.150452,357.168121 581.869446,358.070892 581.943604,361.758179 
	C582.157349,372.400146 581.739746,383.054626 581.938843,393.697266 
	C582.011780,397.596039 580.626648,398.343140 577.031982,398.324493 
	C525.432556,398.056763 473.832367,397.931519 421.787842,397.787598 
	C421.316925,387.537903 421.290497,377.272644 421.353699,366.553589 
z"/>
<path fill="#D3D2D3" opacity="1.000000" stroke="none" 
	d="
M363.366669,398.651672 
	C362.895203,395.941193 362.850098,393.466125 362.870880,390.539886 
	C372.648743,388.946686 381.413147,392.722290 390.368500,395.448578 
	C391.009247,395.643646 391.412231,396.619751 392.033386,397.581757 
	C391.892395,397.970825 391.643799,398.010864 391.022736,398.113586 
	C389.330322,399.407288 387.650299,399.561951 386.007050,399.516541 
	C378.602325,399.312103 371.161591,400.325623 363.366669,398.651672 
z"/>
<path fill="#231A79" opacity="1.000000" stroke="none" 
	d="
M502.673920,429.657837 
	C525.701172,429.479858 548.401245,429.411041 571.552979,429.468750 
	C574.916199,430.403870 578.968567,429.344116 580.172607,433.130188 
	C581.398926,436.986542 577.143677,438.158875 575.490540,440.675293 
	C578.188049,438.195679 581.452820,436.606964 583.816040,433.427521 
	C586.146118,430.292755 588.838013,433.670868 591.104126,435.004852 
	C593.326965,436.313324 594.601562,438.188751 592.988098,440.821198 
	C591.921326,442.561584 590.377502,443.832031 588.624390,444.847382 
	C587.309143,445.609131 586.064880,446.442780 585.503906,447.947083 
	C585.097534,449.036926 584.569580,450.198029 585.264343,451.297852 
	C586.057007,452.552826 587.338257,452.014465 588.456482,451.865051 
	C589.952271,451.665161 591.329407,451.024475 592.771912,450.627502 
	C594.775085,450.076233 596.510010,450.639343 597.445679,452.498932 
	C598.406372,454.408386 597.595337,456.014709 596.018433,457.325378 
	C594.239746,458.803864 590.590576,459.036407 592.691223,463.043854 
	C593.782471,465.125702 591.403442,467.889435 593.678284,470.129517 
	C595.276672,471.703522 594.614441,473.584778 593.303345,475.068481 
	C591.934937,476.616913 591.782776,478.179321 592.277283,480.138702 
	C592.811096,482.254181 595.574341,486.948822 597.279114,488.419922 
	C600.222900,490.960266 602.256775,493.595215 602.005615,498.183594 
	C601.707092,503.637421 601.337646,509.414703 604.480896,514.546997 
	C605.749084,516.617798 603.954529,519.664368 606.638672,521.753052 
	C606.852966,552.790588 606.756531,583.580933 606.867188,614.370544 
	C606.882507,618.647522 604.250122,617.736023 601.923340,617.737793 
	C563.957947,617.767212 525.992554,617.772095 488.027130,617.778259 
	C475.538513,617.780273 463.042297,617.519165 450.565186,617.895752 
	C445.909241,618.036255 445.174744,616.501831 445.176727,612.287354 
	C445.195557,572.825989 444.988037,533.364441 444.838135,493.431946 
	C447.393677,490.753113 450.520081,491.419312 453.444183,491.415558 
	C491.734070,491.366516 530.024048,491.385162 568.314026,491.381531 
	C570.810730,491.381287 573.308655,491.432800 576.208435,491.230530 
	C579.017090,491.096008 579.103638,489.893250 577.959167,487.781677 
	C577.199097,479.402985 577.423767,471.389679 577.770752,462.997101 
	C578.189209,461.029266 579.328064,460.199127 581.457520,459.335297 
	C579.673767,459.549805 578.750488,460.070648 577.356567,460.323303 
	C554.717957,460.676666 532.477173,460.797180 509.801636,460.248993 
	C507.135254,459.166809 504.926636,457.702606 502.126221,459.983826 
	C491.777039,461.124847 481.821045,460.430176 471.878143,460.556610 
	C463.253662,460.666321 454.625610,460.656738 445.548523,460.491333 
	C444.526764,460.380737 443.960541,460.279449 443.022583,460.017090 
	C439.641846,456.850189 437.132721,453.333954 433.524811,450.879944 
	C432.457642,450.154144 431.897186,448.766663 431.545746,447.481415 
	C430.886047,445.068848 429.982178,442.408722 433.470459,441.386108 
	C437.312500,440.259705 440.067780,441.553162 440.846527,444.875092 
	C441.282806,446.736115 441.509674,448.582184 443.781006,448.926392 
	C445.831848,449.237183 447.257202,448.017181 448.399139,446.522186 
	C449.637817,444.900513 450.975922,443.519073 453.079285,443.062317 
	C456.923279,442.227539 458.948944,443.545166 458.677551,447.416504 
	C458.459076,450.533112 459.751282,450.577545 461.798828,449.593292 
	C465.400360,447.861938 468.934448,447.513550 472.882568,448.558685 
	C476.964264,449.639191 477.011627,445.774078 478.134766,443.383636 
	C479.419006,440.650269 477.991028,439.732819 475.587158,438.738312 
	C471.969543,437.241638 468.906616,434.946014 469.778931,429.981384 
	C473.367432,428.988312 476.741547,429.427277 480.537842,429.581909 
	C482.756500,432.858002 483.649994,436.436035 486.049194,439.279327 
	C487.160095,440.595886 487.631592,442.839844 486.111572,443.808655 
	C481.212280,446.931183 486.846100,446.554077 487.300201,448.456390 
	C488.765472,440.048187 494.274597,443.869659 498.483032,444.081818 
	C498.639954,442.992828 497.776825,443.050598 497.280609,442.820007 
	C491.949219,440.342621 491.928955,440.343536 494.230255,434.843079 
	C494.921631,433.190552 494.822845,431.184570 496.703430,429.750427 
	C498.077911,429.493683 499.149078,429.409790 500.610229,429.441803 
	C501.433929,429.724792 501.882019,429.799408 502.673920,429.657837 
z"/>
<path fill="#231C7A" opacity="1.000000" stroke="none" 
	d="
M469.577545,429.576782 
	C470.553894,434.350403 472.789368,437.441467 477.673798,437.990112 
	C480.254272,438.279938 481.361328,439.193787 480.085754,441.897369 
	C479.388519,443.375183 479.368805,445.216217 478.526886,446.572754 
	C476.980469,449.064484 476.016388,452.638885 471.477295,449.557068 
	C468.820831,447.753448 465.371765,449.055481 462.494293,450.734589 
	C460.921875,451.652161 459.157196,452.682373 457.344482,451.502563 
	C455.045288,450.006256 457.268066,448.695038 457.700684,447.291168 
	C458.114227,445.949097 458.249359,444.416199 456.408997,444.162140 
	C453.920837,443.818665 451.621155,443.857117 449.938110,446.551971 
	C447.072571,451.140289 443.774597,451.901703 440.734314,449.149078 
	C439.995972,448.480621 438.994324,447.735138 439.359100,446.674591 
	C441.054779,441.744385 437.946411,443.091705 435.040985,442.643280 
	C430.685364,441.970978 431.863983,444.525055 432.357422,446.345764 
	C432.954498,448.548981 433.958527,450.701904 436.400085,451.743744 
	C439.154846,452.919189 440.843719,455.155975 441.941406,458.240234 
	C439.781921,461.495880 436.543854,460.465424 433.701050,460.521759 
	C421.435547,460.764832 422.778290,459.182251 422.525543,471.924896 
	C422.390930,478.710205 423.439423,485.552582 421.514587,492.676208 
	C421.243256,518.075989 421.210297,543.080261 421.075928,568.544067 
	C420.376862,569.719055 420.562927,570.813416 419.389771,571.681885 
	C410.892944,572.724304 402.802155,573.425293 394.401794,571.177734 
	C391.536804,570.456177 391.744843,568.609985 391.747620,566.737122 
	C391.760498,558.119934 391.702698,549.502686 391.577454,540.423218 
	C391.508270,514.235596 391.464569,488.509613 391.636230,462.785126 
	C391.659119,459.357300 390.471527,458.624207 387.376862,458.734009 
	C379.430481,459.015900 371.474670,459.033356 363.024536,459.136230 
	C360.869995,456.194672 361.335175,452.977203 361.435303,449.881775 
	C361.653656,443.133240 360.554626,436.330719 362.460358,429.214081 
	C364.391693,427.464294 366.399139,427.334930 368.351257,427.436401 
	C375.676544,427.817230 383.088745,426.269775 390.752045,428.681000 
	C394.302460,429.101410 397.434357,429.364777 400.566803,429.371399 
	C423.420532,429.419830 446.274384,429.416718 469.577545,429.576782 
z"/>
<path fill="#FEFEFE" opacity="1.000000" stroke="none" 
	d="
M579.196289,491.667084 
	C577.173096,493.420471 575.089844,492.743927 573.163940,492.745972 
	C530.701355,492.791138 488.238678,492.781799 445.303131,492.871887 
	C444.830231,492.960907 444.555695,492.996857 444.418518,493.015564 
	C443.026276,492.005463 442.556213,490.591034 442.524292,489.059082 
	C442.337494,480.096313 442.183807,471.132385 442.611145,462.171631 
	C442.651093,461.333862 442.979767,460.558502 443.707062,459.439209 
	C463.373077,459.098938 482.727417,459.148468 502.540894,459.095581 
	C504.313324,457.946259 505.741119,457.853851 507.627716,458.740906 
	C531.193176,459.089172 554.386414,459.179382 578.012329,459.239014 
	C579.173096,459.165527 579.501038,459.506866 579.209961,460.616333 
	C578.925842,470.027557 578.860474,479.055115 578.899658,488.541321 
	C579.603210,489.691986 579.755188,490.469299 579.196289,491.667084 
z"/>
<path fill="#231C7A" opacity="1.000000" stroke="none" 
	d="
M606.991211,521.542358 
	C604.907471,521.993958 602.780090,521.650024 603.260681,519.143738 
	C603.757690,516.552246 604.742737,514.634094 600.989319,513.489319 
	C599.068787,512.903564 601.960510,511.209625 601.702087,509.732819 
	C600.856628,504.901031 599.904114,500.129517 600.843018,495.100891 
	C601.315247,492.572144 596.151978,487.927521 593.607178,488.337402 
	C589.034363,489.073853 589.460205,486.458252 590.777039,484.036957 
	C591.749756,482.248413 591.564148,481.021362 590.776306,479.468903 
	C589.781860,477.509277 589.395874,475.833710 592.105957,474.650726 
	C593.372681,474.097778 594.709167,471.691956 593.137817,471.080444 
	C588.936707,469.445557 591.048279,467.204437 591.829224,464.881531 
	C592.026611,464.294128 592.106140,463.268433 591.768677,462.960388 
	C587.663147,459.212952 590.212524,458.380768 593.855591,457.309113 
	C595.468811,456.834625 597.983093,455.441315 596.619019,452.909546 
	C595.411804,450.668854 593.457703,451.086823 591.574097,452.546112 
	C590.998657,452.991943 589.984314,453.013458 589.177612,452.990753 
	C587.152222,452.933868 584.022339,455.662109 583.422241,451.968842 
	C582.995789,449.344025 583.439392,445.888153 586.681824,444.253662 
	C587.414368,443.884430 588.433167,443.865112 588.950745,443.328430 
	C590.483948,441.738556 593.717224,440.496124 592.548096,438.007843 
	C591.416443,435.599304 588.415649,434.348389 585.818298,433.252991 
	C585.458801,433.101379 584.276306,433.774139 584.278748,434.058380 
	C584.323547,439.309082 578.163513,438.290894 576.443298,441.866669 
	C575.812927,443.177155 573.627686,443.753143 572.645508,442.259186 
	C571.762573,440.916260 573.516541,440.000885 574.557129,439.264130 
	C576.699402,437.747375 579.942566,436.291168 579.403442,433.603149 
	C578.765442,430.422729 574.555359,431.690369 572.135742,429.902161 
	C581.781616,429.477661 591.559021,429.385345 601.335144,429.221191 
	C603.293518,429.188293 605.323181,429.683716 607.540894,428.334351 
	C617.784851,428.462006 627.718567,427.415314 637.902832,428.861725 
	C638.235107,438.000031 638.186096,446.822540 638.367188,455.640381 
	C638.426819,458.545685 637.008545,458.829346 634.677429,458.803284 
	C626.847534,458.715546 619.013184,458.899323 611.186218,458.723938 
	C608.197754,458.656952 607.173767,459.466370 607.187378,462.608093 
	C607.272095,482.099640 607.151245,501.592133 606.991211,521.542358 
z"/>
<path fill="#27207D" opacity="1.000000" stroke="none" 
	d="
M391.017639,616.383179 
	C382.936493,616.807617 374.969727,616.681091 367.007782,616.822693 
	C364.098755,616.874451 362.970551,616.244141 363.026550,612.991516 
	C363.246613,600.216187 363.234039,587.433960 363.079285,574.657043 
	C363.039001,571.330688 363.766083,569.945312 367.428802,570.080566 
	C374.054993,570.325378 380.714111,570.277405 387.332550,569.890625 
	C390.877899,569.683411 391.619995,571.137146 391.360657,574.543518 
	C393.344910,580.693542 392.838348,586.456543 391.671082,592.668091 
	C391.350220,600.716492 391.242096,608.327393 391.017639,616.383179 
z"/>
<path fill="#27207D" opacity="1.000000" stroke="none" 
	d="
M737.698730,399.149841 
	C737.700745,398.720428 737.806458,398.628387 737.818970,398.603058 
	C747.212646,397.666565 756.618042,398.441528 766.477539,398.164703 
	C767.010376,408.167053 767.074036,418.177094 767.235718,428.659973 
	C757.803833,429.156830 748.273987,429.180817 738.268677,429.114838 
	C737.761108,419.209656 737.728943,409.394470 737.698730,399.149841 
z"/>
<path fill="#D0D1D1" opacity="1.000000" stroke="none" 
	d="
M443.688660,458.941895 
	C444.041565,470.067444 444.064392,481.085480 444.184296,492.568848 
	C436.912994,493.033722 429.544647,493.033173 421.726257,493.052155 
	C420.201569,482.668823 421.070404,472.235657 420.777069,461.821198 
	C420.707397,459.347321 421.989746,458.749939 424.181671,458.774170 
	C429.814362,458.836548 435.448517,458.769653 441.542053,458.659607 
	C442.454254,458.654633 442.906464,458.744507 443.688660,458.941895 
z"/>
<path fill="#D2D3D1" opacity="1.000000" stroke="none" 
	d="
M391.895691,593.066772 
	C391.393280,587.373352 391.328217,581.640991 391.360687,575.449219 
	C394.008484,575.158325 394.069000,573.432617 394.032349,571.246460 
	C402.396027,570.775818 410.746887,570.682007 419.543304,570.445801 
	C420.162933,570.350647 420.337067,570.397766 420.639160,570.683228 
	C423.310516,577.611023 421.655548,584.527100 421.706940,591.331177 
	C421.724060,593.601746 419.156982,592.885315 417.646912,592.902405 
	C409.209534,592.997986 400.771118,592.996277 391.895691,593.066772 
z"/>
<path fill="#27207D" opacity="1.000000" stroke="none" 
	d="
M420.871643,570.607422 
	C420.767151,570.921570 420.354980,570.641724 420.171906,570.472595 
	C420.186249,569.931946 420.383667,569.560425 420.777771,569.096191 
	C420.975037,569.433411 420.975616,569.863403 420.871643,570.607422 
z"/>
<path fill="#201226" opacity="1.000000" stroke="none" 
	d="
M391.203552,428.492004 
	C382.083710,428.970245 372.997131,428.983582 363.440186,428.982147 
	C362.199371,428.274475 361.724945,427.362122 361.693970,426.379608 
	C361.415924,417.555450 360.798615,408.723633 362.299255,399.488708 
	C362.535370,399.056885 362.855499,398.810608 362.897888,398.613403 
	C371.883636,398.386108 380.826996,398.356018 390.210327,398.251099 
	C392.054962,408.102783 390.883759,418.079926 391.203552,428.492004 
z"/>
<path fill="#231C7A" opacity="1.000000" stroke="none" 
	d="
M496.554016,429.455109 
	C495.668945,432.346405 495.891388,435.522705 493.797607,438.278198 
	C492.315765,440.228394 495.818115,440.455444 497.054718,441.478607 
	C498.416168,442.605072 502.148499,441.309387 501.313751,444.248138 
	C500.548218,446.943298 497.582520,445.226685 495.595428,444.919403 
	C492.538269,444.446655 488.410736,441.844604 489.756256,448.553345 
	C489.992828,449.733093 488.376617,450.320892 487.596039,449.837555 
	C485.396912,448.475861 483.140625,447.016449 481.435211,445.120300 
	C480.446350,444.020874 481.645996,443.061432 483.148712,443.195160 
	C487.880585,443.616364 485.971283,441.075439 484.709137,439.317108 
	C482.768982,436.614288 480.410492,434.181335 480.982025,430.092102 
	C485.998016,428.934143 491.057495,429.433228 496.554016,429.455109 
z"/>
<path fill="#FDFDFE" opacity="1.000000" stroke="none" 
	d="
M652.303345,360.587921 
	C655.474548,360.497314 656.424316,362.102203 655.712341,364.654755 
	C655.230469,366.382050 653.453186,366.255402 652.427307,365.719086 
	C650.034302,364.467987 650.877991,362.557037 652.303345,360.587921 
z"/>
<path fill="#231C7A" opacity="1.000000" stroke="none" 
	d="
M502.673157,429.439148 
	C502.619202,430.666290 502.146118,431.423096 501.063965,429.789856 
	C501.448547,429.481659 501.896851,429.405640 502.673157,429.439148 
z"/>
<path fill="#FB4145" opacity="1.000000" stroke="none" 
	d="
M362.103455,399.025391 
	C362.616425,408.722229 362.697510,418.387573 362.874207,428.510132 
	C362.873596,438.701752 362.777374,448.436157 362.603821,458.643250 
	C362.526459,459.115936 362.544678,459.061951 362.554626,459.035278 
	C361.264252,459.757599 359.956116,460.490479 358.390869,460.483826 
	C349.762177,460.447113 341.120972,461.148682 331.716248,459.481445 
	C330.614197,447.630798 331.687897,436.336517 330.113464,425.052673 
	C329.028961,417.280029 331.153595,409.508331 330.986725,401.700134 
	C330.919647,398.562012 333.251434,398.991394 335.200256,398.987854 
	C344.023987,398.971863 352.847778,398.988831 362.103455,399.025391 
z"/>
<path fill="#FB4145" opacity="1.000000" stroke="none" 
	d="
M331.395386,491.114746 
	C330.639008,491.652863 330.197571,491.819305 329.428009,492.118347 
	C328.262726,492.803864 327.373688,493.341827 326.368591,493.360291 
	C316.952911,493.533112 307.529327,494.189087 297.706360,492.749542 
	C297.198975,482.724030 297.178192,472.942078 297.000549,463.162964 
	C296.938812,459.765747 298.643646,458.960632 301.642975,458.986298 
	C311.095459,459.067200 320.549225,458.996094 330.462433,458.948914 
	C330.922363,458.914032 331.038788,459.032227 331.098328,459.089966 
	C331.605652,459.640350 332.085571,460.194733 332.118134,460.836609 
	C332.624359,470.813049 333.343262,480.795319 331.395386,491.114746 
z"/>
<path fill="#241E7B" opacity="1.000000" stroke="none" 
	d="
M297.304199,492.627411 
	C307.570496,492.405975 317.859650,492.307068 328.624329,492.229553 
	C329.146637,498.541138 329.042847,504.837616 329.303406,511.118958 
	C329.434082,514.269714 328.615051,515.416809 325.251617,515.337585 
	C316.480591,515.130859 307.700226,515.320190 298.452637,515.370239 
	C296.771057,508.255432 297.503235,501.057495 297.221313,493.419067 
	C297.173828,492.946533 297.326996,492.749908 297.304199,492.627411 
z"/>
<path fill="#D0D1D1" opacity="1.000000" stroke="none" 
	d="
M546.748779,677.913696 
	C546.541138,678.765381 546.048584,679.059509 545.233582,678.421631 
	C545.385559,677.547363 545.912476,677.475647 546.748779,677.913696 
z"/>
<path fill="#27207D" opacity="1.000000" stroke="none" 
	d="
M331.533722,491.594360 
	C331.114807,481.011932 331.149170,470.537445 331.170715,459.605347 
	C341.293060,459.048004 351.428192,458.948242 362.063965,458.928528 
	C362.456787,468.468689 362.192566,477.931000 362.323334,487.387817 
	C362.371155,490.845276 361.417297,491.953339 357.893738,491.845703 
	C349.264740,491.582153 340.623383,491.723785 331.533722,491.594360 
z"/>
<path fill="#241E7B" opacity="1.000000" stroke="none" 
	d="
M328.726685,644.592041 
	C318.568542,644.975342 308.449066,644.884277 297.896790,644.770142 
	C297.342865,635.792053 297.221741,626.836975 297.037903,617.412842 
	C306.134430,617.022766 315.297089,617.275513 324.451172,617.093811 
	C328.042755,617.022583 328.974823,618.189331 328.861511,621.628479 
	C328.614624,629.117859 328.772766,636.620544 328.726685,644.592041 
z"/>
<path fill="#D1D2D3" opacity="1.000000" stroke="none" 
	d="
M471.726562,709.703003 
	C470.379547,713.731262 466.756226,715.452148 463.523560,717.948364 
	C462.766754,709.099487 463.295166,708.551819 471.726562,709.703003 
z"/>
<path fill="#D1D2D3" opacity="1.000000" stroke="none" 
	d="
M463.126099,721.423340 
	C466.701843,722.179993 467.287689,723.758911 463.524170,725.942627 
	C463.153961,724.604248 463.115295,723.220337 463.126099,721.423340 
z"/>
<path fill="#D1D2D3" opacity="1.000000" stroke="none" 
	d="
M463.414795,745.999390 
	C462.981598,745.553345 462.926910,745.106567 462.954285,744.329834 
	C463.201294,743.981689 463.367676,743.939270 463.530914,743.949219 
	C464.875031,744.030518 466.888550,741.921082 467.369415,743.915833 
	C467.919495,746.197937 465.362701,745.846741 463.414795,745.999390 
z"/>
<path fill="#D1D2D3" opacity="1.000000" stroke="none" 
	d="
M474.609558,751.534912 
	C475.421783,751.303711 475.712830,751.589905 475.589722,752.218384 
	C475.564087,752.349243 475.379150,752.525940 475.247131,752.545959 
	C474.611420,752.642090 474.344269,752.333496 474.609558,751.534912 
z"/>
<path fill="#B2F4FF" opacity="1.000000" stroke="none" 
	d="
M422.333496,299.231750 
	C420.828583,297.919342 421.079376,296.529297 421.073822,295.220856 
	C421.025940,283.897217 421.102295,272.571411 420.886932,261.251068 
	C420.823547,257.919952 421.939056,256.885406 425.175995,257.019531 
	C430.329803,257.232971 435.501617,256.973572 440.661133,257.102051 
	C443.279816,257.167267 444.200775,256.140686 444.133514,253.582916 
	C444.002441,248.598099 444.201935,243.628113 444.774872,238.650986 
	C445.055328,236.214813 445.601776,235.064560 448.257996,235.074692 
	C460.748077,235.122314 473.238800,235.050491 485.729034,234.980392 
	C487.681976,234.969437 488.968811,235.466064 488.888153,237.735962 
	C488.628693,245.038406 489.385437,252.362915 488.139587,259.991913 
	C482.925049,262.624786 477.691772,261.296936 472.600250,261.467621 
	C465.249481,261.713989 465.254883,261.544128 464.676514,268.883759 
	C464.427460,272.044373 464.622986,275.214874 464.391083,278.376434 
	C464.133026,281.894409 462.297516,283.278931 458.792023,283.144470 
	C447.291077,282.703247 447.203156,282.753693 446.513123,294.192657 
	C446.271515,298.197968 444.736664,300.590668 440.512115,300.434631 
	C434.567657,300.215149 428.538818,301.526733 422.333496,299.231750 
z"/>
<path fill="#03D8FE" opacity="1.000000" stroke="none" 
	d="
M421.982666,299.430908 
	C428.467560,298.925323 434.959106,298.794037 441.446686,298.901917 
	C444.186005,298.947449 445.433807,298.119507 445.251678,295.217834 
	C445.074738,292.400299 445.495819,289.532867 445.188141,286.738678 
	C444.683289,282.154266 446.775909,280.755615 450.964203,281.187531 
	C452.778015,281.374573 454.628479,281.179504 456.451324,281.310730 
	C463.319641,281.805084 463.272064,281.828369 463.303955,275.221100 
	C463.320801,271.733093 464.095032,268.149017 463.516754,264.781891 
	C462.703125,260.044220 465.124329,260.044556 468.483032,260.129883 
	C474.637451,260.286255 480.797913,260.206879 487.410156,260.279541 
	C488.158722,266.478363 487.874786,272.581146 487.135803,278.703339 
	C486.817566,281.340057 485.881714,282.106781 483.434662,282.054932 
	C478.445282,281.949158 473.452087,282.022491 468.460480,282.018585 
	C466.721436,282.017242 465.231323,282.059113 464.949677,284.469971 
	C464.561035,287.796265 465.168610,304.955139 466.170532,307.993408 
	C460.917389,307.993408 455.779633,308.060760 450.644867,307.966431 
	C447.866089,307.915375 446.370880,308.752014 447.419952,311.755890 
	C448.533844,314.945465 446.577850,315.019135 444.336884,315.004761 
	C438.180725,314.965271 432.019867,314.833099 425.869690,315.022980 
	C422.682434,315.121399 421.831482,313.769989 421.953125,310.881622 
	C422.107025,307.227722 421.988617,303.562317 421.982666,299.430908 
z"/>
<path fill="#3DCEFC" opacity="1.000000" stroke="none" 
	d="
M467.243042,516.176331 
	C473.871918,516.175293 480.026550,516.294617 486.173096,516.122559 
	C489.050201,516.041992 489.941101,517.105591 489.848480,519.883545 
	C489.676758,525.031860 489.697235,530.191711 489.819824,535.342468 
	C489.881744,537.944092 488.876343,538.874512 486.309387,538.828491 
	C479.993805,538.715088 473.673828,538.719543 467.357819,538.818054 
	C464.912231,538.856140 463.671753,538.200439 463.744324,535.470886 
	C463.885712,530.154602 463.835327,524.831055 463.755707,519.512146 
	C463.723206,517.341125 464.218597,515.899719 467.243042,516.176331 
z"/>
<path fill="#308ED6" opacity="1.000000" stroke="none" 
	d="
M537.858643,548.106812 
	C537.838684,553.758057 537.707153,558.925903 537.846130,564.086426 
	C537.924194,566.985046 537.126770,568.367737 533.927551,568.220947 
	C529.105713,567.999817 524.262390,568.023743 519.436646,568.189148 
	C516.523254,568.289062 515.711182,567.067078 515.768799,564.346985 
	C515.906250,557.851990 515.928772,551.350098 515.785095,544.855591 
	C515.723083,542.049316 516.673523,540.959106 519.518311,541.080444 
	C523.509705,541.250610 527.513733,541.125916 531.512390,541.121521 
	C537.847046,541.114563 537.847046,541.112488 537.858643,548.106812 
z"/>
<path fill="#3DCEFC" opacity="1.000000" stroke="none" 
	d="
M572.933289,515.747437 
	C577.709106,515.117798 579.777405,516.398743 579.309814,521.276611 
	C578.852722,526.045349 579.150085,530.896484 579.279236,535.707092 
	C579.343018,538.084229 578.448547,538.901184 576.086670,538.882507 
	C570.279846,538.836548 564.468079,538.916626 558.665039,539.129150 
	C556.046326,539.224976 555.154297,538.228088 555.205505,535.673462 
	C555.315247,530.198364 555.349854,524.714417 555.154785,519.243408 
	C555.048950,516.275330 556.328125,515.550598 558.998779,515.646545 
	C563.475403,515.807556 567.960815,515.724915 572.933289,515.747437 
z"/>
<path fill="#3DCEFC" opacity="1.000000" stroke="none" 
	d="
M496.594177,569.726562 
	C500.686737,569.742249 504.350922,569.951721 507.981323,569.690918 
	C511.516510,569.437012 513.140076,570.322510 512.867615,574.280212 
	C512.526611,579.232910 512.697815,584.230042 512.835083,589.202759 
	C512.906433,591.789856 511.910889,592.754883 509.357117,592.716675 
	C504.050629,592.637268 498.737671,592.633240 493.434814,592.815247 
	C490.683746,592.909607 490.059570,591.655212 490.115234,589.229004 
	C490.221680,584.586914 490.454315,579.911438 490.038757,575.303589 
	C489.591217,570.341431 491.330231,568.538879 496.594177,569.726562 
z"/>
<path fill="#3DCEFC" opacity="1.000000" stroke="none" 
	d="
M465.008240,591.581421 
	C464.825012,585.166870 464.891754,579.188416 464.743713,573.215210 
	C464.680695,570.670776 465.491394,569.657288 468.141876,569.725281 
	C473.782959,569.870239 479.431824,569.822144 485.075104,569.719727 
	C487.381134,569.677917 488.357208,570.477173 488.313416,572.868408 
	C488.210052,578.511475 488.266998,584.157837 488.290283,589.802673 
	C488.297180,591.474304 487.977173,592.852844 485.909241,592.754028 
	C478.999359,592.423889 472.034515,593.640747 465.008240,591.581421 
z"/>
<path fill="#40CDFC" opacity="1.000000" stroke="none" 
	d="
M499.127075,538.640869 
	C490.270233,538.583313 491.305267,539.532471 491.246063,531.128174 
	C491.219055,527.297668 491.358398,523.462769 491.216187,519.637451 
	C491.120544,517.064575 492.029449,516.063965 494.665558,516.144165 
	C499.657593,516.295959 504.659241,516.270325 509.653229,516.157715 
	C512.032898,516.104065 512.891174,517.010620 512.840454,519.369812 
	C512.726013,524.697144 512.720459,530.030029 512.827271,535.357544 
	C512.875061,537.741699 511.903503,538.661682 509.596985,538.619507 
	C506.267303,538.558594 502.935272,538.626953 499.127075,538.640869 
z"/>
<path fill="#3DCEFC" opacity="1.000000" stroke="none" 
	d="
M557.879761,569.886902 
	C564.167419,568.949402 570.106506,569.305481 576.051697,569.489624 
	C578.369812,569.561462 579.225525,570.406311 579.165527,572.754333 
	C579.021973,578.376099 579.001160,584.005066 579.112183,589.627563 
	C579.159241,592.012146 578.275452,592.879333 575.939758,592.809998 
	C570.162964,592.638306 564.382202,592.597717 558.346436,592.179810 
	C556.123596,584.670654 556.087708,577.436218 557.879761,569.886902 
z"/>
<path fill="#3DCEFC" opacity="1.000000" stroke="none" 
	d="
M556.328308,591.692993 
	C550.528076,593.518738 544.879272,592.489929 539.276978,592.717529 
	C537.280212,592.798706 536.831726,591.440918 536.840088,589.738831 
	C536.867981,584.079651 536.885254,578.420227 536.862793,572.761047 
	C536.851685,569.953491 538.226746,569.073486 540.935059,569.184509 
	C545.588379,569.375244 550.253845,569.272339 555.353394,569.410522 
	C558.396118,574.809998 556.408508,580.468689 557.071777,585.920837 
	C557.279236,587.625916 557.254089,589.540588 556.328308,591.692993 
z"/>
<path fill="#40CDFC" opacity="1.000000" stroke="none" 
	d="
M553.152710,529.962402 
	C553.137695,539.150635 553.137695,539.150635 544.473267,539.154175 
	C536.225586,539.157471 536.224976,539.157471 536.222351,531.110962 
	C536.220947,526.795776 536.281555,522.479431 536.196960,518.165894 
	C536.155579,516.053162 536.960083,515.047241 539.108643,515.243103 
	C539.273193,515.258057 539.440857,515.251221 539.606323,515.241821 
	C553.190857,514.471741 553.190857,514.471619 553.152710,529.962402 
z"/>
<path fill="#308ED6" opacity="1.000000" stroke="none" 
	d="
M556.420776,592.065552 
	C556.013916,584.867493 555.941528,577.624512 555.830872,569.954956 
	C556.336731,569.503113 556.880859,569.477844 557.827637,569.531372 
	C558.205750,576.751709 558.181335,583.893250 558.123413,591.444946 
	C557.645081,591.910339 557.200195,591.965515 556.420776,592.065552 
z"/>
<path fill="#231C7A" opacity="1.000000" stroke="none" 
	d="
M579.360901,460.995483 
	C578.848816,460.607880 578.706421,460.215759 578.504517,459.516052 
	C578.739258,459.081116 579.036743,458.960785 579.327087,458.825226 
	C580.563232,458.248230 581.406616,456.596710 583.106750,457.361572 
	C583.379211,457.484161 583.646179,458.251831 583.514587,458.534943 
	C582.783142,460.109131 581.543396,461.022736 579.360901,460.995483 
z"/>
<path fill="#231C7A" opacity="1.000000" stroke="none" 
	d="
M507.932526,458.639069 
	C506.605347,459.066345 505.210663,459.133728 503.408020,459.097168 
	C504.204926,455.915375 505.952728,456.536713 507.932526,458.639069 
z"/>
<path fill="#231C7A" opacity="1.000000" stroke="none" 
	d="
M579.280884,491.953888 
	C578.893494,491.244232 578.844177,490.488251 578.899536,489.366119 
	C581.253357,489.536987 581.611389,490.473816 579.280884,491.953888 
z"/>
<path fill="#231C7A" opacity="1.000000" stroke="none" 
	d="
M579.045410,450.394867 
	C579.787598,450.797943 579.793457,451.205322 579.267883,451.566528 
	C579.157654,451.642273 578.901489,451.640289 578.793701,451.562164 
	C578.277100,451.188049 578.296021,450.780823 579.045410,450.394867 
z"/>
</svg>