<svg version="1.1" id="Layer_1" xmlns="http://www.w3.org/2000/svg" xmlns:xlink="http://www.w3.org/1999/xlink" x="0px" y="0px"
	 width="100%" viewBox="0 0 1024 1024" enable-background="new 0 0 1024 1024" xml:space="preserve">
<path fill="#1A0C1F" opacity="1.000000" stroke="none" 
	d="
M945.266602,1024.670654 
	C632.034058,1025.000000 319.068085,1024.991943 6.102171,1025.089355 
	C2.144374,1025.090698 0.866254,1024.611084 0.868176,1020.103149 
	C1.012343,681.973328 1.009896,343.843475 0.884874,5.713629 
	C0.883347,1.583147 1.806503,0.893122 5.785416,0.894467 
	C343.915283,1.008728 682.045166,1.008094 1020.174988,0.900080 
	C1024.071289,0.898836 1025.121704,1.459124 1025.120117,5.674038 
	C1024.989380,339.803558 1025.000000,673.933105 1025.000000,1008.531372 
	C1020.315186,1012.221802 1015.084534,1010.558105 1009.578735,1010.636719 
	C1004.069641,1011.022766 999.032410,1011.026306 993.524719,1010.629272 
	C988.040405,1011.028442 983.023499,1011.020142 977.539978,1010.628723 
	C972.132324,1011.037903 967.186646,1010.974609 961.800049,1010.643188 
	C958.880005,1010.817505 956.393921,1010.806763 953.905884,1010.814331 
	C946.966187,1010.835510 946.980774,1010.851257 946.791138,1017.617493 
	C946.726685,1019.917969 947.007385,1022.298279 945.266602,1024.670654 
z"/>
<path fill="#FFFF66" opacity="1.000000" stroke="none" 
	d="
M945.466858,1025.000000 
	C945.000427,1020.736023 945.159973,1016.463928 944.942932,1012.211060 
	C944.807556,1009.558899 945.718933,1008.817139 948.271729,1008.948608 
	C952.197449,1009.150940 956.140930,1009.009949 960.541687,1009.071838 
	C964.005249,1014.050964 963.377136,1019.121643 961.313110,1024.619141 
	C955.977905,1025.000000 950.955811,1025.000000 945.466858,1025.000000 
z"/>
<path fill="#41CFFE" opacity="1.000000" stroke="none" 
	d="
M961.466858,1025.000000 
	C961.005859,1020.015320 961.011780,1015.030579 961.012085,1009.587463 
	C966.003723,1009.075623 971.000854,1009.022217 976.455811,1009.030884 
	C980.061279,1014.002991 979.374207,1019.094177 977.314575,1024.617676 
	C971.977905,1025.000000 966.955811,1025.000000 961.466858,1025.000000 
z"/>
<path fill="#3C46FF" opacity="1.000000" stroke="none" 
	d="
M1008.689575,1009.551880 
	C1014.045044,1009.134338 1019.055725,1009.067810 1024.533203,1009.000610 
	C1025.000000,1009.328674 1025.000000,1009.657288 1025.000000,1009.985962 
	C1025.000000,1014.915710 1026.940063,1022.023315 1024.491577,1024.204590 
	C1021.656067,1026.730591 1014.961609,1024.925049 1009.471191,1025.000000 
	C1006.010742,1020.087891 1006.650085,1015.018311 1008.689575,1009.551880 
z"/>
<path fill="#51DA4C" opacity="1.000000" stroke="none" 
	d="
M977.466858,1025.000000 
	C976.991699,1020.004395 976.983459,1015.008789 976.944397,1009.553101 
	C981.964172,1009.074890 987.014771,1009.056763 992.526489,1009.111206 
	C996.018250,1014.083313 995.361450,1019.138733 993.312256,1024.619873 
	C987.977905,1025.000000 982.955811,1025.000000 977.466858,1025.000000 
z"/>
<path fill="#FE7457" opacity="1.000000" stroke="none" 
	d="
M993.466858,1025.000000 
	C992.997803,1020.030762 992.995667,1015.061523 992.990601,1009.638062 
	C998.027405,1009.138000 1003.067017,1009.092163 1008.570557,1009.123657 
	C1009.031555,1014.156433 1009.028687,1019.111877 1009.012939,1024.533691 
	C1003.977905,1025.000000 998.955811,1025.000000 993.466858,1025.000000 
z"/>
<path fill="#FDFDFE" opacity="1.000000" stroke="none" 
	d="
M329.358673,312.146912 
	C329.622192,275.249756 329.682251,238.779770 329.734406,202.309769 
	C329.744446,195.294159 329.730103,195.307632 336.945404,195.318100 
	C344.273285,195.328735 351.604156,195.187424 358.927673,195.363342 
	C361.802277,195.432373 362.597534,194.456635 362.544098,191.675552 
	C362.387390,183.517944 362.638733,175.351410 362.421844,167.196579 
	C362.332520,163.839050 363.112091,162.488068 366.765717,162.662033 
	C373.079956,162.962708 379.436584,162.454437 385.741547,162.839905 
	C389.936981,163.096390 390.739960,161.486740 390.596283,157.736282 
	C390.322357,150.584976 390.728699,143.405609 390.393127,136.259476 
	C390.210876,132.377853 391.545044,131.620499 395.180389,131.641220 
	C446.306732,131.932388 497.433929,132.084000 548.560974,132.234772 
	C566.547607,132.287811 584.536560,132.396149 602.519653,132.140564 
	C606.855652,132.078934 607.746216,133.399124 607.531311,137.472275 
	C607.154785,144.610504 607.601562,151.788528 607.395813,158.941025 
	C607.302490,162.181686 608.585022,162.835648 611.501526,162.763153 
	C618.658508,162.585236 625.848755,163.073807 632.975403,162.575943 
	C638.039368,162.222183 639.051636,164.019165 638.852173,168.673599 
	C638.489075,177.150299 638.791870,185.655502 638.888184,194.618469 
	C640.839294,196.870987 640.882629,199.230103 640.899902,201.550858 
	C640.967468,210.658920 640.995239,219.767639 640.885620,228.875397 
	C640.851501,231.711700 640.681885,234.563110 637.638916,236.727417 
	C627.333191,238.495926 617.462036,238.551895 607.184265,236.673904 
	C604.906311,234.143967 605.111145,231.408722 605.087524,228.765579 
	C605.013123,220.436737 605.097717,212.107086 605.045410,203.778046 
	C605.004150,197.205658 604.806274,196.973053 598.346313,196.959381 
	C576.023987,196.912094 553.701538,196.941696 531.379150,196.941223 
	C498.395325,196.940521 465.411499,196.924576 432.427673,196.952286 
	C424.988403,196.958527 424.979340,197.002228 424.945282,204.518311 
	C424.908264,212.680817 425.065826,220.845367 424.879578,229.005432 
	C424.725586,235.750153 422.864044,237.613724 416.204193,237.869064 
	C410.711121,238.079651 405.210022,237.865814 399.713806,237.966339 
	C394.381561,238.063858 393.992218,238.384094 393.973145,243.682526 
	C393.895752,265.171814 393.946716,286.661377 393.941833,308.150818 
	C393.938660,322.143951 393.911102,336.137146 393.955902,350.130188 
	C393.977539,356.886505 394.124634,356.991241 401.065887,357.052948 
	C405.729950,357.094391 410.397705,356.932007 415.057648,357.131622 
	C421.249878,357.396912 422.468842,358.715851 422.640686,365.474945 
	C422.840881,376.422882 423.835022,386.902771 421.716125,397.740173 
	C420.166809,399.366791 418.543701,399.758118 416.886902,399.776794 
	C409.146759,399.864014 401.397858,400.377869 393.229309,399.306763 
	C385.651031,394.565491 377.567841,392.925171 369.349213,391.763550 
	C367.067291,391.440979 364.653656,391.802795 362.395935,389.858215 
	C360.338074,385.160034 361.165588,380.600922 361.121643,376.149536 
	C361.087158,372.660736 359.785248,371.139008 356.301361,370.590973 
	C349.988739,369.597961 343.669495,370.090637 337.355927,369.909851 
	C329.664673,369.689636 328.188843,368.389038 328.125183,360.864197 
	C328.005371,346.708984 328.064697,332.552460 328.106537,318.396576 
	C328.112427,316.405701 328.058319,314.380310 329.358673,312.146912 
z"/>
<path fill="#FEFEFE" opacity="1.000000" stroke="none" 
	d="
M638.670776,428.590393 
	C648.503723,428.258698 657.998230,428.092560 667.481262,428.350525 
	C671.107910,428.449188 671.942993,427.204437 671.832703,423.822937 
	C671.604797,416.838257 671.967468,409.834015 671.730042,402.850006 
	C671.613220,399.415741 672.545776,398.270447 676.123535,398.355408 
	C685.773804,398.584442 695.433899,398.399109 705.551392,398.283569 
	C708.642273,396.783264 711.515625,397.000946 714.309326,397.136993 
	C722.061462,397.514343 729.896973,396.033569 737.964600,398.446472 
	C739.472473,400.102814 739.802795,401.747345 739.815308,403.417725 
	C739.876282,411.559113 740.302307,419.706085 739.476074,428.318451 
	C738.467285,436.044037 739.102722,443.326294 738.896606,450.588898 
	C738.822144,453.211761 739.173584,455.906433 737.504517,458.739685 
	C735.228943,461.066681 732.647034,460.832123 730.177734,460.874725 
	C724.016907,460.980988 717.853271,460.953400 711.692749,460.906586 
	C708.313354,460.880890 706.895813,462.198761 706.908081,465.629181 
	C706.932434,472.456146 707.056824,479.287628 706.841064,486.112061 
	C706.647278,492.240051 705.169739,493.679535 698.964478,493.850800 
	C691.972717,494.043793 684.975525,493.924286 677.981689,493.920685 
	C674.367249,493.918793 672.845642,495.407593 672.922485,499.007111 
	C672.993469,502.332886 672.995239,505.669495 672.856262,508.997437 
	C672.596924,515.206360 671.220276,516.662537 665.093811,516.844849 
	C658.602051,517.037964 652.103577,516.819763 645.609741,516.938171 
	C640.372375,517.033569 639.982483,517.385803 639.943787,522.740967 
	C639.846313,536.230347 639.916565,549.720520 639.904663,563.210388 
	C639.902893,565.198120 640.137695,567.216553 639.241821,569.587524 
	C638.311523,572.465942 638.741150,574.967590 638.731384,577.433716 
	C638.643127,599.618469 638.594910,621.803467 638.597168,644.447510 
	C637.912170,647.270325 635.872986,647.550842 633.873352,647.799194 
	C631.721985,648.066467 629.549988,647.963074 627.386292,647.963196 
	C551.964539,647.966736 476.542755,647.970520 401.120972,647.951477 
	C397.976868,647.950684 394.775604,648.308350 391.325348,646.748657 
	C389.393311,644.928772 389.159058,642.930542 389.143982,640.942688 
	C389.086334,633.335449 388.798615,625.725159 389.331329,617.634155 
	C389.144135,609.395508 388.340302,601.630737 390.135101,593.510132 
	C392.304657,591.052979 394.883301,591.242432 397.346710,591.195312 
	C403.157043,591.084290 408.971344,591.084717 414.780243,591.172852 
	C418.483643,591.229004 420.345520,589.981567 420.174866,585.993225 
	C419.976440,581.354858 420.336975,576.697021 419.753571,571.608093 
	C419.605682,570.535706 419.526978,569.917053 419.331787,568.829529 
	C418.848572,545.111267 419.105591,521.861633 419.098297,498.612579 
	C419.097748,496.947723 419.275391,495.292419 420.258789,493.324860 
	C422.871674,490.807129 425.790802,491.086212 428.575470,491.115936 
	C433.377625,491.167145 438.204956,490.633453 443.457916,491.730042 
	C444.234070,492.029633 444.531158,492.181244 445.193481,492.673096 
	C447.345306,495.897491 446.928314,499.131042 446.931305,502.262634 
	C446.965363,537.565674 446.941620,572.868774 446.958069,608.171875 
	C446.961731,616.009399 446.990845,616.040039 454.619507,616.041931 
	C502.245392,616.054016 549.871277,616.057861 597.497131,616.039124 
	C604.993103,616.036194 605.032959,615.992432 605.039429,608.549438 
	C605.062317,582.238647 605.044006,555.927856 605.054749,529.617065 
	C605.055603,527.455811 604.905640,525.285706 605.331665,522.658936 
	C604.866272,503.088623 605.022461,483.992279 605.171143,464.898407 
	C605.218018,458.880402 606.923645,457.377838 613.063049,457.146973 
	C618.875793,456.928345 624.700073,456.965729 630.511292,457.103760 
	C634.547546,457.199677 636.299133,455.716583 636.093628,451.583374 
	C635.787659,445.430145 637.347229,439.361389 637.181763,433.194611 
	C637.141541,431.697296 637.435181,430.210724 638.670776,428.590393 
z"/>
<path fill="#D2D3D1" opacity="1.000000" stroke="none" 
	d="
M636.794312,235.967667 
	C639.145569,234.592621 638.964844,232.726273 638.958496,230.876801 
	C638.918518,219.255264 638.907715,207.633621 638.923401,195.550079 
	C648.280396,195.087967 657.603760,195.211975 666.920898,195.023712 
	C670.421875,194.952957 671.922729,195.719727 671.900879,199.665192 
	C671.595886,254.759583 671.421570,309.854797 671.317505,364.950012 
	C671.311646,368.029022 670.392029,368.921875 667.351501,368.857635 
	C659.032898,368.681885 650.703674,368.979553 642.386719,368.769958 
	C639.043213,368.685669 638.183472,369.764496 638.297180,373.004639 
	C638.542175,379.986755 638.125366,386.994537 638.441956,393.970795 
	C638.618774,397.867981 637.228088,398.734955 633.610107,398.610443 
	C626.128784,398.352905 618.629883,398.648071 611.142700,398.495728 
	C608.298401,398.437836 607.390503,399.416595 607.460754,402.219513 
	C607.669312,410.538361 607.655029,418.862793 607.816284,427.654510 
	C607.232361,431.035950 604.710083,430.758911 602.725769,430.788330 
	C592.268494,430.943390 581.807068,431.171753 570.877197,430.639526 
	C566.339172,430.978699 562.268494,430.891205 557.733032,430.675629 
	C556.642212,430.537598 556.014282,430.515411 554.913086,430.583374 
	C538.499268,431.211060 522.554321,430.892212 506.141266,430.726807 
	C504.107941,430.422729 502.531952,430.521271 500.486664,430.487762 
	C499.375580,430.487732 498.738556,430.498444 497.619202,430.563599 
	C463.128601,431.324097 429.118164,430.907196 395.108459,430.811615 
	C393.941925,430.808350 392.809296,430.499939 391.316895,429.740784 
	C390.034332,428.624664 389.485077,427.559631 389.437744,426.394806 
	C389.069366,417.327179 388.336060,408.249786 390.134766,398.782166 
	C390.653198,398.143127 390.913910,397.934113 391.666016,397.823853 
	C401.558350,397.906006 410.959320,397.889435 420.848358,397.832153 
	C423.858826,395.533264 426.985260,396.098358 429.918152,396.095428 
	C476.547668,396.048950 523.177246,396.076202 569.806763,396.057739 
	C580.810974,396.053375 580.014160,396.764130 580.063599,385.705627 
	C580.096375,378.378357 579.909241,371.047760 580.145691,363.724609 
	C580.352539,357.315582 582.260498,355.456482 588.617920,355.139313 
	C592.609985,354.940186 596.618225,354.925751 600.604736,355.085083 
	C604.769165,355.251495 606.144470,353.431274 606.098816,349.421539 
	C605.983154,339.265015 606.005676,329.104797 606.083130,318.946655 
	C606.148132,310.416626 607.402954,309.196381 615.986267,309.080200 
	C620.482178,309.019348 624.985535,308.922607 629.473328,309.089813 
	C633.515442,309.240356 635.161438,307.710083 635.097473,303.571594 
	C634.961060,294.748474 635.367493,285.906250 634.988098,277.097076 
	C634.442810,264.434753 636.621521,251.848862 635.701660,239.196060 
	C635.628601,238.191040 635.930054,237.216629 636.794312,235.967667 
z"/>
<path fill="#FE7457" opacity="1.000000" stroke="none" 
	d="
M329.124634,311.715271 
	C329.761566,328.689056 330.155731,345.659851 330.027557,362.626678 
	C329.991821,367.356689 331.440857,368.508514 335.908478,368.364624 
	C343.551880,368.118469 351.216980,368.638947 358.870819,368.576691 
	C361.973602,368.551453 362.921906,369.693817 362.831177,372.671844 
	C362.663879,378.160858 362.798828,383.659058 362.872437,389.624512 
	C364.959686,392.191895 364.852844,394.692322 364.155579,397.733673 
	C363.853577,398.465942 363.695923,398.741943 363.191345,399.342407 
	C357.386627,401.896515 351.667847,400.744781 346.074707,400.820709 
	C332.895599,400.999725 332.752472,400.870605 332.040802,414.127533 
	C331.398499,426.091827 333.602783,438.013031 332.887665,449.996887 
	C332.720123,452.804108 333.115662,455.671295 331.589905,458.719696 
	C329.276825,460.933594 326.722839,460.800049 324.250732,460.836212 
	C317.943390,460.928558 311.633972,460.793854 305.326904,460.898895 
	C299.267883,460.999756 299.013855,461.314240 298.878204,467.541626 
	C298.711975,475.172455 299.190094,482.811310 298.474121,490.871277 
	C298.267456,491.588348 298.177185,491.870697 297.870026,492.536713 
	C296.861389,493.864594 295.766418,494.410065 294.619781,494.393433 
	C285.434906,494.260040 276.237823,494.460388 266.801880,493.218842 
	C266.435699,474.599487 266.299866,456.299957 266.264862,438.000214 
	C266.213623,411.204712 266.319122,384.408478 266.133545,357.614105 
	C266.105774,353.608276 267.298584,352.487640 271.186035,352.656494 
	C278.163483,352.959595 285.177765,352.488098 292.147430,352.871246 
	C296.492737,353.110138 297.399597,351.519867 297.303894,347.508942 
	C297.053894,337.030151 297.374298,326.538544 297.189087,316.056976 
	C297.127075,312.548737 298.254059,311.484192 301.725769,311.574585 
	C310.707062,311.808380 319.697571,311.689087 329.124634,311.715271 
z"/>
<path fill="#241E7B" opacity="1.000000" stroke="none" 
	d="
M390.620544,645.737915 
	C409.779999,646.305847 428.564697,646.206909 447.359955,645.873718 
	C471.491852,645.445801 495.636627,645.727478 519.775879,645.736755 
	C557.399780,645.751282 595.023743,645.802063 632.647644,645.799072 
	C634.441589,645.798889 636.303345,646.252258 638.350586,645.143555 
	C638.698425,655.435303 638.737366,665.963989 638.693542,676.984680 
	C636.451050,679.125122 633.899048,678.803894 631.442444,678.853210 
	C623.665466,679.009155 615.881531,678.611084 607.655579,679.214600 
	C592.201965,678.914368 577.211731,680.610535 561.770813,679.439758 
	C557.044373,678.557190 552.710693,678.734314 547.942139,678.822083 
	C546.589600,678.789734 545.725403,679.011536 544.416016,679.412598 
	C525.253906,680.270020 506.545837,680.035706 487.348389,679.653076 
	C484.883148,679.934937 482.895081,679.975891 480.899811,679.975098 
	C444.698547,679.961060 408.497253,679.981018 372.296021,679.945312 
	C369.347076,679.942383 366.274872,680.409851 363.205017,678.246155 
	C361.271301,667.890137 362.476044,657.773071 362.170593,647.202820 
	C363.238525,645.514038 364.687256,645.000977 366.161499,644.855896 
	C374.209869,644.063599 382.277405,642.984375 390.620544,645.737915 
z"/>
<path fill="#FDFDFE" opacity="1.000000" stroke="none" 
	d="
M239.759033,592.466553 
	C239.772232,586.535583 240.396179,581.042297 239.929855,575.643188 
	C239.556717,571.323120 241.153427,570.726562 244.796188,570.859619 
	C250.582779,571.070923 256.392975,570.649536 262.178375,570.875488 
	C265.581451,571.008362 266.774353,570.071777 266.686218,566.502380 
	C266.469696,557.732361 266.677704,548.951904 266.789978,539.730103 
	C268.569305,536.847961 271.212128,537.225159 273.621277,537.162598 
	C279.398254,537.012817 285.183014,537.007751 290.957672,537.135620 
	C294.842651,537.221741 296.117340,535.605591 296.169067,531.832031 
	C296.243225,526.423218 295.286865,520.927124 297.311462,515.218933 
	C299.632721,513.018860 302.193909,513.203125 304.665955,513.158508 
	C310.648651,513.050415 316.633209,513.123840 322.616791,513.102966 
	C325.769562,513.091980 326.998016,511.764984 327.127350,508.617035 
	C327.344452,503.331573 326.359039,497.967987 328.250763,492.360535 
	C328.931183,491.497040 329.442444,491.142517 330.478516,490.773560 
	C338.030212,489.555359 345.176849,490.288696 352.300781,490.149933 
	C360.076904,489.998505 360.086914,490.086151 360.121429,482.508545 
	C360.147156,476.864777 360.093964,471.220703 360.149292,465.577057 
	C360.168823,463.584290 360.204315,461.585724 361.291809,459.302399 
	C361.791840,458.679199 362.037842,458.466125 362.725830,458.037170 
	C371.237823,456.339233 379.361511,457.078308 387.463776,457.320282 
	C390.520111,457.411591 392.257263,459.283051 392.684082,462.346344 
	C392.960236,464.328308 392.949280,466.317322 392.950745,468.307251 
	C392.960754,482.078674 392.939423,495.850098 392.962463,509.621490 
	C392.972443,515.586609 392.882233,521.539368 393.686737,527.497681 
	C394.214050,531.403198 394.480133,535.446106 392.726044,539.722168 
	C390.687988,541.752136 388.518585,541.753113 386.346039,541.569580 
	C370.421967,540.224609 354.469788,541.193237 338.532166,540.996277 
	C333.477905,540.933777 333.014191,541.530945 332.972656,546.896667 
	C332.874969,559.523743 332.996674,572.151672 332.917267,584.778809 
	C332.861572,593.636047 331.623352,594.921997 322.815735,594.904236 
	C314.513824,594.887573 306.206146,595.260071 297.422272,594.656799 
	C279.573303,595.303345 262.206451,594.903381 244.841400,594.829468 
	C243.017838,594.821716 241.194809,594.491943 239.759033,592.466553 
z"/>
<path fill="#41CEFC" opacity="1.000000" stroke="none" 
	d="
M198.764038,710.387207 
	C198.355072,686.256836 198.278259,662.477539 198.221085,638.698181 
	C198.204681,631.878601 198.245087,625.058838 198.284607,617.793396 
	C199.569916,615.416748 201.598083,615.155090 203.592407,615.148315 
	C233.485367,615.047302 263.378601,614.885742 293.271179,615.219971 
	C293.933044,615.227356 294.584534,615.409668 295.697083,615.758057 
	C296.453430,616.109741 296.740692,616.282104 297.364441,616.827759 
	C299.693909,626.302368 299.460541,635.417236 297.573792,644.939270 
	C295.621674,646.685913 293.617645,646.798828 291.618256,646.887573 
	C289.458740,646.983459 287.283173,646.785522 285.137970,646.973999 
	C280.083099,647.418213 273.781860,644.730591 270.269409,648.423706 
	C266.816833,652.053833 269.096497,658.303162 269.007172,663.385803 
	C268.805573,674.853455 268.946381,686.327087 268.943176,697.798279 
	C268.939240,711.835815 268.833801,711.942017 254.766388,711.942932 
	C238.806473,711.943970 222.846527,711.962646 206.886673,711.926025 
	C204.246552,711.919983 201.537827,712.175964 198.764038,710.387207 
z"/>
<path fill="#40CDFC" opacity="1.000000" stroke="none" 
	d="
M737.821228,283.345551 
	C743.921082,281.269287 749.848999,282.562531 755.706909,282.254547 
	C759.479370,282.056244 763.272034,282.244446 767.512268,282.358215 
	C770.741394,284.039032 770.763367,286.794189 770.855347,289.451508 
	C771.033691,294.603149 770.941284,299.760040 770.935974,304.913635 
	C770.932190,308.511017 772.230103,309.889221 776.062256,309.576355 
	C788.680115,308.546143 789.910156,309.786438 789.915894,322.359436 
	C789.926147,344.806671 789.955017,367.253967 789.900574,389.701111 
	C789.878845,398.662476 788.680542,399.862213 779.901794,399.894806 
	C775.916992,399.909607 771.921997,400.175842 767.463501,399.648987 
	C757.600525,399.781952 748.193481,400.910889 738.468018,398.631165 
	C736.055542,396.621918 736.219849,394.197174 736.156250,391.892822 
	C736.013733,386.728546 736.085083,381.560242 736.093872,376.394836 
	C736.099243,373.226898 734.792847,371.897675 731.611572,371.902924 
	C725.612549,371.912842 719.612061,371.955109 713.613159,371.864990 
	C711.298218,371.830231 708.910339,372.018372 706.590393,370.132141 
	C706.405945,350.459808 706.525146,331.134338 706.823364,311.448120 
	C708.951416,309.089935 711.493591,309.168335 713.982361,309.133728 
	C719.793274,309.052979 725.606262,309.059021 731.416016,309.108521 
	C734.847046,309.137726 736.155762,307.681732 736.110962,304.326080 
	C736.046631,299.513367 736.048828,294.695770 736.138489,289.881409 
	C736.178467,287.735107 736.072876,285.532196 737.821228,283.345551 
z"/>
<path fill="#FEFEFE" opacity="1.000000" stroke="none" 
	d="
M362.758423,678.419250 
	C398.576416,677.887268 434.348694,677.824280 470.120972,677.766846 
	C475.445648,677.758301 480.770386,677.775818 486.559021,677.863892 
	C488.211182,679.224548 488.740967,680.779114 488.784180,682.481506 
	C488.973480,689.939026 489.065063,697.398560 488.733551,704.853760 
	C488.565033,708.643188 486.411194,710.498352 482.699585,710.753906 
	C478.559448,711.038818 474.413300,710.881958 470.270599,710.973450 
	C466.592865,711.054749 464.847534,712.657776 464.911072,716.469910 
	C464.991150,721.274353 464.959534,726.084656 464.893066,730.891907 
	C464.861023,733.208313 464.931427,735.552063 463.459961,738.070679 
	C460.979370,740.038330 458.439270,739.940430 455.952911,739.943604 
	C427.491577,739.979736 399.030212,739.976868 370.568878,739.945129 
	C368.249207,739.942566 365.879120,740.041321 363.457214,738.274780 
	C362.961914,718.255371 362.837311,698.572693 362.758423,678.419250 
z"/>
<path fill="#D2D3D3" opacity="1.000000" stroke="none" 
	d="
M296.432678,593.582153 
	C306.565765,593.143799 316.394196,592.934692 326.215302,593.118896 
	C329.971039,593.189270 331.083618,591.969727 331.039856,588.263245 
	C330.864868,573.438599 331.082581,558.609375 330.901550,543.784912 
	C330.855560,540.020569 332.086182,538.935913 335.776306,538.980469 
	C350.767517,539.161621 365.762421,539.013855 380.755249,539.104431 
	C384.058899,539.124390 387.359619,539.622803 391.072968,539.928894 
	C394.128662,541.225525 393.723816,543.764709 393.802612,545.956055 
	C394.003204,551.531616 393.848297,557.114685 393.888702,562.694641 
	C393.906616,565.163940 393.985504,567.620972 395.085602,570.411743 
	C395.327454,573.313477 395.168945,575.543945 391.487488,575.576050 
	C388.844604,572.583801 385.950592,571.607361 382.367493,571.794434 
	C377.889465,572.028320 373.393005,571.806641 368.903503,571.904114 
	C366.232971,571.962219 364.959351,573.148193 364.926483,575.846252 
	C364.782745,587.650269 364.805481,599.453674 364.913208,611.257751 
	C364.938538,614.038208 366.366211,615.038757 368.968872,615.097229 
	C373.790771,615.205383 378.612427,615.088379 383.432831,615.178040 
	C385.740967,615.220947 388.116302,614.955688 390.562286,616.554871 
	C390.941711,626.253235 390.981628,635.678894 391.004944,645.576172 
	C381.661591,646.229858 372.334839,646.411743 362.597778,646.655273 
	C352.054138,645.783020 341.894318,646.567200 331.270508,646.272949 
	C330.493866,646.345520 330.198303,646.392639 329.472382,646.305054 
	C328.553467,645.799255 328.176788,645.336975 327.756104,644.359253 
	C326.666138,637.653503 327.333649,631.333008 327.144104,625.033203 
	C326.968811,619.207947 326.785828,618.956848 320.816986,618.876099 
	C315.169769,618.799683 309.520996,618.901123 303.873566,618.830078 
	C301.727905,618.803162 299.522705,618.928284 297.316956,617.222900 
	C296.972107,616.938293 296.979248,617.016418 297.018433,617.015503 
	C295.690094,615.646606 295.140076,613.917725 295.192444,612.066528 
	C295.363251,606.027588 294.126129,599.912048 296.432678,593.582153 
z"/>
<path fill="#D2D3D3" opacity="1.000000" stroke="none" 
	d="
M462.632080,738.495239 
	C462.988129,730.512207 463.331268,722.874512 462.939880,715.274658 
	C462.692261,710.466370 464.904602,709.120422 468.985535,709.101074 
	C473.459473,709.079956 477.946869,708.868835 482.403534,709.143738 
	C486.222229,709.379272 487.232513,707.857117 487.136780,704.241577 
	C486.913147,695.796387 487.058624,687.341492 487.038788,678.418457 
	C506.130554,677.877502 525.238220,677.808472 544.747253,678.024231 
	C545.535889,678.189392 545.932007,678.123230 546.637573,678.147217 
	C551.321045,676.665344 555.840759,677.754272 560.668823,677.635864 
	C562.842285,679.838379 562.849670,682.353760 562.876587,684.858887 
	C562.939148,690.679382 562.934204,696.501221 562.901123,702.320679 
	C562.881775,705.719910 564.297119,707.125549 567.671692,707.092651 
	C570.990967,707.060242 574.328064,706.932068 577.639282,707.350525 
	C580.760925,707.744995 583.512634,709.229309 583.221069,712.573303 
	C582.500488,720.836426 583.901184,729.199890 581.691650,737.776855 
	C575.579712,741.278625 569.355530,739.543152 562.865234,739.477783 
	C558.979431,738.237000 558.809509,735.584534 559.232971,732.534180 
	C559.444641,731.009460 560.564941,728.930786 558.536377,728.079651 
	C556.199280,727.099060 555.378052,729.252380 554.700623,730.936890 
	C553.517273,733.879700 551.031860,734.562012 548.294922,734.854797 
	C546.954468,734.998169 545.484863,735.057983 544.784546,733.631226 
	C544.066162,732.167603 545.110596,731.158325 546.079468,730.197693 
	C546.750671,729.532166 547.810669,729.174561 547.901001,728.011414 
	C541.980286,728.738708 540.626526,731.131226 543.381653,735.986023 
	C544.541931,738.030518 546.548828,739.391357 547.763977,741.394348 
	C548.564148,742.713501 549.265137,744.116089 548.359802,745.587769 
	C547.369934,747.196777 545.687256,746.954712 544.340881,746.348999 
	C541.940369,745.269226 539.402649,746.064941 536.747437,745.232300 
	C536.407654,734.519043 536.172791,724.047791 536.311401,713.581482 
	C536.357666,710.090210 535.349976,708.930786 531.847534,709.137878 
	C527.041077,709.422180 522.199097,709.365479 517.384949,709.159729 
	C514.516602,709.037109 513.636292,710.028503 513.702393,712.848694 
	C513.866089,719.829895 513.583923,726.823425 513.823547,733.800232 
	C513.940491,737.203064 513.048950,738.515259 509.444122,738.331909 
	C503.804260,738.045044 498.119019,738.551147 492.490692,738.168030 
	C488.297302,737.882446 487.495117,739.557861 487.661621,743.279663 
	C487.936340,749.421204 487.454926,755.602356 487.850555,761.730774 
	C488.133209,766.109131 486.461426,767.024780 482.477203,766.849304 
	C476.342468,766.579041 470.182251,766.886047 463.585327,767.066284 
	C462.885529,766.976196 462.633270,766.767944 462.132904,766.136719 
	C460.851898,756.742798 460.158325,747.777283 462.632080,738.495239 
z"/>
<path fill="#02D7FC" opacity="1.000000" stroke="none" 
	d="
M486.804474,883.563354 
	C494.999939,884.761719 502.823761,883.862610 510.639984,883.838074 
	C514.066956,883.827271 514.888977,884.940308 514.824951,888.115051 
	C514.653748,896.608398 514.664978,905.109192 514.817322,913.603210 
	C514.867920,916.422668 514.007751,917.321594 511.140808,917.315308 
	C472.489044,917.230652 433.836853,917.205688 395.185333,917.332458 
	C391.592712,917.344238 391.132233,915.873108 391.172333,912.901489 
	C391.286926,904.406860 391.031769,895.905823 391.223724,887.414185 
	C391.297455,884.153076 390.364868,883.058716 387.038788,883.173767 
	C380.216217,883.409668 373.375854,883.107483 366.550751,883.303040 
	C363.383881,883.393738 362.105743,882.545654 362.180603,879.145020 
	C362.426239,867.987549 362.390991,856.823975 362.618408,845.201660 
	C363.380646,844.155518 364.081329,843.626160 364.912994,843.575500 
	C373.459351,843.055542 382.015991,842.240906 390.909119,844.406006 
	C392.692017,846.330933 392.872345,848.345459 392.849213,850.338379 
	C392.756531,858.322021 393.277252,866.269531 393.853485,874.227844 
	C394.340271,880.950500 394.168213,881.049866 401.122375,881.062256 
	C426.227478,881.107117 451.332764,881.045654 476.437805,881.108582 
	C479.888641,881.117188 483.492157,880.739380 486.804474,883.563354 
z"/>
<path fill="#02D7FC" opacity="1.000000" stroke="none" 
	d="
M328.349487,644.708130 
	C328.870331,645.277588 329.046356,645.499451 329.325928,645.909912 
	C329.696472,646.126404 329.946014,646.168213 330.021240,646.547241 
	C329.814362,655.879272 329.683533,664.875549 329.803772,673.868408 
	C329.844727,676.930786 329.332458,678.235718 325.725006,678.064514 
	C317.748352,677.685852 309.737030,678.089966 301.750946,677.831604 
	C298.370422,677.722290 297.045929,678.479980 297.169250,682.135010 
	C297.433228,689.958923 297.125336,697.800903 297.315125,705.629150 
	C297.388489,708.654541 296.538147,709.739380 293.401154,709.657898 
	C286.240387,709.471802 279.065033,709.807556 271.906769,709.580261 
	C268.536621,709.473206 267.683136,710.657471 267.785248,713.839844 
	C268.004242,720.665771 267.725922,727.507629 267.939453,734.333862 
	C268.031219,737.267334 267.421143,738.407715 264.175354,738.383667 
	C243.511597,738.230347 222.845612,738.204285 202.182068,738.362610 
	C198.610611,738.389893 198.100891,736.942749 198.161865,733.942810 
	C198.317612,726.280029 198.221817,718.612122 198.325531,710.491211 
	C219.371155,710.029846 240.319672,709.875793 261.263245,710.129822 
	C265.998108,710.187195 267.099152,708.654053 267.046265,704.193481 
	C266.841431,686.906921 267.004364,669.615967 267.028229,652.326660 
	C267.038269,645.047913 267.035858,645.058167 274.545441,645.025269 
	C281.858948,644.993225 289.172333,644.937134 296.979309,644.818359 
	C297.856476,644.437988 298.177399,643.965271 298.676575,643.909973 
	C308.475586,642.824585 318.272125,642.088440 328.349487,644.708130 
z"/>
<path fill="#FEFEFE" opacity="1.000000" stroke="none" 
	d="
M561.444092,817.298096 
	C561.018616,800.962036 560.954224,784.947388 560.958862,768.468750 
	C561.348755,767.471619 561.511047,766.893311 561.788025,765.885376 
	C562.316101,765.319336 562.577820,765.139648 563.283447,764.773315 
	C566.172852,763.921631 568.679749,764.061462 571.168762,764.060120 
	C601.606445,764.043457 632.044067,764.034851 662.481750,764.074341 
	C665.429260,764.078186 668.518982,763.590149 671.442383,765.973145 
	C671.734497,775.571838 671.729126,784.779419 671.625000,794.439026 
	C669.687622,797.140015 667.066650,796.842651 664.624146,796.892273 
	C658.147583,797.024231 651.665588,797.033752 645.191223,796.912781 
	C641.300842,796.840149 639.757141,798.450562 639.934998,802.250427 
	C640.059021,804.899109 639.989624,807.565186 639.900879,810.221375 
	C639.666504,817.233643 638.256592,818.753723 631.330078,818.880798 
	C622.029968,819.051514 612.726562,818.929199 603.424561,818.934631 
	C591.963135,818.941284 580.501587,818.964844 569.040283,818.915649 
	C566.568665,818.905029 564.023560,819.124084 561.444092,817.298096 
z"/>
<path fill="#02D7FC" opacity="1.000000" stroke="none" 
	d="
M766.638916,398.526245 
	C772.618896,398.111359 778.273804,397.916473 783.921814,398.038879 
	C786.943848,398.104340 787.995422,397.043732 787.987427,394.005524 
	C787.918823,367.899475 787.931274,341.792999 788.024353,315.687012 
	C788.036682,312.231445 786.710083,310.791992 783.296936,311.042267 
	C780.659607,311.235565 778.036926,311.031891 775.376282,311.616364 
	C770.251343,312.742157 769.067017,311.674225 769.034607,306.527008 
	C768.997925,300.707367 769.023132,294.887268 769.038513,289.067413 
	C769.043762,287.067963 769.101196,285.068451 768.065430,282.835449 
	C776.788025,282.373505 785.608948,282.365509 794.425293,282.161407 
	C797.142944,282.098480 797.831726,283.215210 797.790894,285.710602 
	C797.679199,292.536652 798.047058,299.382385 797.656250,306.187683 
	C797.406372,310.538910 798.956116,311.558044 802.979309,311.279266 
	C807.784241,310.946350 812.635986,311.356476 817.460449,311.210907 
	C820.115173,311.130829 820.872925,312.154510 820.878174,314.701508 
	C820.933411,341.510010 821.044434,368.318573 821.255371,395.126221 
	C821.277710,397.970673 820.038452,398.375549 817.662537,398.320374 
	C812.336304,398.196655 806.995789,398.473785 801.679504,398.212555 
	C798.237793,398.043396 797.021423,399.043182 797.145264,402.634216 
	C797.409119,410.285736 797.117432,417.954987 797.285461,425.611908 
	C797.347473,428.437439 796.466675,429.339478 793.623962,429.287445 
	C785.300354,429.135071 776.971680,429.255707 768.159424,429.328613 
	C767.365356,429.287384 767.056885,429.186859 766.436401,428.712372 
	C764.616455,418.508392 764.244202,408.685638 766.638916,398.526245 
z"/>
<path fill="#02D7FC" opacity="1.000000" stroke="none" 
	d="
M705.219971,883.800171 
	C705.600281,894.147644 705.602295,904.137512 705.814514,914.122803 
	C705.872437,916.852173 704.796387,917.485962 702.306580,917.477661 
	C681.985535,917.409607 661.663818,917.389771 641.343079,917.494751 
	C638.467407,917.509583 637.648743,916.571960 637.697266,913.770447 
	C637.844177,905.277832 637.531372,896.774048 637.811890,888.288330 
	C637.939148,884.438477 636.664795,883.594971 632.997375,883.623108 
	C610.677612,883.794128 588.354980,883.613708 566.035522,883.802917 
	C562.049805,883.836731 560.513184,883.034241 560.640747,878.697021 
	C560.963867,867.712158 560.779297,856.712341 560.898438,845.244263 
	C562.324097,843.652283 563.895508,843.168884 565.587036,843.150879 
	C577.821777,843.020569 590.057007,842.896179 602.290649,843.221680 
	C603.283203,843.248108 604.247681,843.534424 605.582764,844.185852 
	C608.411621,847.074890 607.815857,850.371399 607.871704,853.477112 
	C608.081238,865.134277 606.622314,863.993164 618.775330,864.098877 
	C622.940796,864.135132 627.109253,863.997253 631.271545,864.162659 
	C637.783630,864.421387 639.698730,866.177246 639.816162,872.573242 
	C639.982422,881.625427 639.041992,882.110962 649.679321,882.104614 
	C665.509094,882.095215 681.338928,882.078613 697.168579,882.122559 
	C699.808899,882.129883 702.536499,881.835510 705.219971,883.800171 
z"/>
<path fill="#D2D3D3" opacity="1.000000" stroke="none" 
	d="
M639.575684,570.105957 
	C637.501831,568.564087 638.115479,566.611816 638.109192,564.854736 
	C638.056091,550.033813 638.195251,535.210876 637.979858,520.392822 
	C637.921326,516.364502 638.917908,514.764893 643.219482,514.959167 
	C650.531921,515.289246 657.888428,514.735046 665.190857,515.161804 
	C670.230286,515.456360 671.563660,513.558716 671.155884,508.895569 
	C670.794617,504.764374 671.191223,500.572662 671.062012,496.413605 
	C670.961487,493.177856 672.351013,491.975250 675.536194,492.021729 
	C683.860962,492.143188 692.191711,491.940765 700.513428,492.141388 
	C703.978394,492.224976 705.215088,491.103912 705.123169,487.580475 
	C704.914734,479.592529 705.192444,471.591980 704.991455,463.603638 
	C704.904785,460.158356 705.967773,458.908752 709.521362,458.993011 
	C718.342346,459.202179 727.171631,459.055817 736.459961,459.011810 
	C737.129211,458.852509 737.335999,458.733673 737.829224,458.829468 
	C738.028381,468.666840 737.819214,478.290924 737.919800,487.911743 
	C737.955383,491.316559 736.965576,492.513397 733.425232,492.382904 
	C725.951355,492.107483 718.440857,492.610352 710.984253,492.155823 
	C706.106445,491.858521 705.238464,493.728058 705.340210,498.088379 
	C705.615540,509.889526 705.236389,521.706665 705.551575,533.505859 
	C705.666687,537.815552 704.241211,538.777954 700.224976,538.618958 
	C692.587402,538.316406 684.909241,538.882812 677.285706,538.438965 
	C672.417419,538.155701 671.533081,540.028320 671.732056,544.332520 
	C672.062012,551.468628 671.686890,558.635071 671.912659,565.779175 
	C672.020447,569.190613 671.036194,570.398254 667.469910,570.299500 
	C658.329956,570.046326 649.178955,570.189819 639.575684,570.105957 
z"/>
<path fill="#FEFEFE" opacity="1.000000" stroke="none" 
	d="
M581.288940,737.964722 
	C581.402466,729.437744 580.321533,721.315247 581.814758,713.253418 
	C582.355042,710.336060 580.901428,708.967224 577.892944,709.033752 
	C573.754272,709.125488 569.602295,708.876770 565.474121,709.104187 
	C562.038208,709.293457 560.789429,708.106812 560.877014,704.588196 
	C561.091370,695.980469 560.971741,687.364319 561.017456,678.269714 
	C576.091736,677.713806 591.135193,677.639832 606.578369,677.662109 
	C609.001587,679.509216 608.803101,681.938110 608.852905,684.233582 
	C608.971924,689.722961 608.845459,695.215210 608.913879,700.705505 
	C608.990479,706.852844 609.169617,707.025330 615.502747,707.089539 
	C620.826843,707.143494 626.151978,707.061340 631.476013,707.125244 
	C633.789551,707.153015 636.166748,706.978394 638.561157,708.735291 
	C648.667908,709.134705 658.432434,709.370605 668.191772,709.235046 
	C671.518738,709.188782 672.419922,710.230957 672.336670,713.453796 
	C672.131592,721.395874 672.280212,729.347046 672.172424,737.766479 
	C669.967529,739.962708 667.450195,739.950378 664.950806,739.952881 
	C639.529297,739.978821 614.107788,739.982544 588.686279,739.945190 
	C586.210205,739.941528 583.662170,740.090088 581.288940,737.964722 
z"/>
<path fill="#D0D1D1" opacity="1.000000" stroke="none" 
	d="
M606.368103,845.352600 
	C591.297668,844.948975 576.617004,844.855957 561.467590,844.766541 
	C560.953857,835.811707 560.908936,826.853271 560.973511,817.435791 
	C585.003784,817.001892 608.925293,816.936707 632.844604,817.137573 
	C637.036377,817.172729 638.449646,815.843079 638.134827,811.737915 
	C637.830872,807.774292 638.266479,803.756165 638.007080,799.786255 
	C637.769348,796.148132 638.929260,794.790710 642.746704,794.885254 
	C652.042480,795.115723 661.348389,794.937073 671.088196,794.907043 
	C671.597107,811.248474 671.668030,827.606018 671.688110,844.421692 
	C669.962036,846.979736 667.537903,846.894165 665.247925,846.905884 
	C647.664856,846.995667 630.081360,846.974243 612.498108,846.923767 
	C610.510376,846.918030 608.497681,846.870789 606.368103,845.352600 
z"/>
<path fill="#41CFFE" opacity="1.000000" stroke="none" 
	d="
M487.222107,883.393372 
	C470.578430,882.167114 453.924896,883.288635 437.294556,883.059021 
	C423.634338,882.870300 409.968750,882.949829 396.307068,883.076172 
	C393.136230,883.105530 391.897095,882.185974 391.890778,878.841248 
	C391.870026,867.872375 390.537476,856.932922 391.011292,845.476929 
	C392.438660,843.287048 394.475861,843.134644 396.458038,843.129883 
	C411.554565,843.093323 426.652252,842.814636 442.231934,843.314819 
	C449.155273,843.327515 455.652863,842.055298 462.317261,844.643677 
	C469.330078,846.737610 476.125824,845.559326 482.858337,845.661316 
	C486.293152,845.713379 487.384888,846.559448 487.314270,850.095154 
	C487.095734,861.038818 487.249786,871.989929 487.222107,883.393372 
z"/>
<path fill="#FEFEFE" opacity="1.000000" stroke="none" 
	d="
M462.655151,765.903809 
	C463.008728,766.259399 462.898102,766.746399 463.017944,766.965393 
	C463.173981,775.471802 463.102875,783.761902 463.307129,792.045166 
	C463.374542,794.778809 462.371704,795.399109 459.874695,795.310974 
	C455.404633,795.153198 450.924133,795.290588 446.019135,795.342529 
	C443.033630,796.865356 440.217255,796.929504 437.373352,796.931274 
	C424.894501,796.938965 412.415375,796.873596 399.936890,796.960876 
	C394.359711,796.999878 394.080780,797.355164 393.948059,802.966248 
	C393.869385,806.291565 394.075378,809.624329 393.726196,812.942017 
	C393.445587,815.608154 392.509491,818.183289 389.541901,818.374939 
	C380.806274,818.938721 372.017517,820.120483 363.052155,817.241150 
	C362.752075,800.254883 362.759827,783.638672 362.900604,766.578247 
	C364.946381,764.108398 367.471436,764.062988 369.971344,764.059265 
	C398.693848,764.016724 427.416351,764.012146 456.138824,764.064209 
	C458.291168,764.068115 460.485321,764.069092 462.655151,765.903809 
z"/>
<path fill="#D2D3D3" opacity="1.000000" stroke="none" 
	d="
M362.619629,817.332092 
	C371.232697,816.942505 379.722351,816.950134 388.208710,817.121216 
	C391.032684,817.178162 392.059540,816.049011 391.985840,813.288635 
	C391.861511,808.629456 392.100616,803.958557 391.909821,799.303955 
	C391.779663,796.128601 392.790436,794.864807 396.139740,794.906067 
	C412.288849,795.105286 428.440338,795.108643 445.090637,795.280945 
	C445.524231,802.246765 445.458191,809.113037 445.294739,816.432190 
	C444.675110,823.636597 444.882721,830.401489 444.815063,837.161621 
	C444.792084,839.457825 444.974457,841.802185 443.444855,844.246338 
	C426.060028,844.679443 408.994720,844.787048 391.463409,844.951782 
	C381.867432,844.931091 372.737427,844.853210 363.190247,844.757935 
	C362.680389,835.758057 362.587646,826.775513 362.619629,817.332092 
z"/>
<path fill="#3DCEFD" opacity="1.000000" stroke="none" 
	d="
M605.979370,845.507324 
	C627.569397,844.978394 649.160461,844.914917 671.194458,844.865601 
	C681.376770,846.110413 691.161011,845.347107 700.919250,845.370117 
	C704.806335,845.379272 706.011780,846.372986 705.904297,850.346863 
	C705.608154,861.294861 705.763611,872.255066 705.629761,883.684998 
	C685.424011,884.109924 665.328918,884.064636 645.233887,884.008362 
	C638.242371,883.988770 638.017212,883.722778 637.963257,876.669617 
	C637.871399,864.665039 639.337708,866.125061 627.337036,866.030579 
	C622.022522,865.988708 616.685059,865.729797 611.399231,866.123108 
	C606.819824,866.463806 605.619507,864.665649 605.902832,860.417786 
	C606.222717,855.622375 605.979065,850.789429 605.979370,845.507324 
z"/>
<path fill="#2C2584" opacity="1.000000" stroke="none" 
	d="
M580.588928,737.631775 
	C588.511475,737.607666 595.973999,737.716370 603.437012,737.773438 
	C625.996704,737.946106 648.556641,738.098694 671.587280,738.248779 
	C672.025024,747.293335 671.991882,756.348206 671.849304,765.883667 
	C635.503418,766.393188 599.266907,766.422180 562.578186,766.535583 
	C560.177246,766.104370 559.652100,764.606018 559.488342,762.347473 
	C559.169495,754.068726 558.065796,746.254089 560.596741,738.200928 
	C567.337463,737.814087 573.733276,737.777588 580.588928,737.631775 
z"/>
<path fill="#2C2584" opacity="1.000000" stroke="none" 
	d="
M462.928833,765.774719 
	C429.994934,766.236633 396.981110,766.213806 363.500488,766.162598 
	C363.019684,757.048279 363.005737,747.962524 363.039154,738.407349 
	C396.073669,737.928833 429.060852,737.919617 462.501923,738.022156 
	C462.920197,747.185913 462.884583,756.237976 462.928833,765.774719 
z"/>
<path fill="#231C7A" opacity="1.000000" stroke="none" 
	d="
M569.782471,429.855164 
	C580.652283,429.478333 591.289917,429.387085 601.926636,429.229614 
	C603.720093,429.203064 605.591675,429.693573 607.602051,428.412109 
	C617.974365,428.110840 628.043945,428.097717 638.563721,428.170166 
	C637.884338,437.037598 638.419739,445.867432 638.416809,454.671661 
	C638.415649,458.030090 637.375793,458.921906 634.145874,458.834442 
	C626.490356,458.627197 618.822205,458.903046 611.165405,458.721161 
	C608.145203,458.649414 607.178711,459.526428 607.191406,462.631989 
	C607.271118,482.115662 607.152039,501.600189 606.991272,521.542419 
	C605.150513,523.431946 603.326355,522.809143 602.748535,521.165649 
	C601.654480,518.054321 599.138000,515.222229 599.326416,511.971405 
	C599.598877,507.270538 598.530151,502.691650 598.832031,498.019348 
	C599.097107,493.916168 596.826416,491.143829 592.848816,490.099854 
	C588.918335,489.068237 586.761230,486.237396 587.190247,482.093445 
	C587.427734,479.799652 587.552734,477.388428 588.532410,475.263672 
	C589.218140,473.776367 589.739319,472.686310 588.217407,471.351349 
	C586.836243,470.139862 587.525513,468.563751 588.199768,467.202362 
	C589.075256,465.434814 589.203430,463.713501 588.256470,461.945435 
	C586.682007,459.005676 587.562256,457.220276 590.790894,456.467346 
	C591.744934,456.244873 592.764954,456.031769 594.051880,454.134399 
	C589.541382,455.524170 585.704407,455.867615 581.907410,454.764404 
	C577.229187,453.405121 577.425049,452.318359 579.722778,448.137787 
	C581.618774,444.688080 583.813416,442.496429 587.323364,441.136810 
	C588.346069,440.740662 589.165283,439.491882 588.277527,438.224945 
	C587.321411,436.860535 586.261353,437.636108 585.269653,438.325287 
	C582.946594,439.939697 580.513123,441.380768 578.226318,443.062958 
	C575.880066,444.788849 572.974792,446.429626 570.797485,443.254364 
	C568.451782,439.833557 571.294312,438.232422 573.986816,436.902588 
	C574.579407,436.609924 575.139832,436.231476 575.331970,435.215179 
	C573.531860,433.532379 568.869202,434.672607 569.782471,429.855164 
z"/>
<path fill="#231C7A" opacity="1.000000" stroke="none" 
	d="
M296.288696,593.222778 
	C297.932159,600.804932 296.954163,608.459229 297.139099,616.551025 
	C269.430878,617.070557 241.804138,617.123108 214.177414,617.185852 
	C209.184921,617.197205 204.192505,617.250610 198.754913,617.316101 
	C198.231018,610.185425 198.257492,603.019775 198.025711,595.862549 
	C197.921646,592.648926 199.356262,591.976196 202.233383,591.997375 
	C214.398529,592.086975 226.565002,591.994751 239.174988,591.978638 
	C240.869781,594.052673 242.910568,593.153931 244.589279,593.162170 
	C261.671631,593.245911 278.754456,593.234375 296.288696,593.222778 
z"/>
<path fill="#F34845" opacity="1.000000" stroke="none" 
	d="
M298.231567,514.980652 
	C297.916290,521.883911 297.650818,528.384033 297.872009,534.867554 
	C297.994385,538.454163 296.719391,539.380066 293.312439,539.301086 
	C284.821991,539.104248 276.323364,539.260437 267.346527,539.279785 
	C265.460846,534.595459 266.300507,529.793396 266.245178,525.050659 
	C266.123718,514.643738 266.253967,504.233887 266.403992,493.362183 
	C276.435669,491.381287 286.339233,493.142487 296.710754,492.943054 
	C298.743988,494.461609 298.912933,496.482208 298.819000,498.435608 
	C298.560425,503.812897 299.782349,509.219849 298.231567,514.980652 
z"/>
<path fill="#D0D1D1" opacity="1.000000" stroke="none" 
	d="
M638.876831,708.573547 
	C629.798096,709.040161 620.688110,708.910095 611.584595,709.096069 
	C608.130737,709.166626 606.935364,708.054077 607.015076,704.556763 
	C607.211304,695.950256 607.066406,687.335999 607.018433,678.241577 
	C617.227539,677.669983 627.477051,677.581665 638.168640,677.484985 
	C638.689880,687.685364 638.769043,697.894104 638.876831,708.573547 
z"/>
<path fill="#D0D1D1" opacity="1.000000" stroke="none" 
	d="
M738.574707,459.092041 
	C737.916687,459.033386 737.717834,459.022705 737.220703,458.991699 
	C737.057434,449.212280 737.192505,439.453186 737.562378,429.359131 
	C738.960449,428.071289 740.239990,427.315552 741.769714,427.249512 
	C749.136841,426.931427 756.506042,426.788330 763.868591,427.345306 
	C764.854675,427.419922 765.760376,427.860413 766.932434,428.828857 
	C767.333740,429.140594 767.487671,429.287109 767.580811,429.337494 
	C767.711548,438.030396 767.637756,446.675659 767.847717,455.313995 
	C767.920715,458.315247 767.083069,459.388702 763.962769,459.305237 
	C755.657654,459.082977 747.344055,459.173737 738.574707,459.092041 
z"/>
<path fill="#231A79" opacity="1.000000" stroke="none" 
	d="
M706.213623,370.259399 
	C715.397400,370.753876 724.533936,370.078430 733.656067,370.111542 
	C736.809387,370.122955 737.997253,370.839569 737.888733,374.233704 
	C737.639343,382.033142 737.823181,389.846405 737.871643,398.427185 
	C727.531494,398.110107 717.107910,399.258331 706.365906,398.394897 
	C706.055298,389.037140 706.097900,379.885315 706.213623,370.259399 
z"/>
<path fill="#150238" opacity="1.000000" stroke="none" 
	d="
M737.650879,283.005432 
	C738.172729,291.108643 738.108887,299.215271 738.315979,307.314941 
	C738.395752,310.436646 737.175537,311.294434 734.238342,311.247375 
	C725.472595,311.106995 716.703308,311.188782 707.468872,311.135590 
	C706.584412,303.497162 707.742188,295.873444 706.173706,288.285645 
	C705.514771,285.097870 706.885132,282.900116 710.793579,282.959778 
	C719.584961,283.093994 728.379822,283.004517 737.650879,283.005432 
z"/>
<path fill="#D2D3D1" opacity="1.000000" stroke="none" 
	d="
M560.790894,737.521484 
	C560.884338,745.591919 560.827148,753.333252 560.679321,761.534302 
	C560.280334,762.379944 559.980103,762.791077 559.521790,763.000183 
	C556.443787,764.404663 539.774780,763.349426 536.285278,761.280151 
	C535.906982,759.605225 535.841003,758.210510 535.880371,756.407837 
	C537.597046,754.282898 537.606323,752.429504 536.218384,750.238770 
	C536.078247,748.603577 536.175354,747.207031 536.384644,745.399414 
	C539.385742,744.078918 542.247437,742.960327 545.134766,745.118591 
	C545.715088,745.552368 546.704529,746.022400 547.412415,745.264648 
	C548.290649,744.324524 547.644226,743.427124 547.039978,742.617554 
	C544.835632,739.664673 541.293030,737.767578 540.623535,733.570862 
	C540.293884,731.504944 539.481201,729.356201 541.536804,728.193542 
	C543.894043,726.860291 546.682129,725.404785 549.211792,725.523254 
	C551.482483,725.629639 551.137695,727.988464 549.731628,729.746094 
	C548.576843,731.189636 546.023376,730.569824 545.467407,732.782471 
	C550.149963,734.226318 552.662048,733.342590 553.725098,728.934998 
	C554.729431,724.770752 557.650879,725.912170 559.979797,726.164490 
	C563.169922,726.510132 561.020752,728.866638 561.145325,730.422058 
	C561.329712,732.725281 559.305481,734.834961 560.790894,737.521484 
z"/>
<path fill="#FDFDFE" opacity="1.000000" stroke="none" 
	d="
M443.576965,844.655640 
	C443.083221,836.703613 443.025055,828.835327 443.013672,820.967102 
	C443.011627,819.556702 442.600739,817.927002 444.795807,817.008484 
	C449.739777,818.190552 454.382416,817.381287 458.967804,817.393677 
	C461.923706,817.401672 463.012634,818.129700 462.910706,821.275146 
	C462.664734,828.864441 462.794189,836.465942 462.711823,844.531250 
	C456.443817,844.913147 450.236206,844.826294 443.576965,844.655640 
z"/>
<path fill="#D2D3D3" opacity="1.000000" stroke="none" 
	d="
M535.864380,761.431396 
	C543.920776,761.332825 551.868591,761.665649 560.202515,761.996216 
	C560.873291,763.362732 561.157837,764.731445 561.784180,766.360107 
	C562.125916,766.619995 562.217651,766.808411 562.139526,766.878235 
	C561.872864,767.101562 561.684265,767.255005 561.175537,767.233521 
	C554.075928,766.975525 547.287354,766.649597 540.520203,766.901611 
	C536.523376,767.050476 535.029541,765.737976 535.864380,761.431396 
z"/>
<path fill="#D0D1D1" opacity="1.000000" stroke="none" 
	d="
M535.874451,750.419189 
	C539.661926,751.565002 539.631531,753.553833 536.319092,755.939697 
	C535.912964,754.279358 535.840393,752.558777 535.874451,750.419189 
z"/>
<path fill="#241E7B" opacity="1.000000" stroke="none" 
	d="
M330.049683,646.872925 
	C329.846863,646.884338 329.548828,646.533752 329.497894,646.309204 
	C329.678162,646.080139 329.909332,646.075623 330.464966,646.184753 
	C330.711609,646.582458 330.532623,646.770203 330.049683,646.872925 
z"/>
<path fill="#D0D1D1" opacity="1.000000" stroke="none" 
	d="
M560.824707,767.308533 
	C561.056763,767.042480 561.257935,767.026428 561.760315,766.979187 
	C561.858093,767.211548 561.654724,767.475098 561.239624,767.871704 
	C560.949951,767.856140 560.871948,767.707397 560.824707,767.308533 
z"/>
<path fill="#41CFFE" opacity="1.000000" stroke="none" 
	d="
M421.785309,366.436005 
	C421.356628,364.942047 421.091156,363.763855 421.215973,362.628601 
	C421.568726,359.420929 420.073669,358.697876 417.124969,358.813904 
	C410.140167,359.088745 403.139771,358.958374 396.153534,359.210266 
	C393.044952,359.322296 391.740631,358.515503 391.749695,355.085663 
	C391.851044,316.783966 391.849762,278.481781 391.745026,240.180054 
	C391.735291,236.621765 392.964722,235.561432 396.388245,235.662979 
	C403.043060,235.860382 409.724304,235.411743 416.364410,235.777802 
	C421.210693,236.044968 423.126190,234.911896 422.866455,229.540588 
	C422.376312,219.405914 422.827911,209.229065 422.655731,199.073685 
	C422.600891,195.839767 423.591125,194.763168 426.889374,194.767639 
	C485.507904,194.847366 544.126648,194.850449 602.745117,194.760452 
	C606.450867,194.754761 607.225098,196.357361 607.195862,199.580795 
	C607.090271,211.236008 607.149109,222.892715 607.101196,234.978546 
	C608.501648,237.565948 608.913879,239.964645 608.910889,242.526260 
	C608.898621,253.025574 608.989746,263.525726 608.871155,274.024078 
	C608.784180,281.720215 606.768433,283.634094 598.955139,283.870148 
	C596.120117,283.955841 593.293518,283.791779 590.465698,283.574677 
	C585.094421,283.162354 583.571350,284.397583 583.075134,289.776276 
	C582.769104,293.094330 582.918640,296.438110 582.911438,299.770996 
	C582.889771,309.770325 583.033508,319.771179 582.848083,329.768494 
	C582.727539,336.267181 581.284973,337.486176 574.818665,337.902161 
	C562.031067,338.724701 549.193359,337.081573 536.417847,338.839294 
	C532.103271,339.432892 527.820374,337.940002 523.479309,337.956696 
	C517.626709,337.979156 517.063232,338.431824 516.958557,344.067993 
	C516.862671,349.232056 516.812256,354.399170 517.123413,359.561340 
	C517.484497,365.551453 515.888245,367.548553 509.937622,367.789154 
	C501.612030,368.125793 493.274353,367.896149 484.941956,367.904663 
	C466.609650,367.923370 448.277313,367.927948 429.945068,367.893860 
	C427.299164,367.888947 424.585236,368.165344 421.785309,366.436005 
z"/>
<path fill="#03D8FE" opacity="1.000000" stroke="none" 
	d="
M421.358368,366.555176 
	C450.741913,366.057007 480.039917,366.013458 509.337891,365.969879 
	C515.978027,365.960022 515.670715,365.980591 515.227478,359.370239 
	C514.794067,352.905853 515.104858,346.393188 515.031677,339.902344 
	C515.000671,337.151794 516.311340,336.139008 518.994812,336.009705 
	C523.843445,335.776093 528.591919,336.687042 533.391296,336.912323 
	C541.200439,337.278931 548.962708,335.243134 556.765320,336.111511 
	C563.395020,336.849304 569.977539,335.660797 576.566467,336.094879 
	C580.135254,336.330017 581.134705,334.891968 581.091553,331.473419 
	C580.934021,318.989960 581.027222,306.503326 581.026733,294.017883 
	C581.026672,292.852600 580.998474,291.686096 581.039856,290.522186 
	C581.345093,281.926727 582.827942,280.707581 591.542908,281.854980 
	C606.091675,283.770447 607.037781,282.949432 607.043457,268.400909 
	C607.047607,257.746674 607.050903,247.092438 607.055542,235.923218 
	C616.739563,235.469330 626.422668,235.530441 636.578613,235.577179 
	C638.548401,248.034317 637.009216,260.523682 637.245911,273.006409 
	C637.460693,284.333008 637.114624,295.669586 637.260437,306.998627 
	C637.303223,310.321411 636.222656,311.278748 632.974976,311.183929 
	C625.982788,310.979797 618.975708,311.303619 611.982300,311.120544 
	C608.711975,311.034882 607.686279,312.090240 607.729187,315.389343 
	C607.889832,327.718323 607.625000,340.053467 607.836365,352.380829 
	C607.903931,356.322540 606.725647,357.664795 602.754272,357.429474 
	C597.440918,357.114716 592.087341,357.531525 586.764221,357.312683 
	C583.194214,357.165863 581.835999,358.080383 581.936951,362.035095 
	C582.200256,372.351990 581.737244,382.686249 581.931946,393.006653 
	C582.008240,397.050232 580.988770,398.393921 576.692383,398.367065 
	C525.205444,398.045135 473.717285,397.928406 421.782928,397.774750 
	C421.315216,387.530884 421.294006,377.270325 421.358368,366.555176 
z"/>
<path fill="#D2D3D3" opacity="1.000000" stroke="none" 
	d="
M363.350861,398.683960 
	C362.880737,395.959381 362.835358,393.478302 362.863525,390.546387 
	C372.633759,388.991272 381.406799,392.655273 390.331238,395.475677 
	C390.980499,395.680878 391.393494,396.633514 392.036865,397.580627 
	C391.903442,397.966339 391.649536,398.010101 391.014832,398.120300 
	C390.049835,398.807587 389.352753,399.354431 388.516083,399.408844 
	C380.257446,399.945953 371.988464,400.791382 363.350861,398.683960 
z"/>
<path fill="#231A79" opacity="1.000000" stroke="none" 
	d="
M569.563965,429.470520 
	C569.989258,432.621735 571.971680,432.977142 574.375366,433.038635 
	C575.755554,433.073944 577.938782,432.254547 578.303162,434.011200 
	C578.675598,435.806549 576.971863,437.251556 575.383484,438.216522 
	C574.695068,438.634766 573.848206,438.860809 573.042969,439.004089 
	C571.323242,439.310181 570.805481,440.382782 571.228455,441.889313 
	C571.725830,443.660553 573.059326,444.316101 574.706177,443.545624 
	C578.300476,441.864044 580.885742,438.622894 584.606567,437.048126 
	C585.502014,436.669189 584.671997,433.809753 586.795105,434.710327 
	C588.359619,435.373962 590.284973,436.113586 590.810547,438.153381 
	C591.296936,440.040985 590.345276,441.390350 588.895447,442.397583 
	C588.086731,442.959442 587.157593,443.607788 586.233704,443.694519 
	C583.627686,443.939209 581.745667,444.319397 582.821777,447.787262 
	C583.334106,449.438568 581.751709,449.935242 580.284241,450.024353 
	C579.439148,450.075684 578.482117,450.244171 578.561462,451.328217 
	C578.627319,452.226715 579.440552,452.670685 580.294373,452.868530 
	C584.171875,453.767212 588.040710,454.964050 591.965637,453.024414 
	C593.460999,452.285461 595.329956,451.230164 596.304016,453.289551 
	C597.348328,455.497711 595.036072,456.430695 593.670166,457.432861 
	C592.957458,457.955719 591.778931,457.934937 590.801514,457.987701 
	C588.318604,458.121613 587.717896,459.000854 589.477844,460.973297 
	C591.600281,463.352051 591.565552,465.710663 589.439087,468.075317 
	C587.578186,470.144623 588.563599,470.734161 590.828918,471.081635 
	C593.515259,471.493683 593.273254,472.641602 591.459167,474.268433 
	C588.497803,476.924103 587.814392,484.619995 590.149780,487.663910 
	C590.514709,488.139587 591.073425,488.655365 591.623230,488.771790 
	C599.091736,490.353424 600.401123,492.394653 600.171875,499.771973 
	C600.040283,504.005341 599.729126,509.106171 601.018738,512.305054 
	C602.219604,515.283630 601.156555,520.702759 606.509216,521.989014 
	C606.852478,552.788513 606.756287,583.576782 606.864746,614.364380 
	C606.879822,618.634094 604.248962,617.734070 601.918152,617.735840 
	C563.955200,617.765076 525.992188,617.770264 488.029236,617.776550 
	C475.541412,617.778564 463.046692,617.529175 450.569336,617.888367 
	C445.951660,618.021301 445.175903,616.504761 445.178070,612.279663 
	C445.198303,572.820862 444.988647,533.361877 444.837921,493.431915 
	C447.422333,490.424011 450.738068,491.089905 453.817627,491.082947 
	C494.388184,490.991150 534.958923,491.131622 575.930298,490.959778 
	C578.621033,490.856537 578.704407,489.666321 577.706543,487.622223 
	C576.865112,479.262390 577.015991,471.263611 577.588257,462.886414 
	C578.141296,461.028748 579.119202,460.055664 579.662659,459.934723 
	C579.684998,459.925629 578.700378,460.003815 577.417847,460.504395 
	C555.045227,461.087585 533.064270,461.200989 510.646851,460.460876 
	C507.445068,458.834229 504.668335,457.585144 501.317902,460.158569 
	C492.160126,461.556610 483.370819,460.769470 474.605743,460.861145 
	C467.823883,460.932129 461.022949,461.311432 453.850830,460.421814 
	C447.413818,455.400299 446.951904,449.422180 452.294189,445.534973 
	C453.542450,444.626709 454.820190,443.775452 456.402649,444.546143 
	C457.951080,445.300232 457.438568,446.738586 457.450470,448.053436 
	C457.486603,452.049438 458.775848,452.986023 462.246155,450.943604 
	C465.591705,448.974609 468.781158,448.828247 472.249512,450.088287 
	C474.326599,450.842926 476.097870,450.761017 477.390869,448.579926 
	C479.455841,445.096710 482.054657,445.489960 484.901306,447.666809 
	C487.279419,449.485352 489.516113,450.921600 490.284149,446.161194 
	C490.645233,443.923187 492.779449,443.790405 494.684601,443.826782 
	C496.412964,443.859772 498.162781,444.566803 500.178864,443.828033 
	C493.052582,439.841217 492.654480,437.600861 497.719971,429.756714 
	C498.460236,429.498840 498.902802,429.424774 499.669281,429.457336 
	C501.422791,430.320007 502.868927,430.794647 504.703796,429.684387 
	C521.369324,429.478607 537.731262,429.411591 554.546997,429.462830 
	C555.436523,429.727661 555.883911,429.788727 556.671936,429.671814 
	C561.038330,429.502533 565.075684,429.425873 569.563965,429.470520 
z"/>
<path fill="#231C7A" opacity="1.000000" stroke="none" 
	d="
M497.561371,429.455109 
	C497.685425,430.849304 497.400818,432.140442 497.011871,433.399353 
	C495.883362,437.051971 493.173798,441.242493 500.445343,441.495819 
	C501.518097,441.533142 503.653473,442.553619 503.225647,444.354431 
	C502.923523,445.626038 501.202515,445.971466 499.845947,445.940491 
	C498.536194,445.910553 497.216431,445.716248 495.928436,445.457703 
	C493.059082,444.881836 490.162628,444.119873 491.764038,448.931000 
	C492.066864,449.840790 492.123352,451.447083 490.980133,451.359314 
	C488.914612,451.200745 486.202698,451.791565 484.890778,449.993683 
	C481.611176,445.499146 479.702332,446.445282 477.891693,451.034668 
	C477.024384,453.233093 475.243652,453.095398 473.316010,452.168335 
	C469.384521,450.277527 465.602783,449.418182 462.015503,453.192413 
	C460.702118,454.574219 458.472687,454.517944 456.995392,453.136658 
	C455.544861,451.780396 454.388245,450.024445 455.754852,447.848145 
	C456.259430,447.044647 457.226013,446.106903 455.978577,445.352875 
	C455.021881,444.774689 454.180420,445.574097 453.408447,446.295837 
	C450.748444,448.782532 447.605865,451.045624 451.424225,455.068420 
	C451.991058,455.665619 451.825104,456.958313 451.999817,458.296387 
	C450.173981,461.149200 447.550903,460.807526 444.512146,460.616791 
	C438.584259,461.185028 433.100708,460.837524 427.629242,460.864502 
	C424.248108,460.881195 422.865295,462.215851 422.880920,465.607300 
	C422.911499,472.246124 422.930237,478.886871 422.856171,485.526184 
	C422.830444,487.831879 423.068115,490.200653 421.521973,492.690918 
	C421.243439,518.075684 421.210754,543.080261 421.076294,568.544189 
	C420.389893,569.741272 420.572296,570.828003 419.448181,571.762207 
	C410.926910,573.165100 402.805084,573.928040 394.398407,571.187073 
	C391.484863,570.498901 391.741516,568.616699 391.742676,566.757996 
	C391.748016,558.133179 391.694366,549.508301 391.572998,540.420166 
	C391.511078,514.391357 391.440643,488.824982 391.667114,463.261261 
	C391.702087,459.313934 390.389221,458.565063 386.864471,458.718475 
	C379.086151,459.057037 371.292053,459.033112 363.004944,459.137787 
	C361.485443,457.524048 361.021362,455.757324 361.107941,453.890808 
	C361.483978,445.781891 359.974182,437.596619 362.371155,429.141052 
	C363.689331,427.798828 364.961395,427.282776 366.281525,427.295074 
	C374.309967,427.369690 382.417603,425.786621 390.741699,428.662170 
	C394.120392,429.110016 397.091064,429.391479 400.061829,429.392120 
	C432.409576,429.399200 464.757294,429.362244 497.561371,429.455109 
z"/>
<path fill="#FEFEFE" opacity="1.000000" stroke="none" 
	d="
M443.690796,459.430511 
	C446.390228,458.982758 448.760101,458.914276 451.565674,458.754669 
	C468.361450,458.840546 484.721527,459.017578 501.540771,459.093445 
	C503.976166,457.602600 506.089691,457.848694 508.617310,458.734619 
	C531.858398,459.090363 554.716858,459.180481 578.007690,459.240540 
	C579.176331,459.153046 579.506226,459.491486 579.210449,460.613007 
	C578.925598,470.027679 578.859985,479.055328 578.899292,488.541504 
	C579.603210,489.691895 579.759399,490.468414 579.196655,491.666992 
	C577.170532,493.411224 575.088257,492.742859 573.160889,492.744873 
	C530.699097,492.789612 488.237274,492.780579 445.302856,492.871338 
	C444.830261,492.960876 444.594299,492.995087 444.476562,493.013733 
	C442.877319,491.992523 442.288055,490.448425 442.228943,488.757751 
	C441.929230,480.186829 441.900848,471.613281 442.244476,463.042267 
	C442.291168,461.877655 442.667297,460.776215 443.690796,459.430511 
z"/>
<path fill="#27207D" opacity="1.000000" stroke="none" 
	d="
M391.018616,616.382812 
	C382.941223,616.804443 374.978851,616.677734 367.020966,616.812683 
	C364.120239,616.861877 362.975616,616.231140 363.031128,612.979065 
	C363.248993,600.210205 363.238129,587.434570 363.084351,574.664124 
	C363.044189,571.329590 363.800354,569.957703 367.447754,570.088135 
	C374.071045,570.325012 380.726318,570.277344 387.341370,569.890076 
	C390.882874,569.682800 391.629211,571.133606 391.363892,574.542297 
	C393.825470,580.680115 393.343567,586.445557 391.685608,592.670410 
	C391.350739,600.715881 391.243073,608.326965 391.018616,616.382812 
z"/>
<path fill="#27207D" opacity="1.000000" stroke="none" 
	d="
M737.825317,399.648499 
	C737.912048,399.200348 737.904236,398.930603 737.898682,398.802551 
	C747.253296,397.570312 756.649109,398.506256 766.494873,398.179230 
	C767.024597,408.180664 767.082275,418.187134 767.236877,428.667084 
	C757.804810,429.162018 748.275879,429.183441 738.272095,429.114502 
	C737.777649,419.381653 737.758057,409.739166 737.825317,399.648499 
z"/>
<path fill="#D0D1D1" opacity="1.000000" stroke="none" 
	d="
M443.560211,458.946655 
	C444.053040,470.070892 444.085754,481.090576 444.238647,492.571320 
	C436.964844,493.032745 429.570862,493.033112 421.726501,493.052307 
	C420.186615,482.663635 421.070496,472.225006 420.770752,461.805786 
	C420.685760,458.851898 422.532532,458.755768 424.699036,458.776703 
	C430.832336,458.836029 436.966339,458.825256 443.560211,458.946655 
z"/>
<path fill="#D2D3D1" opacity="1.000000" stroke="none" 
	d="
M391.896118,593.066223 
	C391.395294,587.373169 391.332245,581.641541 391.363831,575.449829 
	C393.923248,575.088196 394.060547,573.419067 394.033020,571.242615 
	C402.394409,570.771179 410.743652,570.672668 419.540588,570.437805 
	C420.169098,570.340698 420.349884,570.379883 420.649170,570.670044 
	C423.279816,577.609558 421.685303,584.513184 421.662628,591.310547 
	C421.655243,593.512329 419.110779,592.876587 417.582428,592.893311 
	C409.166779,592.985474 400.750153,592.991821 391.896118,593.066223 
z"/>
<path fill="#27207D" opacity="1.000000" stroke="none" 
	d="
M420.872009,570.606934 
	C420.767639,570.921021 420.357819,570.636658 420.173035,570.469055 
	C420.190643,569.935974 420.393005,569.570557 420.784912,569.104248 
	C420.975098,569.433289 420.975739,569.863037 420.872009,570.606934 
z"/>
<path fill="#1A0C1F" opacity="1.000000" stroke="none" 
	d="
M391.183014,428.494141 
	C382.073029,428.963654 372.996368,428.968353 363.450195,428.953003 
	C362.161835,428.292664 361.570099,427.413513 361.520081,426.433960 
	C361.068451,417.589905 360.194977,408.732147 362.286285,399.507721 
	C362.540558,399.084198 362.864197,398.840393 362.895142,398.640442 
	C371.869965,398.410461 380.813843,398.380463 390.195923,398.268616 
	C392.029572,408.110840 390.868317,418.084808 391.183014,428.494141 
z"/>
<path fill="#FDFDFE" opacity="1.000000" stroke="none" 
	d="
M655.872437,363.238281 
	C655.582825,366.430786 653.522827,366.440979 651.939636,365.430206 
	C650.342102,364.410217 650.555908,362.185699 651.911987,361.090454 
	C653.853882,359.522156 655.186462,360.805359 655.872437,363.238281 
z"/>
<path fill="#231C7A" opacity="1.000000" stroke="none" 
	d="
M504.599182,429.433350 
	C503.736481,432.475464 502.151062,432.920288 500.076599,429.861511 
	C501.392456,429.482971 502.791718,429.402039 504.599182,429.433350 
z"/>
<path fill="#231C7A" opacity="1.000000" stroke="none" 
	d="
M556.673706,429.467407 
	C556.597168,430.631134 556.105347,431.313263 555.072266,429.801178 
	C555.449402,429.505981 555.897888,429.430786 556.673706,429.467407 
z"/>
<path fill="#FB4145" opacity="1.000000" stroke="none" 
	d="
M362.107880,399.042053 
	C362.622589,408.731598 362.704590,418.378967 362.883667,428.479675 
	C362.874268,438.680603 362.767853,448.428223 362.583435,458.647156 
	C362.505463,459.118469 362.526215,459.056854 362.548462,459.033173 
	C361.255768,459.665955 360.084381,460.703247 358.518463,460.718109 
	C349.811554,460.800751 341.086731,461.675568 331.659851,459.525940 
	C330.643768,447.619568 331.649323,436.336395 330.120758,425.062561 
	C329.067230,417.292572 331.105713,409.526459 330.995270,401.724976 
	C330.952057,398.672150 333.257233,398.983124 335.237427,398.981506 
	C344.050018,398.974304 352.862610,398.991516 362.107880,399.042053 
z"/>
<path fill="#FB4145" opacity="1.000000" stroke="none" 
	d="
M331.421204,491.133301 
	C330.636902,491.650879 330.195801,491.818420 329.427795,492.121704 
	C328.263397,492.802399 327.437531,493.510437 326.429596,493.548157 
	C316.982025,493.901642 307.522156,494.737213 297.696533,492.770142 
	C297.202209,482.734711 297.175232,472.963684 297.014099,463.194885 
	C296.958679,459.833282 298.663910,458.971619 301.662537,458.993744 
	C311.104248,459.063416 320.546967,458.992523 330.447418,458.935028 
	C330.905518,458.894012 331.030640,459.022583 331.094666,459.085419 
	C331.614197,459.634216 332.179718,460.161774 332.231201,460.786804 
	C333.055634,470.798706 333.895386,480.816162 331.421204,491.133301 
z"/>
<path fill="#241E7B" opacity="1.000000" stroke="none" 
	d="
M297.309692,492.626038 
	C307.571228,492.409607 317.860626,492.314362 328.625488,492.238281 
	C329.148193,498.547821 329.043640,504.844513 329.306366,511.125854 
	C329.438446,514.284241 328.604858,515.418274 325.249542,515.340027 
	C316.478180,515.135376 307.697601,515.323914 298.449646,515.373230 
	C296.698914,508.255249 297.594910,501.049469 297.229309,493.409241 
	C297.175354,492.935760 297.337555,492.747223 297.309692,492.626038 
z"/>
<path fill="#D0D1D1" opacity="1.000000" stroke="none" 
	d="
M546.739868,677.964539 
	C546.526245,678.733032 546.044556,679.009521 545.265564,678.446289 
	C545.416931,677.636597 545.912109,677.524658 546.739868,677.964539 
z"/>
<path fill="#27207D" opacity="1.000000" stroke="none" 
	d="
M331.531372,491.591614 
	C331.115875,481.010254 331.153717,470.537170 331.175110,459.606171 
	C341.289062,458.363220 351.433075,458.929840 362.070587,458.925781 
	C362.461700,468.469055 362.196106,477.930725 362.325775,487.387024 
	C362.373291,490.848785 361.408295,491.950195 357.890259,491.843353 
	C349.261597,491.581299 340.620697,491.721497 331.531372,491.591614 
z"/>
<path fill="#241E7B" opacity="1.000000" stroke="none" 
	d="
M328.716980,644.595459 
	C318.564636,644.974548 308.452454,644.879578 297.906586,644.764893 
	C297.350739,635.788818 297.228607,626.832520 297.039276,617.407227 
	C306.127472,617.020752 315.286163,617.275024 324.436584,617.099854 
	C328.023865,617.031189 328.965851,618.203247 328.853729,621.640686 
	C328.609436,629.127380 328.764984,636.627075 328.716980,644.595459 
z"/>
<path fill="#D2D3D3" opacity="1.000000" stroke="none" 
	d="
M555.046814,735.562012 
	C555.486816,735.780945 555.638489,735.900940 555.667419,736.045593 
	C555.973816,737.575500 556.680237,739.202271 554.987427,740.367981 
	C554.777283,740.512695 553.980591,740.209656 553.784241,739.903381 
	C552.674194,738.172424 552.596497,736.575989 555.046814,735.562012 
z"/>
<path fill="#B2F4FF" opacity="1.000000" stroke="none" 
	d="
M422.321136,299.238220 
	C420.917938,297.885468 421.086426,296.517151 421.080872,295.198730 
	C421.033295,283.895569 421.095367,272.590515 420.884796,261.290466 
	C420.823059,257.977844 421.957214,256.910004 425.184906,257.034821 
	C430.330505,257.233734 435.491669,256.993591 440.642700,257.104553 
	C443.234070,257.160370 444.176819,256.120575 444.147797,253.574646 
	C444.091095,248.597641 444.083893,243.628220 444.738220,238.653091 
	C445.058929,236.214569 445.695251,235.091400 448.296783,235.097977 
	C460.764557,235.129471 473.232727,235.057236 485.700500,234.984802 
	C487.664856,234.973389 488.935181,235.549194 488.861481,237.771713 
	C488.619720,245.062134 489.375702,252.374695 488.116394,260.002014 
	C486.036346,261.862274 483.833008,261.779388 481.671387,261.814636 
	C478.006165,261.874420 474.325165,262.036133 470.678497,261.790466 
	C466.737671,261.525024 465.360321,263.347717 465.121155,266.978241 
	C464.890930,270.473541 465.017731,273.978455 464.706909,277.461090 
	C464.276550,282.282532 462.738953,283.553589 457.940948,283.288208 
	C457.608551,283.269806 457.280334,283.196320 456.948914,283.168854 
	C447.317261,282.369232 447.098724,282.561951 446.819489,292.067444 
	C446.603210,299.429932 445.350128,300.860016 437.905182,300.751892 
	C432.821045,300.678070 427.573517,301.964966 422.321136,299.238220 
z"/>
<path fill="#03D8FE" opacity="1.000000" stroke="none" 
	d="
M421.980957,299.427948 
	C427.786346,298.921356 433.610077,298.628296 439.402130,298.934448 
	C443.785553,299.166168 445.955048,298.064758 445.301575,293.249084 
	C444.969940,290.805145 445.439056,288.261871 445.236450,285.788910 
	C444.942841,282.204773 446.618683,281.009613 449.935822,281.218567 
	C452.418304,281.374908 454.972504,281.032990 457.387146,281.486267 
	C461.859680,282.325836 463.906128,281.243988 463.417358,276.235138 
	C463.049561,272.466156 463.897461,268.576324 463.508118,264.812317 
	C463.112305,260.986176 464.256470,259.912109 468.025055,260.103668 
	C474.319122,260.423676 480.639343,260.228729 487.402771,260.303101 
	C488.154236,266.499298 487.873566,272.601990 487.132690,278.721771 
	C486.811005,281.378937 485.745850,282.095184 483.355835,282.051758 
	C478.702850,281.967163 474.042389,282.153473 469.394470,281.977600 
	C466.323700,281.861359 464.729706,282.651672 464.929230,286.110748 
	C465.336945,293.179108 464.353302,300.318878 465.748871,307.984680 
	C461.153992,307.984680 456.260559,308.041107 451.369202,307.963470 
	C448.445251,307.917114 446.234375,308.284241 447.494385,312.104645 
	C448.282501,314.494263 446.868164,315.009613 444.883881,315.000885 
	C438.400879,314.972443 431.916779,314.894714 425.435150,314.984009 
	C422.789001,315.020416 421.925568,313.829712 421.978271,311.368134 
	C422.060150,307.546814 421.990845,303.722229 421.980957,299.427948 
z"/>
<path fill="#3DCEFD" opacity="1.000000" stroke="none" 
	d="
M463.809875,518.294434 
	C464.337128,515.687683 466.089081,516.220093 467.476990,516.208862 
	C473.624481,516.159180 479.774323,516.272217 485.919647,516.146851 
	C488.528717,516.093567 489.948273,516.636780 489.837616,519.678955 
	C489.644409,524.989197 489.700989,530.312561 489.800873,535.627686 
	C489.845673,538.010437 488.895996,538.844055 486.565186,538.809753 
	C480.086334,538.714478 473.603943,538.692627 467.125702,538.803406 
	C464.463196,538.848877 463.683167,537.707947 463.736877,535.213989 
	C463.854889,529.733276 463.776642,524.248291 463.809875,518.294434 
z"/>
<path fill="#308ED6" opacity="1.000000" stroke="none" 
	d="
M517.418335,541.293396 
	C523.362427,541.174683 528.853394,541.234619 534.339233,541.094055 
	C536.874268,541.029114 537.935486,541.873108 537.878174,544.519287 
	C537.734314,551.170227 537.705444,557.826660 537.805481,564.478271 
	C537.847717,567.285889 536.787109,568.320618 533.989685,568.227417 
	C529.170837,568.066895 524.343323,568.157715 519.519409,568.164185 
	C517.587952,568.166809 515.779907,568.126343 515.800598,565.427368 
	C515.857910,557.943420 515.847961,550.458862 515.944763,542.975647 
	C515.951660,542.442810 516.608521,541.918396 517.418335,541.293396 
z"/>
<path fill="#40CDFC" opacity="1.000000" stroke="none" 
	d="
M555.222534,521.291809 
	C554.380920,516.264221 556.355957,515.107788 560.731873,515.547119 
	C565.511353,516.027039 570.375366,515.847107 575.193787,515.689026 
	C578.110291,515.593445 579.409729,516.381470 579.277771,519.566223 
	C579.064514,524.714233 579.149536,529.881409 579.301453,535.034851 
	C579.379578,537.685608 578.741211,538.967224 575.730530,538.895508 
	C570.081299,538.760864 564.419922,538.923645 558.769775,539.130920 
	C556.215332,539.224548 555.159912,538.346863 555.224487,535.727356 
	C555.339233,531.072266 555.235596,526.411804 555.222534,521.291809 
z"/>
<path fill="#3DCEFD" opacity="1.000000" stroke="none" 
	d="
M512.783447,588.619019 
	C513.053894,591.579834 512.066406,592.731201 509.420135,592.689819 
	C504.096039,592.606628 498.767395,592.658936 493.443542,592.781616 
	C491.163849,592.834167 490.095245,592.097351 490.134644,589.662048 
	C490.226135,584.004700 490.229126,578.342896 490.102020,572.686646 
	C490.047241,570.248901 491.071655,569.466919 493.358582,569.525391 
	C498.681427,569.661499 504.008881,569.776428 509.331421,569.696777 
	C511.916718,569.658142 512.872070,570.592102 512.804443,573.180115 
	C512.674133,578.169800 512.777588,583.165466 512.783447,588.619019 
z"/>
<path fill="#3DCEFD" opacity="1.000000" stroke="none" 
	d="
M464.769653,583.951782 
	C465.156952,579.058533 462.843597,573.420593 465.792023,570.570923 
	C468.485199,567.967957 474.013062,569.826050 478.286224,569.772156 
	C488.300964,569.645813 488.303223,569.716614 488.315094,579.497009 
	C488.318512,582.316589 488.046997,585.167053 488.371368,587.948547 
	C488.855896,592.104126 487.000793,593.076294 483.255798,592.840027 
	C478.960266,592.569031 474.605804,592.450684 470.330627,592.846375 
	C465.555908,593.288208 464.073883,591.320740 464.745850,586.928772 
	C464.869873,586.118164 464.767090,585.272888 464.769653,583.951782 
z"/>
<path fill="#40CDFC" opacity="1.000000" stroke="none" 
	d="
M491.270996,521.247437 
	C490.840088,517.509705 491.833191,515.861023 495.566101,516.126648 
	C499.865234,516.432495 504.211029,516.363098 508.520782,516.144958 
	C511.671234,515.985474 513.050293,516.852600 512.861938,520.275757 
	C512.597473,525.080872 512.671387,529.914734 512.828003,534.728882 
	C512.916565,537.451050 512.088257,538.692261 509.193756,538.612122 
	C504.378540,538.478699 499.554138,538.523254 494.737671,538.649109 
	C492.194366,538.715576 491.138153,537.792419 491.220154,535.175293 
	C491.360596,530.692505 491.266846,526.202454 491.270996,521.247437 
z"/>
<path fill="#3DCEFD" opacity="1.000000" stroke="none" 
	d="
M557.875610,569.889893 
	C564.049683,568.941589 569.871094,569.392822 575.692200,569.439209 
	C578.177307,569.459045 579.282288,570.209656 579.184998,572.916687 
	C578.987671,578.408691 579.026489,583.912415 579.104248,589.409424 
	C579.135498,591.618896 578.613647,592.872742 576.083801,592.794189 
	C570.266174,592.613464 564.443970,592.578308 558.357910,592.167664 
	C555.328247,589.401855 557.049927,586.179077 556.822327,583.365784 
	C556.467773,578.982666 555.672485,574.466187 557.875610,569.889893 
z"/>
<path fill="#3DCEFD" opacity="1.000000" stroke="none" 
	d="
M556.331543,591.695007 
	C550.534302,593.521606 544.892944,592.486389 539.295837,592.687195 
	C536.937683,592.771790 536.824219,590.998901 536.831238,589.230347 
	C536.852356,583.913635 536.887329,578.596497 536.841553,573.280151 
	C536.817017,570.437927 537.820557,569.039246 540.954102,569.194092 
	C545.595703,569.423584 550.255310,569.289734 555.347534,569.423889 
	C558.411865,574.813293 556.407715,580.473999 557.081543,585.923889 
	C557.291992,587.625854 557.258057,589.543640 556.331543,591.695007 
z"/>
<path fill="#40CDFC" opacity="1.000000" stroke="none" 
	d="
M544.988403,515.284058 
	C546.790344,515.291565 548.126160,515.402527 549.440125,515.279968 
	C552.178162,515.024536 553.313232,516.024658 553.215027,518.920532 
	C553.029724,524.383911 553.066101,529.859619 553.187378,535.326294 
	C553.246460,537.990540 552.457092,539.079102 549.561646,539.224670 
	C536.225525,539.895264 536.230103,539.985535 536.237061,526.738098 
	C536.237610,525.743652 536.238708,524.749207 536.238159,523.754761 
	C536.233032,515.235352 536.232910,515.235352 544.988403,515.284058 
z"/>
<path fill="#308ED6" opacity="1.000000" stroke="none" 
	d="
M556.422974,592.064453 
	C556.009949,584.872009 555.931763,577.632385 555.820679,569.964966 
	C556.333374,569.527710 556.879028,569.518250 557.830627,569.566406 
	C558.216309,576.760620 558.195923,583.897278 558.133911,591.442505 
	C557.647400,591.906616 557.202576,591.961975 556.422974,592.064453 
z"/>
<path fill="#231C7A" opacity="1.000000" stroke="none" 
	d="
M556.742432,440.353882 
	C556.026611,437.776123 557.125977,436.777100 559.147644,437.447449 
	C560.312256,437.833618 561.206299,439.342896 560.374390,440.692444 
	C559.383667,442.299744 558.050537,442.300598 556.742432,440.353882 
z"/>
<path fill="#231C7A" opacity="1.000000" stroke="none" 
	d="
M579.362793,460.991943 
	C578.847290,460.608551 578.703369,460.217102 578.499756,459.518066 
	C578.588806,459.146515 578.737610,459.082825 578.886169,459.018555 
	C580.458984,458.338501 581.633423,456.552338 583.688232,457.226196 
	C584.378052,457.452423 584.783997,458.062592 584.337708,458.714386 
	C583.249146,460.304291 581.562134,460.819244 579.362793,460.991943 
z"/>
<path fill="#231C7A" opacity="1.000000" stroke="none" 
	d="
M508.906372,458.633606 
	C506.952057,459.067413 504.904083,459.134583 502.428040,459.097046 
	C503.954803,455.781738 506.324036,456.463318 508.906372,458.633606 
z"/>
<path fill="#231C7A" opacity="1.000000" stroke="none" 
	d="
M579.270752,491.943542 
	C578.893188,491.244110 578.843567,490.488098 578.899048,489.366028 
	C581.055359,489.580811 581.757568,490.439331 579.270752,491.943542 
z"/>
<path fill="#231C7A" opacity="1.000000" stroke="none" 
	d="
M567.213745,438.752411 
	C566.328857,438.150635 566.388733,437.596130 567.101440,437.319458 
	C567.426453,437.193329 568.146484,437.369537 568.290283,437.628784 
	C568.688782,438.347290 568.175964,438.692017 567.213745,438.752411 
z"/>
</svg>